M48
; DRILL file {KiCad (5.1.10)-1} date 08/26/21 18:29:19
; FORMAT={-:-/ absolute / metric / decimal}
; #@! TF.CreationDate,2021-08-26T18:29:19-04:00
; #@! TF.GenerationSoftware,Kicad,Pcbnew,(5.1.10)-1
; #@! TF.FileFunction,Plated,1,4,PTH
FMAT,2
METRIC
T1C0.300
T2C0.400
T3C0.500
T4C0.550
%
G90
G05
T1
X103.29Y-101.84
X104.0Y-91.43
X104.0Y-99.07
X104.61Y-101.83
X105.87Y-101.82
X105.88Y-111.39
X106.69Y-109.19
X106.75Y-110.28
X107.58Y-109.17
X108.34Y-100.52
X108.4Y-101.85
X108.41Y-111.42
X108.42Y-108.52
X108.67Y-105.51
X109.67Y-101.85
X111.19Y-118.06
X111.32Y-120.9
X111.32Y-122.42
X111.51Y-104.41
X112.7Y-105.41
X113.03Y-84.41
X113.04Y-93.74
X113.07Y-123.64
X115.11Y-121.19
X116.86Y-103.15
X118.51Y-99.45
X118.62Y-100.77
X120.24Y-122.34
X120.42Y-78.08
X120.98Y-119.02
X121.0Y-86.88
X121.51Y-92.94
X121.7Y-88.19
X122.27Y-90.16
X122.54Y-77.0
X123.55Y-86.89
X123.7Y-96.23
X126.07Y-90.15
X127.36Y-86.89
X128.66Y-87.32
X130.799Y-79.272
X131.05Y-77.01
X131.5Y-82.22
X131.5Y-84.63
X132.95Y-84.015
X134.03Y-82.275
X134.381Y-83.455
X135.3Y-82.25
X136.31Y-88.56
X138.81Y-87.1
X139.6Y-88.27
X139.76Y-129.23
X140.09Y-84.408
X140.62Y-77.06
X142.39Y-84.14
X143.115Y-87.705
X143.659Y-83.43
X144.167Y-94.863
X144.17Y-77.052
X145.18Y-83.2
X145.331Y-87.405
X151.47Y-88.6
X152.73Y-89.94
X154.3Y-89.1
X154.97Y-79.98
X155.06Y-87.89
X155.88Y-89.63
X156.54Y-92.95
X158.37Y-84.33
X158.4Y-87.72
X160.05Y-79.64
X160.47Y-92.73
X162.6Y-85.16
X163.48Y-93.92
X164.5Y-78.74
X165.56Y-86.16
X165.65Y-76.83
X166.04Y-126.18
X166.04Y-127.28
X166.34Y-115.88
X166.405Y-82.582
X166.6Y-128.06
X167.49Y-89.86
X168.09Y-88.57
X168.46Y-89.31
X169.85Y-88.57
X169.86Y-128.09
X170.54Y-92.67
X170.54Y-116.525
X172.19Y-87.91
X172.73Y-123.38
X172.98Y-116.57
X174.37Y-103.02
X174.63Y-109.73
X174.66Y-100.3
X174.72Y-106.96
X175.447Y-82.589
X178.24Y-114.47
X179.25Y-107.14
X179.33Y-98.78
X179.45Y-92.56
X179.48Y-86.47
X179.58Y-103.77
X180.25Y-94.53
X181.37Y-92.11
X182.22Y-102.5
X182.43Y-104.44
X183.06Y-90.41
X183.1Y-104.99
X183.12Y-100.59
X183.15Y-101.4
X183.75Y-105.55
X185.5Y-109.4
X185.66Y-94.0
X185.83Y-104.58
X185.86Y-108.59
X186.61Y-110.33
X186.94Y-96.2
X186.94Y-105.8
X188.81Y-110.75
X189.48Y-108.2
X189.49Y-96.19
X191.41Y-95.82
X192.01Y-94.57
X195.05Y-94.57
T2
X101.27Y-107.67
X101.27Y-111.94
X101.28Y-98.08
X101.29Y-102.34
X109.37Y-84.54
X110.33Y-122.52
X110.87Y-85.95
X112.26Y-111.26
X112.31Y-101.64
X112.35Y-127.26
X113.51Y-117.17
X113.89Y-127.26
X117.84Y-90.65
X117.86Y-86.39
X117.91Y-117.21
X120.61Y-125.37
X123.21Y-125.37
X124.01Y-118.39
X125.77Y-80.19
X125.78Y-75.86
X127.87Y-122.13
X129.1Y-110.51
X129.59Y-91.34
X131.18Y-119.43
X131.86Y-128.49
X134.35Y-90.84
X134.37Y-86.46
X136.19Y-118.02
X137.65Y-80.9
X139.06Y-110.46
X140.609Y-78.871
X141.92Y-75.68
X142.28Y-122.43
X144.4Y-118.1
X144.97Y-91.45
X145.53Y-113.99
X145.93Y-125.2
X148.0Y-99.8
X148.0Y-110.23
X149.57Y-90.7
X149.58Y-86.45
X149.77Y-114.01
X151.48Y-82.28
X151.8Y-126.25
X153.08Y-121.61
X156.27Y-110.48
X156.87Y-75.84
X156.87Y-80.19
X158.38Y-119.4
X159.08Y-90.01
X159.1Y-128.5
X163.45Y-118.01
X163.59Y-87.51
X163.612Y-89.552
X166.26Y-110.48
X167.15Y-129.15
X167.72Y-79.42
X168.2Y-117.25
X168.23Y-124.84
X172.63Y-124.88
X176.69Y-91.34
X176.7Y-119.33
X179.08Y-81.7
X181.69Y-118.02
X181.72Y-128.53
X183.08Y-95.92
X183.34Y-86.29
X183.73Y-108.38
X185.54Y-117.43
X186.43Y-83.21
X187.65Y-90.51
X188.44Y-85.03
X188.57Y-118.6
X190.68Y-87.47
X194.07Y-98.04
X194.08Y-113.99
X194.11Y-102.39
X195.09Y-109.93
T3
X118.41Y-130.025G85X118.41Y-130.675
G05
X125.41Y-130.025G85X125.41Y-130.675
G05
T4
X119.26Y-127.65G85X119.56Y-127.65
G05
X124.26Y-127.65G85X124.56Y-127.65
G05
T0
M30
