%FSLAX45Y45*%
G04 Gerber Fmt 4.5, Leading zero omitted, Abs format (unit mm)*
G04 Created by KiCad (PCBNEW (5.1.10)-1) date 2021-08-26 17:45:13*
%MOMM*%
%LPD*%
G01*
G04 APERTURE LIST*
%TA.AperFunction,Profile*%
%ADD10C,0.050000*%
%TD*%
%ADD11C,0.200000*%
%ADD12C,0.300000*%
G04 APERTURE END LIST*
D10*
X19768000Y-12502000D02*
X19768000Y-12202000D01*
X18768000Y-13202000D02*
X19068000Y-13202000D01*
X19768000Y-12502000D02*
G75*
G02*
X19068000Y-13202000I-700000J0D01*
G01*
X19068000Y-7102000D02*
X18768000Y-7102000D01*
X19768000Y-7802000D02*
X19768000Y-8102000D01*
X19068000Y-7102000D02*
G75*
G02*
X19768000Y-7802000I0J-700000D01*
G01*
X10468000Y-13202000D02*
X10768000Y-13202000D01*
X9768000Y-12502000D02*
X9768000Y-12202000D01*
X10468000Y-13202000D02*
G75*
G02*
X9768000Y-12502000I0J700000D01*
G01*
X10468000Y-7102000D02*
X10768000Y-7102000D01*
X9768000Y-8102000D02*
X9768000Y-7802000D01*
X9768000Y-7802000D02*
G75*
G02*
X10468000Y-7102000I700000J0D01*
G01*
X19438000Y-7602000D02*
G75*
G03*
X19438000Y-7602000I-170000J0D01*
G01*
X19438000Y-12702000D02*
G75*
G03*
X19438000Y-12702000I-170000J0D01*
G01*
X10438000Y-12702000D02*
G75*
G03*
X10438000Y-12702000I-170000J0D01*
G01*
X10438000Y-7602000D02*
G75*
G03*
X10438000Y-7602000I-170000J0D01*
G01*
X10768000Y-13202000D02*
X18768000Y-13202000D01*
X9768000Y-12202000D02*
X9768000Y-8102000D01*
X19768000Y-8102000D02*
X19768000Y-12202000D01*
X10768000Y-7102000D02*
X18768000Y-7102000D01*
D11*
X10314000Y-10169000D02*
X10344000Y-10199000D01*
X10344000Y-10169000D02*
X10314000Y-10199000D01*
X10385000Y-9128000D02*
X10415000Y-9158000D01*
X10415000Y-9128000D02*
X10385000Y-9158000D01*
X10385000Y-9892000D02*
X10415000Y-9922000D01*
X10415000Y-9892000D02*
X10385000Y-9922000D01*
X10446000Y-10168000D02*
X10476000Y-10198000D01*
X10476000Y-10168000D02*
X10446000Y-10198000D01*
X10572000Y-10167000D02*
X10602000Y-10197000D01*
X10602000Y-10167000D02*
X10572000Y-10197000D01*
X10573000Y-11124000D02*
X10603000Y-11154000D01*
X10603000Y-11124000D02*
X10573000Y-11154000D01*
X10654000Y-10904000D02*
X10684000Y-10934000D01*
X10684000Y-10904000D02*
X10654000Y-10934000D01*
X10660000Y-11013000D02*
X10690000Y-11043000D01*
X10690000Y-11013000D02*
X10660000Y-11043000D01*
X10743000Y-10902000D02*
X10773000Y-10932000D01*
X10773000Y-10902000D02*
X10743000Y-10932000D01*
X10819000Y-10037000D02*
X10849000Y-10067000D01*
X10849000Y-10037000D02*
X10819000Y-10067000D01*
X10825000Y-10170000D02*
X10855000Y-10200000D01*
X10855000Y-10170000D02*
X10825000Y-10200000D01*
X10826000Y-11127000D02*
X10856000Y-11157000D01*
X10856000Y-11127000D02*
X10826000Y-11157000D01*
X10827000Y-10837000D02*
X10857000Y-10867000D01*
X10857000Y-10837000D02*
X10827000Y-10867000D01*
X10852000Y-10536000D02*
X10882000Y-10566000D01*
X10882000Y-10536000D02*
X10852000Y-10566000D01*
X10952000Y-10170000D02*
X10982000Y-10200000D01*
X10982000Y-10170000D02*
X10952000Y-10200000D01*
X11104001Y-11791000D02*
X11134001Y-11821000D01*
X11134001Y-11791000D02*
X11104001Y-11821000D01*
X11117000Y-12075000D02*
X11147000Y-12105000D01*
X11147000Y-12075000D02*
X11117000Y-12105000D01*
X11117000Y-12227000D02*
X11147000Y-12257000D01*
X11147000Y-12227000D02*
X11117000Y-12257000D01*
X11136000Y-10426000D02*
X11166000Y-10456000D01*
X11166000Y-10426000D02*
X11136000Y-10456000D01*
X11255000Y-10526000D02*
X11285000Y-10556000D01*
X11285000Y-10526000D02*
X11255000Y-10556000D01*
X11288000Y-8426000D02*
X11318000Y-8456000D01*
X11318000Y-8426000D02*
X11288000Y-8456000D01*
X11289000Y-9359000D02*
X11319000Y-9389000D01*
X11319000Y-9359000D02*
X11289000Y-9389000D01*
X11292000Y-12349000D02*
X11322000Y-12379000D01*
X11322000Y-12349000D02*
X11292000Y-12379000D01*
X11496000Y-12104000D02*
X11526000Y-12134000D01*
X11526000Y-12104000D02*
X11496000Y-12134000D01*
X11671000Y-10300000D02*
X11701000Y-10330000D01*
X11701000Y-10300000D02*
X11671000Y-10330000D01*
X11836000Y-9930000D02*
X11866000Y-9960000D01*
X11866000Y-9930000D02*
X11836000Y-9960000D01*
X11847000Y-10062000D02*
X11877000Y-10092000D01*
X11877000Y-10062000D02*
X11847000Y-10092000D01*
X12009000Y-12219000D02*
X12039000Y-12249000D01*
X12039000Y-12219000D02*
X12009000Y-12249000D01*
X12027000Y-7793000D02*
X12057000Y-7823000D01*
X12057000Y-7793000D02*
X12027000Y-7823000D01*
X12083000Y-11887000D02*
X12113000Y-11917000D01*
X12113000Y-11887000D02*
X12083000Y-11917000D01*
X12085000Y-8673000D02*
X12115000Y-8703000D01*
X12115000Y-8673000D02*
X12085000Y-8703000D01*
X12136000Y-9279000D02*
X12166000Y-9309000D01*
X12166000Y-9279000D02*
X12136000Y-9309000D01*
X12155000Y-8804000D02*
X12185000Y-8834000D01*
X12185000Y-8804000D02*
X12155000Y-8834000D01*
X12212000Y-9001000D02*
X12242000Y-9031000D01*
X12242000Y-9001000D02*
X12212000Y-9031000D01*
X12239000Y-7685000D02*
X12269000Y-7715000D01*
X12269000Y-7685000D02*
X12239000Y-7715000D01*
X12340000Y-8674000D02*
X12370000Y-8704000D01*
X12370000Y-8674000D02*
X12340000Y-8704000D01*
X12355000Y-9608000D02*
X12385000Y-9638000D01*
X12385000Y-9608000D02*
X12355000Y-9638000D01*
X12592000Y-9000000D02*
X12622000Y-9030000D01*
X12622000Y-9000000D02*
X12592000Y-9030000D01*
X12721000Y-8674000D02*
X12751000Y-8704000D01*
X12751000Y-8674000D02*
X12721000Y-8704000D01*
X12851000Y-8717000D02*
X12881000Y-8747000D01*
X12881000Y-8717000D02*
X12851000Y-8747000D01*
X13064916Y-7912202D02*
X13094916Y-7942202D01*
X13094916Y-7912202D02*
X13064916Y-7942202D01*
X13090000Y-7686000D02*
X13120000Y-7716000D01*
X13120000Y-7686000D02*
X13090000Y-7716000D01*
X13135000Y-8207000D02*
X13165000Y-8237000D01*
X13165000Y-8207000D02*
X13135000Y-8237000D01*
X13135000Y-8448000D02*
X13165000Y-8478000D01*
X13165000Y-8448000D02*
X13135000Y-8478000D01*
X13280000Y-8386500D02*
X13310000Y-8416500D01*
X13310000Y-8386500D02*
X13280000Y-8416500D01*
X13388000Y-8212500D02*
X13418000Y-8242500D01*
X13418000Y-8212500D02*
X13388000Y-8242500D01*
X13423056Y-8330540D02*
X13453056Y-8360540D01*
X13453056Y-8330540D02*
X13423056Y-8360540D01*
X13515000Y-8210000D02*
X13545000Y-8240000D01*
X13545000Y-8210000D02*
X13515000Y-8240000D01*
X13616000Y-8841000D02*
X13646000Y-8871000D01*
X13646000Y-8841000D02*
X13616000Y-8871000D01*
X13866000Y-8695000D02*
X13896000Y-8725000D01*
X13896000Y-8695000D02*
X13866000Y-8725000D01*
X13945000Y-8812000D02*
X13975000Y-8842000D01*
X13975000Y-8812000D02*
X13945000Y-8842000D01*
X13961000Y-12908000D02*
X13991000Y-12938000D01*
X13991000Y-12908000D02*
X13961000Y-12938000D01*
X13994048Y-8425790D02*
X14024048Y-8455790D01*
X14024048Y-8425790D02*
X13994048Y-8455790D01*
X14047000Y-7691000D02*
X14077000Y-7721000D01*
X14077000Y-7691000D02*
X14047000Y-7721000D01*
X14224000Y-8399000D02*
X14254000Y-8429000D01*
X14254000Y-8399000D02*
X14224000Y-8429000D01*
X14296500Y-8755500D02*
X14326500Y-8785500D01*
X14326500Y-8755500D02*
X14296500Y-8785500D01*
X14350918Y-8328000D02*
X14380918Y-8358000D01*
X14380918Y-8328000D02*
X14350918Y-8358000D01*
X14401718Y-9471282D02*
X14431718Y-9501282D01*
X14431718Y-9471282D02*
X14401718Y-9501282D01*
X14401972Y-7690206D02*
X14431972Y-7720206D01*
X14431972Y-7690206D02*
X14401972Y-7720206D01*
X14503000Y-8305000D02*
X14533000Y-8335000D01*
X14533000Y-8305000D02*
X14503000Y-8335000D01*
X14518050Y-8725510D02*
X14548050Y-8755510D01*
X14548050Y-8725510D02*
X14518050Y-8755510D01*
X15132000Y-8845000D02*
X15162000Y-8875000D01*
X15162000Y-8845000D02*
X15132000Y-8875000D01*
X15258000Y-8979000D02*
X15288000Y-9009000D01*
X15288000Y-8979000D02*
X15258000Y-9009000D01*
X15415000Y-8895000D02*
X15445000Y-8925000D01*
X15445000Y-8895000D02*
X15415000Y-8925000D01*
X15482000Y-7983000D02*
X15512000Y-8013000D01*
X15512000Y-7983000D02*
X15482000Y-8013000D01*
X15491000Y-8774000D02*
X15521000Y-8804000D01*
X15521000Y-8774000D02*
X15491000Y-8804000D01*
X15573000Y-8948000D02*
X15603000Y-8978000D01*
X15603000Y-8948000D02*
X15573000Y-8978000D01*
X15639000Y-9280000D02*
X15669000Y-9310000D01*
X15669000Y-9280000D02*
X15639000Y-9310000D01*
X15822000Y-8418000D02*
X15852000Y-8448000D01*
X15852000Y-8418000D02*
X15822000Y-8448000D01*
X15825000Y-8757000D02*
X15855000Y-8787000D01*
X15855000Y-8757000D02*
X15825000Y-8787000D01*
X15990000Y-7949000D02*
X16020000Y-7979000D01*
X16020000Y-7949000D02*
X15990000Y-7979000D01*
X16032000Y-9258000D02*
X16062000Y-9288000D01*
X16062000Y-9258000D02*
X16032000Y-9288000D01*
X16245000Y-8501000D02*
X16275000Y-8531000D01*
X16275000Y-8501000D02*
X16245000Y-8531000D01*
X16333000Y-9377000D02*
X16363000Y-9407000D01*
X16363000Y-9377000D02*
X16333000Y-9407000D01*
X16435000Y-7859000D02*
X16465000Y-7889000D01*
X16465000Y-7859000D02*
X16435000Y-7889000D01*
X16541000Y-8601000D02*
X16571000Y-8631000D01*
X16571000Y-8601000D02*
X16541000Y-8631000D01*
X16550000Y-7668000D02*
X16580000Y-7698000D01*
X16580000Y-7668000D02*
X16550000Y-7698000D01*
X16589000Y-12603000D02*
X16619000Y-12633000D01*
X16619000Y-12603000D02*
X16589000Y-12633000D01*
X16589000Y-12713000D02*
X16619000Y-12743000D01*
X16619000Y-12713000D02*
X16589000Y-12743000D01*
X16619000Y-11573000D02*
X16649000Y-11603000D01*
X16649000Y-11573000D02*
X16619000Y-11603000D01*
X16625488Y-8243164D02*
X16655488Y-8273164D01*
X16655488Y-8243164D02*
X16625488Y-8273164D01*
X16645000Y-12791000D02*
X16675000Y-12821000D01*
X16675000Y-12791000D02*
X16645000Y-12821000D01*
X16734000Y-8971000D02*
X16764000Y-9001000D01*
X16764000Y-8971000D02*
X16734000Y-9001000D01*
X16794000Y-8842000D02*
X16824000Y-8872000D01*
X16824000Y-8842000D02*
X16794000Y-8872000D01*
X16831000Y-8916000D02*
X16861000Y-8946000D01*
X16861000Y-8916000D02*
X16831000Y-8946000D01*
X16970000Y-8842000D02*
X17000000Y-8872000D01*
X17000000Y-8842000D02*
X16970000Y-8872000D01*
X16971000Y-12794000D02*
X17001000Y-12824000D01*
X17001000Y-12794000D02*
X16971000Y-12824000D01*
X17039000Y-9252000D02*
X17069000Y-9282000D01*
X17069000Y-9252000D02*
X17039000Y-9282000D01*
X17039000Y-11637501D02*
X17069000Y-11667501D01*
X17069000Y-11637501D02*
X17039000Y-11667501D01*
X17204000Y-8776000D02*
X17234000Y-8806000D01*
X17234000Y-8776000D02*
X17204000Y-8806000D01*
X17258000Y-12323000D02*
X17288000Y-12353000D01*
X17288000Y-12323000D02*
X17258000Y-12353000D01*
X17283000Y-11642000D02*
X17313000Y-11672000D01*
X17313000Y-11642000D02*
X17283000Y-11672000D01*
X17422000Y-10287000D02*
X17452000Y-10317000D01*
X17452000Y-10287000D02*
X17422000Y-10317000D01*
X17448000Y-10958000D02*
X17478000Y-10988000D01*
X17478000Y-10958000D02*
X17448000Y-10988000D01*
X17451000Y-10015000D02*
X17481000Y-10045000D01*
X17481000Y-10015000D02*
X17451000Y-10045000D01*
X17457000Y-10681000D02*
X17487000Y-10711000D01*
X17487000Y-10681000D02*
X17457000Y-10711000D01*
X17529728Y-8243926D02*
X17559728Y-8273926D01*
X17559728Y-8243926D02*
X17529728Y-8273926D01*
X17809000Y-11432000D02*
X17839000Y-11462000D01*
X17839000Y-11432000D02*
X17809000Y-11462000D01*
X17910000Y-10699000D02*
X17940000Y-10729000D01*
X17940000Y-10699000D02*
X17910000Y-10729000D01*
X17918000Y-9863000D02*
X17948000Y-9893000D01*
X17948000Y-9863000D02*
X17918000Y-9893000D01*
X17930000Y-9241000D02*
X17960000Y-9271000D01*
X17960000Y-9241000D02*
X17930000Y-9271000D01*
X17933000Y-8632000D02*
X17963000Y-8662000D01*
X17963000Y-8632000D02*
X17933000Y-8662000D01*
X17943000Y-10362000D02*
X17973000Y-10392000D01*
X17973000Y-10362000D02*
X17943000Y-10392000D01*
X18010000Y-9438000D02*
X18040000Y-9468000D01*
X18040000Y-9438000D02*
X18010000Y-9468000D01*
X18122000Y-9196000D02*
X18152000Y-9226000D01*
X18152000Y-9196000D02*
X18122000Y-9226000D01*
X18207000Y-10235000D02*
X18237000Y-10265000D01*
X18237000Y-10235000D02*
X18207000Y-10265000D01*
X18228000Y-10429000D02*
X18258000Y-10459000D01*
X18258000Y-10429000D02*
X18228000Y-10459000D01*
X18291000Y-9026000D02*
X18321000Y-9056000D01*
X18321000Y-9026000D02*
X18291000Y-9056000D01*
X18295000Y-10484000D02*
X18325000Y-10514000D01*
X18325000Y-10484000D02*
X18295000Y-10514000D01*
X18297000Y-10044000D02*
X18327000Y-10074000D01*
X18327000Y-10044000D02*
X18297000Y-10074000D01*
X18300000Y-10125000D02*
X18330000Y-10155000D01*
X18330000Y-10125000D02*
X18300000Y-10155000D01*
X18360000Y-10540000D02*
X18390000Y-10570000D01*
X18390000Y-10540000D02*
X18360000Y-10570000D01*
X18535000Y-10925000D02*
X18565000Y-10955000D01*
X18565000Y-10925000D02*
X18535000Y-10955000D01*
X18551000Y-9385000D02*
X18581000Y-9415000D01*
X18581000Y-9385000D02*
X18551000Y-9415000D01*
X18568000Y-10443000D02*
X18598000Y-10473000D01*
X18598000Y-10443000D02*
X18568000Y-10473000D01*
X18571000Y-10844000D02*
X18601000Y-10874000D01*
X18601000Y-10844000D02*
X18571000Y-10874000D01*
X18646000Y-11018000D02*
X18676000Y-11048000D01*
X18676000Y-11018000D02*
X18646000Y-11048000D01*
X18679000Y-9605000D02*
X18709000Y-9635000D01*
X18709000Y-9605000D02*
X18679000Y-9635000D01*
X18679000Y-10565000D02*
X18709000Y-10595000D01*
X18709000Y-10565000D02*
X18679000Y-10595000D01*
X18866000Y-11060000D02*
X18896000Y-11090000D01*
X18896000Y-11060000D02*
X18866000Y-11090000D01*
X18933000Y-10805000D02*
X18963000Y-10835000D01*
X18963000Y-10805000D02*
X18933000Y-10835000D01*
X18934000Y-9604000D02*
X18964000Y-9634000D01*
X18964000Y-9604000D02*
X18934000Y-9634000D01*
X19126000Y-9567000D02*
X19156000Y-9597000D01*
X19156000Y-9567000D02*
X19126000Y-9597000D01*
X19186000Y-9442000D02*
X19216000Y-9472000D01*
X19216000Y-9442000D02*
X19186000Y-9472000D01*
X19490000Y-9442000D02*
X19520000Y-9472000D01*
X19520000Y-9442000D02*
X19490000Y-9472000D01*
X10147000Y-10767000D02*
G75*
G03*
X10147000Y-10767000I-20000J0D01*
G01*
X10147000Y-11194000D02*
G75*
G03*
X10147000Y-11194000I-20000J0D01*
G01*
X10148000Y-9808000D02*
G75*
G03*
X10148000Y-9808000I-20000J0D01*
G01*
X10149000Y-10234000D02*
G75*
G03*
X10149000Y-10234000I-20000J0D01*
G01*
X10957000Y-8454000D02*
G75*
G03*
X10957000Y-8454000I-20000J0D01*
G01*
X11053000Y-12252000D02*
G75*
G03*
X11053000Y-12252000I-20000J0D01*
G01*
X11107000Y-8595000D02*
G75*
G03*
X11107000Y-8595000I-20000J0D01*
G01*
X11246000Y-11126000D02*
G75*
G03*
X11246000Y-11126000I-20000J0D01*
G01*
X11251000Y-10164000D02*
G75*
G03*
X11251000Y-10164000I-20000J0D01*
G01*
X11255000Y-12726000D02*
G75*
G03*
X11255000Y-12726000I-20000J0D01*
G01*
X11371000Y-11717000D02*
G75*
G03*
X11371000Y-11717000I-20000J0D01*
G01*
X11409000Y-12726000D02*
G75*
G03*
X11409000Y-12726000I-20000J0D01*
G01*
X11804000Y-9065000D02*
G75*
G03*
X11804000Y-9065000I-20000J0D01*
G01*
X11806000Y-8639000D02*
G75*
G03*
X11806000Y-8639000I-20000J0D01*
G01*
X11811000Y-11721000D02*
G75*
G03*
X11811000Y-11721000I-20000J0D01*
G01*
X12081000Y-12537000D02*
G75*
G03*
X12081000Y-12537000I-20000J0D01*
G01*
X12341000Y-12537000D02*
G75*
G03*
X12341000Y-12537000I-20000J0D01*
G01*
X12421000Y-11839000D02*
G75*
G03*
X12421000Y-11839000I-20000J0D01*
G01*
X12597000Y-8019000D02*
G75*
G03*
X12597000Y-8019000I-20000J0D01*
G01*
X12598000Y-7586000D02*
G75*
G03*
X12598000Y-7586000I-20000J0D01*
G01*
X12807000Y-12213000D02*
G75*
G03*
X12807000Y-12213000I-20000J0D01*
G01*
X12930000Y-11051000D02*
G75*
G03*
X12930000Y-11051000I-20000J0D01*
G01*
X12979000Y-9134000D02*
G75*
G03*
X12979000Y-9134000I-20000J0D01*
G01*
X13138000Y-11943000D02*
G75*
G03*
X13138000Y-11943000I-20000J0D01*
G01*
X13206000Y-12849000D02*
G75*
G03*
X13206000Y-12849000I-20000J0D01*
G01*
X13455000Y-9084000D02*
G75*
G03*
X13455000Y-9084000I-20000J0D01*
G01*
X13457000Y-8646000D02*
G75*
G03*
X13457000Y-8646000I-20000J0D01*
G01*
X13639000Y-11802000D02*
G75*
G03*
X13639000Y-11802000I-20000J0D01*
G01*
X13785000Y-8090000D02*
G75*
G03*
X13785000Y-8090000I-20000J0D01*
G01*
X13926000Y-11046000D02*
G75*
G03*
X13926000Y-11046000I-20000J0D01*
G01*
X14080864Y-7887070D02*
G75*
G03*
X14080864Y-7887070I-20000J0D01*
G01*
X14212000Y-7568000D02*
G75*
G03*
X14212000Y-7568000I-20000J0D01*
G01*
X14248000Y-12243000D02*
G75*
G03*
X14248000Y-12243000I-20000J0D01*
G01*
X14460000Y-11810000D02*
G75*
G03*
X14460000Y-11810000I-20000J0D01*
G01*
X14517000Y-9145000D02*
G75*
G03*
X14517000Y-9145000I-20000J0D01*
G01*
X14573000Y-11399000D02*
G75*
G03*
X14573000Y-11399000I-20000J0D01*
G01*
X14613000Y-12520000D02*
G75*
G03*
X14613000Y-12520000I-20000J0D01*
G01*
X14820000Y-9980000D02*
G75*
G03*
X14820000Y-9980000I-20000J0D01*
G01*
X14820000Y-11023000D02*
G75*
G03*
X14820000Y-11023000I-20000J0D01*
G01*
X14977000Y-9070000D02*
G75*
G03*
X14977000Y-9070000I-20000J0D01*
G01*
X14978000Y-8645000D02*
G75*
G03*
X14978000Y-8645000I-20000J0D01*
G01*
X14997000Y-11401000D02*
G75*
G03*
X14997000Y-11401000I-20000J0D01*
G01*
X15168000Y-8228000D02*
G75*
G03*
X15168000Y-8228000I-20000J0D01*
G01*
X15200000Y-12625000D02*
G75*
G03*
X15200000Y-12625000I-20000J0D01*
G01*
X15328000Y-12161000D02*
G75*
G03*
X15328000Y-12161000I-20000J0D01*
G01*
X15647000Y-11048000D02*
G75*
G03*
X15647000Y-11048000I-20000J0D01*
G01*
X15707000Y-7584000D02*
G75*
G03*
X15707000Y-7584000I-20000J0D01*
G01*
X15707000Y-8019000D02*
G75*
G03*
X15707000Y-8019000I-20000J0D01*
G01*
X15858000Y-11940000D02*
G75*
G03*
X15858000Y-11940000I-20000J0D01*
G01*
X15928000Y-9001000D02*
G75*
G03*
X15928000Y-9001000I-20000J0D01*
G01*
X15930000Y-12850000D02*
G75*
G03*
X15930000Y-12850000I-20000J0D01*
G01*
X16365000Y-11801000D02*
G75*
G03*
X16365000Y-11801000I-20000J0D01*
G01*
X16379000Y-8751000D02*
G75*
G03*
X16379000Y-8751000I-20000J0D01*
G01*
X16381230Y-8955230D02*
G75*
G03*
X16381230Y-8955230I-20000J0D01*
G01*
X16646000Y-11048000D02*
G75*
G03*
X16646000Y-11048000I-20000J0D01*
G01*
X16735000Y-12915000D02*
G75*
G03*
X16735000Y-12915000I-20000J0D01*
G01*
X16792000Y-7942000D02*
G75*
G03*
X16792000Y-7942000I-20000J0D01*
G01*
X16840000Y-11725000D02*
G75*
G03*
X16840000Y-11725000I-20000J0D01*
G01*
X16843000Y-12484000D02*
G75*
G03*
X16843000Y-12484000I-20000J0D01*
G01*
X17283000Y-12488000D02*
G75*
G03*
X17283000Y-12488000I-20000J0D01*
G01*
X17689000Y-9134000D02*
G75*
G03*
X17689000Y-9134000I-20000J0D01*
G01*
X17690000Y-11933000D02*
G75*
G03*
X17690000Y-11933000I-20000J0D01*
G01*
X17928000Y-8170000D02*
G75*
G03*
X17928000Y-8170000I-20000J0D01*
G01*
X18189000Y-11802000D02*
G75*
G03*
X18189000Y-11802000I-20000J0D01*
G01*
X18192000Y-12853000D02*
G75*
G03*
X18192000Y-12853000I-20000J0D01*
G01*
X18328000Y-9592000D02*
G75*
G03*
X18328000Y-9592000I-20000J0D01*
G01*
X18354000Y-8629000D02*
G75*
G03*
X18354000Y-8629000I-20000J0D01*
G01*
X18393000Y-10838000D02*
G75*
G03*
X18393000Y-10838000I-20000J0D01*
G01*
X18574000Y-11743000D02*
G75*
G03*
X18574000Y-11743000I-20000J0D01*
G01*
X18663000Y-8321000D02*
G75*
G03*
X18663000Y-8321000I-20000J0D01*
G01*
X18785000Y-9051000D02*
G75*
G03*
X18785000Y-9051000I-20000J0D01*
G01*
X18864000Y-8503000D02*
G75*
G03*
X18864000Y-8503000I-20000J0D01*
G01*
X18877000Y-11860000D02*
G75*
G03*
X18877000Y-11860000I-20000J0D01*
G01*
X19088000Y-8747000D02*
G75*
G03*
X19088000Y-8747000I-20000J0D01*
G01*
X19427000Y-9804000D02*
G75*
G03*
X19427000Y-9804000I-20000J0D01*
G01*
X19428000Y-11399000D02*
G75*
G03*
X19428000Y-11399000I-20000J0D01*
G01*
X19431000Y-10239000D02*
G75*
G03*
X19431000Y-10239000I-20000J0D01*
G01*
X19529001Y-10993000D02*
G75*
G03*
X19529001Y-10993000I-20000J0D01*
G01*
X11841000Y-13010000D02*
X11841000Y-13060000D01*
X11816000Y-13035000D02*
X11866000Y-13035000D01*
X11826000Y-13002500D02*
X11826000Y-13067500D01*
X11856000Y-13002500D02*
X11856000Y-13067500D01*
X11826000Y-13067500D02*
G75*
G03*
X11856000Y-13067500I15000J0D01*
G01*
X11856000Y-13002500D02*
G75*
G03*
X11826000Y-13002500I-15000J0D01*
G01*
X12541000Y-13010000D02*
X12541000Y-13060000D01*
X12516000Y-13035000D02*
X12566000Y-13035000D01*
X12526000Y-13002500D02*
X12526000Y-13067500D01*
X12556000Y-13002500D02*
X12556000Y-13067500D01*
X12526000Y-13067500D02*
G75*
G03*
X12556000Y-13067500I15000J0D01*
G01*
X12556000Y-13002500D02*
G75*
G03*
X12526000Y-13002500I-15000J0D01*
G01*
X11960446Y-12784446D02*
X11960446Y-12745554D01*
X11921554Y-12745554D01*
X11921554Y-12784446D01*
X11960446Y-12784446D01*
X11926000Y-12782500D02*
X11956000Y-12782500D01*
X11926000Y-12747500D02*
X11956000Y-12747500D01*
X11956000Y-12782500D02*
G75*
G03*
X11956000Y-12747500I0J17500D01*
G01*
X11926000Y-12747500D02*
G75*
G03*
X11926000Y-12782500I0J-17500D01*
G01*
X12460446Y-12784446D02*
X12460446Y-12745554D01*
X12421554Y-12745554D01*
X12421554Y-12784446D01*
X12460446Y-12784446D01*
X12426000Y-12782500D02*
X12456000Y-12782500D01*
X12426000Y-12747500D02*
X12456000Y-12747500D01*
X12456000Y-12782500D02*
G75*
G03*
X12456000Y-12747500I0J17500D01*
G01*
X12426000Y-12747500D02*
G75*
G03*
X12426000Y-12782500I0J-17500D01*
G01*
D12*
X10051928Y-13670214D02*
X10051928Y-13370214D01*
X10123357Y-13370214D01*
X10166214Y-13384500D01*
X10194786Y-13413071D01*
X10209071Y-13441643D01*
X10223357Y-13498786D01*
X10223357Y-13541643D01*
X10209071Y-13598786D01*
X10194786Y-13627357D01*
X10166214Y-13655929D01*
X10123357Y-13670214D01*
X10051928Y-13670214D01*
X10351928Y-13670214D02*
X10351928Y-13470214D01*
X10351928Y-13527357D02*
X10366214Y-13498786D01*
X10380500Y-13484500D01*
X10409071Y-13470214D01*
X10437643Y-13470214D01*
X10537643Y-13670214D02*
X10537643Y-13470214D01*
X10537643Y-13370214D02*
X10523357Y-13384500D01*
X10537643Y-13398786D01*
X10551928Y-13384500D01*
X10537643Y-13370214D01*
X10537643Y-13398786D01*
X10723357Y-13670214D02*
X10694786Y-13655929D01*
X10680500Y-13627357D01*
X10680500Y-13370214D01*
X10880500Y-13670214D02*
X10851928Y-13655929D01*
X10837643Y-13627357D01*
X10837643Y-13370214D01*
X11223357Y-13670214D02*
X11223357Y-13370214D01*
X11323357Y-13584500D01*
X11423357Y-13370214D01*
X11423357Y-13670214D01*
X11694786Y-13670214D02*
X11694786Y-13513071D01*
X11680500Y-13484500D01*
X11651928Y-13470214D01*
X11594786Y-13470214D01*
X11566214Y-13484500D01*
X11694786Y-13655929D02*
X11666214Y-13670214D01*
X11594786Y-13670214D01*
X11566214Y-13655929D01*
X11551928Y-13627357D01*
X11551928Y-13598786D01*
X11566214Y-13570214D01*
X11594786Y-13555929D01*
X11666214Y-13555929D01*
X11694786Y-13541643D01*
X11837643Y-13470214D02*
X11837643Y-13770214D01*
X11837643Y-13484500D02*
X11866214Y-13470214D01*
X11923357Y-13470214D01*
X11951928Y-13484500D01*
X11966214Y-13498786D01*
X11980500Y-13527357D01*
X11980500Y-13613071D01*
X11966214Y-13641643D01*
X11951928Y-13655929D01*
X11923357Y-13670214D01*
X11866214Y-13670214D01*
X11837643Y-13655929D01*
X12109071Y-13641643D02*
X12123357Y-13655929D01*
X12109071Y-13670214D01*
X12094786Y-13655929D01*
X12109071Y-13641643D01*
X12109071Y-13670214D01*
X12109071Y-13484500D02*
X12123357Y-13498786D01*
X12109071Y-13513071D01*
X12094786Y-13498786D01*
X12109071Y-13484500D01*
X12109071Y-13513071D01*
X9735500Y-14149500D02*
X9765500Y-14179500D01*
X9765500Y-14149500D02*
X9735500Y-14179500D01*
X10109071Y-14000214D02*
X10137643Y-14000214D01*
X10166214Y-14014500D01*
X10180500Y-14028786D01*
X10194786Y-14057357D01*
X10209071Y-14114500D01*
X10209071Y-14185929D01*
X10194786Y-14243071D01*
X10180500Y-14271643D01*
X10166214Y-14285929D01*
X10137643Y-14300214D01*
X10109071Y-14300214D01*
X10080500Y-14285929D01*
X10066214Y-14271643D01*
X10051928Y-14243071D01*
X10037643Y-14185929D01*
X10037643Y-14114500D01*
X10051928Y-14057357D01*
X10066214Y-14028786D01*
X10080500Y-14014500D01*
X10109071Y-14000214D01*
X10337643Y-14271643D02*
X10351928Y-14285929D01*
X10337643Y-14300214D01*
X10323357Y-14285929D01*
X10337643Y-14271643D01*
X10337643Y-14300214D01*
X10451928Y-14000214D02*
X10637643Y-14000214D01*
X10537643Y-14114500D01*
X10580500Y-14114500D01*
X10609071Y-14128786D01*
X10623357Y-14143071D01*
X10637643Y-14171643D01*
X10637643Y-14243071D01*
X10623357Y-14271643D01*
X10609071Y-14285929D01*
X10580500Y-14300214D01*
X10494786Y-14300214D01*
X10466214Y-14285929D01*
X10451928Y-14271643D01*
X10823357Y-14000214D02*
X10851928Y-14000214D01*
X10880500Y-14014500D01*
X10894786Y-14028786D01*
X10909071Y-14057357D01*
X10923357Y-14114500D01*
X10923357Y-14185929D01*
X10909071Y-14243071D01*
X10894786Y-14271643D01*
X10880500Y-14285929D01*
X10851928Y-14300214D01*
X10823357Y-14300214D01*
X10794786Y-14285929D01*
X10780500Y-14271643D01*
X10766214Y-14243071D01*
X10751928Y-14185929D01*
X10751928Y-14114500D01*
X10766214Y-14057357D01*
X10780500Y-14028786D01*
X10794786Y-14014500D01*
X10823357Y-14000214D01*
X11109071Y-14000214D02*
X11137643Y-14000214D01*
X11166214Y-14014500D01*
X11180500Y-14028786D01*
X11194786Y-14057357D01*
X11209071Y-14114500D01*
X11209071Y-14185929D01*
X11194786Y-14243071D01*
X11180500Y-14271643D01*
X11166214Y-14285929D01*
X11137643Y-14300214D01*
X11109071Y-14300214D01*
X11080500Y-14285929D01*
X11066214Y-14271643D01*
X11051928Y-14243071D01*
X11037643Y-14185929D01*
X11037643Y-14114500D01*
X11051928Y-14057357D01*
X11066214Y-14028786D01*
X11080500Y-14014500D01*
X11109071Y-14000214D01*
X11337643Y-14300214D02*
X11337643Y-14100214D01*
X11337643Y-14128786D02*
X11351928Y-14114500D01*
X11380500Y-14100214D01*
X11423357Y-14100214D01*
X11451928Y-14114500D01*
X11466214Y-14143071D01*
X11466214Y-14300214D01*
X11466214Y-14143071D02*
X11480500Y-14114500D01*
X11509071Y-14100214D01*
X11551928Y-14100214D01*
X11580500Y-14114500D01*
X11594786Y-14143071D01*
X11594786Y-14300214D01*
X11737643Y-14300214D02*
X11737643Y-14100214D01*
X11737643Y-14128786D02*
X11751928Y-14114500D01*
X11780500Y-14100214D01*
X11823357Y-14100214D01*
X11851928Y-14114500D01*
X11866214Y-14143071D01*
X11866214Y-14300214D01*
X11866214Y-14143071D02*
X11880500Y-14114500D01*
X11909071Y-14100214D01*
X11951928Y-14100214D01*
X11980500Y-14114500D01*
X11994786Y-14143071D01*
X11994786Y-14300214D01*
X12580500Y-13985929D02*
X12323357Y-14371643D01*
X12966214Y-14000214D02*
X12994786Y-14000214D01*
X13023357Y-14014500D01*
X13037643Y-14028786D01*
X13051928Y-14057357D01*
X13066214Y-14114500D01*
X13066214Y-14185929D01*
X13051928Y-14243071D01*
X13037643Y-14271643D01*
X13023357Y-14285929D01*
X12994786Y-14300214D01*
X12966214Y-14300214D01*
X12937643Y-14285929D01*
X12923357Y-14271643D01*
X12909071Y-14243071D01*
X12894786Y-14185929D01*
X12894786Y-14114500D01*
X12909071Y-14057357D01*
X12923357Y-14028786D01*
X12937643Y-14014500D01*
X12966214Y-14000214D01*
X13194786Y-14271643D02*
X13209071Y-14285929D01*
X13194786Y-14300214D01*
X13180500Y-14285929D01*
X13194786Y-14271643D01*
X13194786Y-14300214D01*
X13394786Y-14000214D02*
X13423357Y-14000214D01*
X13451928Y-14014500D01*
X13466214Y-14028786D01*
X13480500Y-14057357D01*
X13494786Y-14114500D01*
X13494786Y-14185929D01*
X13480500Y-14243071D01*
X13466214Y-14271643D01*
X13451928Y-14285929D01*
X13423357Y-14300214D01*
X13394786Y-14300214D01*
X13366214Y-14285929D01*
X13351928Y-14271643D01*
X13337643Y-14243071D01*
X13323357Y-14185929D01*
X13323357Y-14114500D01*
X13337643Y-14057357D01*
X13351928Y-14028786D01*
X13366214Y-14014500D01*
X13394786Y-14000214D01*
X13780500Y-14300214D02*
X13609071Y-14300214D01*
X13694786Y-14300214D02*
X13694786Y-14000214D01*
X13666214Y-14043071D01*
X13637643Y-14071643D01*
X13609071Y-14085929D01*
X14066214Y-14300214D02*
X13894786Y-14300214D01*
X13980500Y-14300214D02*
X13980500Y-14000214D01*
X13951928Y-14043071D01*
X13923357Y-14071643D01*
X13894786Y-14085929D01*
X14237643Y-14128786D02*
X14209071Y-14114500D01*
X14194786Y-14100214D01*
X14180500Y-14071643D01*
X14180500Y-14057357D01*
X14194786Y-14028786D01*
X14209071Y-14014500D01*
X14237643Y-14000214D01*
X14294786Y-14000214D01*
X14323357Y-14014500D01*
X14337643Y-14028786D01*
X14351928Y-14057357D01*
X14351928Y-14071643D01*
X14337643Y-14100214D01*
X14323357Y-14114500D01*
X14294786Y-14128786D01*
X14237643Y-14128786D01*
X14209071Y-14143071D01*
X14194786Y-14157357D01*
X14180500Y-14185929D01*
X14180500Y-14243071D01*
X14194786Y-14271643D01*
X14209071Y-14285929D01*
X14237643Y-14300214D01*
X14294786Y-14300214D01*
X14323357Y-14285929D01*
X14337643Y-14271643D01*
X14351928Y-14243071D01*
X14351928Y-14185929D01*
X14337643Y-14157357D01*
X14323357Y-14143071D01*
X14294786Y-14128786D01*
X14466214Y-14000214D02*
X14466214Y-14057357D01*
X14580500Y-14000214D02*
X14580500Y-14057357D01*
X15023357Y-14414500D02*
X15009071Y-14400214D01*
X14980500Y-14357357D01*
X14966214Y-14328786D01*
X14951928Y-14285929D01*
X14937643Y-14214500D01*
X14937643Y-14157357D01*
X14951928Y-14085929D01*
X14966214Y-14043071D01*
X14980500Y-14014500D01*
X15009071Y-13971643D01*
X15023357Y-13957357D01*
X15294786Y-14300214D02*
X15123357Y-14300214D01*
X15209071Y-14300214D02*
X15209071Y-14000214D01*
X15180500Y-14043071D01*
X15151928Y-14071643D01*
X15123357Y-14085929D01*
X15409071Y-14028786D02*
X15423357Y-14014500D01*
X15451928Y-14000214D01*
X15523357Y-14000214D01*
X15551928Y-14014500D01*
X15566214Y-14028786D01*
X15580500Y-14057357D01*
X15580500Y-14085929D01*
X15566214Y-14128786D01*
X15394786Y-14300214D01*
X15580500Y-14300214D01*
X15851928Y-14000214D02*
X15709071Y-14000214D01*
X15694786Y-14143071D01*
X15709071Y-14128786D01*
X15737643Y-14114500D01*
X15809071Y-14114500D01*
X15837643Y-14128786D01*
X15851928Y-14143071D01*
X15866214Y-14171643D01*
X15866214Y-14243071D01*
X15851928Y-14271643D01*
X15837643Y-14285929D01*
X15809071Y-14300214D01*
X15737643Y-14300214D01*
X15709071Y-14285929D01*
X15694786Y-14271643D01*
X16223357Y-14300214D02*
X16223357Y-14000214D01*
X16351928Y-14300214D02*
X16351928Y-14143071D01*
X16337643Y-14114500D01*
X16309071Y-14100214D01*
X16266214Y-14100214D01*
X16237643Y-14114500D01*
X16223357Y-14128786D01*
X16537643Y-14300214D02*
X16509071Y-14285929D01*
X16494786Y-14271643D01*
X16480500Y-14243071D01*
X16480500Y-14157357D01*
X16494786Y-14128786D01*
X16509071Y-14114500D01*
X16537643Y-14100214D01*
X16580500Y-14100214D01*
X16609071Y-14114500D01*
X16623357Y-14128786D01*
X16637643Y-14157357D01*
X16637643Y-14243071D01*
X16623357Y-14271643D01*
X16609071Y-14285929D01*
X16580500Y-14300214D01*
X16537643Y-14300214D01*
X16809071Y-14300214D02*
X16780500Y-14285929D01*
X16766214Y-14257357D01*
X16766214Y-14000214D01*
X17037643Y-14285929D02*
X17009071Y-14300214D01*
X16951928Y-14300214D01*
X16923357Y-14285929D01*
X16909071Y-14257357D01*
X16909071Y-14143071D01*
X16923357Y-14114500D01*
X16951928Y-14100214D01*
X17009071Y-14100214D01*
X17037643Y-14114500D01*
X17051928Y-14143071D01*
X17051928Y-14171643D01*
X16909071Y-14200214D01*
X17166214Y-14285929D02*
X17194786Y-14300214D01*
X17251928Y-14300214D01*
X17280500Y-14285929D01*
X17294786Y-14257357D01*
X17294786Y-14243071D01*
X17280500Y-14214500D01*
X17251928Y-14200214D01*
X17209071Y-14200214D01*
X17180500Y-14185929D01*
X17166214Y-14157357D01*
X17166214Y-14143071D01*
X17180500Y-14114500D01*
X17209071Y-14100214D01*
X17251928Y-14100214D01*
X17280500Y-14114500D01*
X17394786Y-14414500D02*
X17409071Y-14400214D01*
X17437643Y-14357357D01*
X17451928Y-14328786D01*
X17466214Y-14285929D01*
X17480500Y-14214500D01*
X17480500Y-14157357D01*
X17466214Y-14085929D01*
X17451928Y-14043071D01*
X17437643Y-14014500D01*
X17409071Y-13971643D01*
X17394786Y-13957357D01*
X9765500Y-14560500D02*
G75*
G03*
X9765500Y-14560500I-20000J0D01*
G01*
X10109071Y-14396214D02*
X10137643Y-14396214D01*
X10166214Y-14410500D01*
X10180500Y-14424786D01*
X10194786Y-14453357D01*
X10209071Y-14510500D01*
X10209071Y-14581929D01*
X10194786Y-14639071D01*
X10180500Y-14667643D01*
X10166214Y-14681929D01*
X10137643Y-14696214D01*
X10109071Y-14696214D01*
X10080500Y-14681929D01*
X10066214Y-14667643D01*
X10051928Y-14639071D01*
X10037643Y-14581929D01*
X10037643Y-14510500D01*
X10051928Y-14453357D01*
X10066214Y-14424786D01*
X10080500Y-14410500D01*
X10109071Y-14396214D01*
X10337643Y-14667643D02*
X10351928Y-14681929D01*
X10337643Y-14696214D01*
X10323357Y-14681929D01*
X10337643Y-14667643D01*
X10337643Y-14696214D01*
X10609071Y-14496214D02*
X10609071Y-14696214D01*
X10537643Y-14381929D02*
X10466214Y-14596214D01*
X10651928Y-14596214D01*
X10823357Y-14396214D02*
X10851928Y-14396214D01*
X10880500Y-14410500D01*
X10894786Y-14424786D01*
X10909071Y-14453357D01*
X10923357Y-14510500D01*
X10923357Y-14581929D01*
X10909071Y-14639071D01*
X10894786Y-14667643D01*
X10880500Y-14681929D01*
X10851928Y-14696214D01*
X10823357Y-14696214D01*
X10794786Y-14681929D01*
X10780500Y-14667643D01*
X10766214Y-14639071D01*
X10751928Y-14581929D01*
X10751928Y-14510500D01*
X10766214Y-14453357D01*
X10780500Y-14424786D01*
X10794786Y-14410500D01*
X10823357Y-14396214D01*
X11109071Y-14396214D02*
X11137643Y-14396214D01*
X11166214Y-14410500D01*
X11180500Y-14424786D01*
X11194786Y-14453357D01*
X11209071Y-14510500D01*
X11209071Y-14581929D01*
X11194786Y-14639071D01*
X11180500Y-14667643D01*
X11166214Y-14681929D01*
X11137643Y-14696214D01*
X11109071Y-14696214D01*
X11080500Y-14681929D01*
X11066214Y-14667643D01*
X11051928Y-14639071D01*
X11037643Y-14581929D01*
X11037643Y-14510500D01*
X11051928Y-14453357D01*
X11066214Y-14424786D01*
X11080500Y-14410500D01*
X11109071Y-14396214D01*
X11337643Y-14696214D02*
X11337643Y-14496214D01*
X11337643Y-14524786D02*
X11351928Y-14510500D01*
X11380500Y-14496214D01*
X11423357Y-14496214D01*
X11451928Y-14510500D01*
X11466214Y-14539071D01*
X11466214Y-14696214D01*
X11466214Y-14539071D02*
X11480500Y-14510500D01*
X11509071Y-14496214D01*
X11551928Y-14496214D01*
X11580500Y-14510500D01*
X11594786Y-14539071D01*
X11594786Y-14696214D01*
X11737643Y-14696214D02*
X11737643Y-14496214D01*
X11737643Y-14524786D02*
X11751928Y-14510500D01*
X11780500Y-14496214D01*
X11823357Y-14496214D01*
X11851928Y-14510500D01*
X11866214Y-14539071D01*
X11866214Y-14696214D01*
X11866214Y-14539071D02*
X11880500Y-14510500D01*
X11909071Y-14496214D01*
X11951928Y-14496214D01*
X11980500Y-14510500D01*
X11994786Y-14539071D01*
X11994786Y-14696214D01*
X12580500Y-14381929D02*
X12323357Y-14767643D01*
X12966214Y-14396214D02*
X12994786Y-14396214D01*
X13023357Y-14410500D01*
X13037643Y-14424786D01*
X13051928Y-14453357D01*
X13066214Y-14510500D01*
X13066214Y-14581929D01*
X13051928Y-14639071D01*
X13037643Y-14667643D01*
X13023357Y-14681929D01*
X12994786Y-14696214D01*
X12966214Y-14696214D01*
X12937643Y-14681929D01*
X12923357Y-14667643D01*
X12909071Y-14639071D01*
X12894786Y-14581929D01*
X12894786Y-14510500D01*
X12909071Y-14453357D01*
X12923357Y-14424786D01*
X12937643Y-14410500D01*
X12966214Y-14396214D01*
X13194786Y-14667643D02*
X13209071Y-14681929D01*
X13194786Y-14696214D01*
X13180500Y-14681929D01*
X13194786Y-14667643D01*
X13194786Y-14696214D01*
X13394786Y-14396214D02*
X13423357Y-14396214D01*
X13451928Y-14410500D01*
X13466214Y-14424786D01*
X13480500Y-14453357D01*
X13494786Y-14510500D01*
X13494786Y-14581929D01*
X13480500Y-14639071D01*
X13466214Y-14667643D01*
X13451928Y-14681929D01*
X13423357Y-14696214D01*
X13394786Y-14696214D01*
X13366214Y-14681929D01*
X13351928Y-14667643D01*
X13337643Y-14639071D01*
X13323357Y-14581929D01*
X13323357Y-14510500D01*
X13337643Y-14453357D01*
X13351928Y-14424786D01*
X13366214Y-14410500D01*
X13394786Y-14396214D01*
X13780500Y-14696214D02*
X13609071Y-14696214D01*
X13694786Y-14696214D02*
X13694786Y-14396214D01*
X13666214Y-14439071D01*
X13637643Y-14467643D01*
X13609071Y-14481929D01*
X14051928Y-14396214D02*
X13909071Y-14396214D01*
X13894786Y-14539071D01*
X13909071Y-14524786D01*
X13937643Y-14510500D01*
X14009071Y-14510500D01*
X14037643Y-14524786D01*
X14051928Y-14539071D01*
X14066214Y-14567643D01*
X14066214Y-14639071D01*
X14051928Y-14667643D01*
X14037643Y-14681929D01*
X14009071Y-14696214D01*
X13937643Y-14696214D01*
X13909071Y-14681929D01*
X13894786Y-14667643D01*
X14166214Y-14396214D02*
X14366214Y-14396214D01*
X14237643Y-14696214D01*
X14466214Y-14396214D02*
X14466214Y-14453357D01*
X14580500Y-14396214D02*
X14580500Y-14453357D01*
X15023357Y-14810500D02*
X15009071Y-14796214D01*
X14980500Y-14753357D01*
X14966214Y-14724786D01*
X14951928Y-14681929D01*
X14937643Y-14610500D01*
X14937643Y-14553357D01*
X14951928Y-14481929D01*
X14966214Y-14439071D01*
X14980500Y-14410500D01*
X15009071Y-14367643D01*
X15023357Y-14353357D01*
X15109071Y-14396214D02*
X15309071Y-14396214D01*
X15180500Y-14696214D01*
X15466214Y-14524786D02*
X15437643Y-14510500D01*
X15423357Y-14496214D01*
X15409071Y-14467643D01*
X15409071Y-14453357D01*
X15423357Y-14424786D01*
X15437643Y-14410500D01*
X15466214Y-14396214D01*
X15523357Y-14396214D01*
X15551928Y-14410500D01*
X15566214Y-14424786D01*
X15580500Y-14453357D01*
X15580500Y-14467643D01*
X15566214Y-14496214D01*
X15551928Y-14510500D01*
X15523357Y-14524786D01*
X15466214Y-14524786D01*
X15437643Y-14539071D01*
X15423357Y-14553357D01*
X15409071Y-14581929D01*
X15409071Y-14639071D01*
X15423357Y-14667643D01*
X15437643Y-14681929D01*
X15466214Y-14696214D01*
X15523357Y-14696214D01*
X15551928Y-14681929D01*
X15566214Y-14667643D01*
X15580500Y-14639071D01*
X15580500Y-14581929D01*
X15566214Y-14553357D01*
X15551928Y-14539071D01*
X15523357Y-14524786D01*
X15937643Y-14696214D02*
X15937643Y-14396214D01*
X16066214Y-14696214D02*
X16066214Y-14539071D01*
X16051928Y-14510500D01*
X16023357Y-14496214D01*
X15980500Y-14496214D01*
X15951928Y-14510500D01*
X15937643Y-14524786D01*
X16251928Y-14696214D02*
X16223357Y-14681929D01*
X16209071Y-14667643D01*
X16194786Y-14639071D01*
X16194786Y-14553357D01*
X16209071Y-14524786D01*
X16223357Y-14510500D01*
X16251928Y-14496214D01*
X16294786Y-14496214D01*
X16323357Y-14510500D01*
X16337643Y-14524786D01*
X16351928Y-14553357D01*
X16351928Y-14639071D01*
X16337643Y-14667643D01*
X16323357Y-14681929D01*
X16294786Y-14696214D01*
X16251928Y-14696214D01*
X16523357Y-14696214D02*
X16494786Y-14681929D01*
X16480500Y-14653357D01*
X16480500Y-14396214D01*
X16751928Y-14681929D02*
X16723357Y-14696214D01*
X16666214Y-14696214D01*
X16637643Y-14681929D01*
X16623357Y-14653357D01*
X16623357Y-14539071D01*
X16637643Y-14510500D01*
X16666214Y-14496214D01*
X16723357Y-14496214D01*
X16751928Y-14510500D01*
X16766214Y-14539071D01*
X16766214Y-14567643D01*
X16623357Y-14596214D01*
X16880500Y-14681929D02*
X16909071Y-14696214D01*
X16966214Y-14696214D01*
X16994786Y-14681929D01*
X17009071Y-14653357D01*
X17009071Y-14639071D01*
X16994786Y-14610500D01*
X16966214Y-14596214D01*
X16923357Y-14596214D01*
X16894786Y-14581929D01*
X16880500Y-14553357D01*
X16880500Y-14539071D01*
X16894786Y-14510500D01*
X16923357Y-14496214D01*
X16966214Y-14496214D01*
X16994786Y-14510500D01*
X17109071Y-14810500D02*
X17123357Y-14796214D01*
X17151928Y-14753357D01*
X17166214Y-14724786D01*
X17180500Y-14681929D01*
X17194786Y-14610500D01*
X17194786Y-14553357D01*
X17180500Y-14481929D01*
X17166214Y-14439071D01*
X17151928Y-14410500D01*
X17123357Y-14367643D01*
X17109071Y-14353357D01*
X9740500Y-14931500D02*
X9740500Y-14981500D01*
X9715500Y-14956500D02*
X9765500Y-14956500D01*
X10109071Y-14792214D02*
X10137643Y-14792214D01*
X10166214Y-14806500D01*
X10180500Y-14820786D01*
X10194786Y-14849357D01*
X10209071Y-14906500D01*
X10209071Y-14977929D01*
X10194786Y-15035071D01*
X10180500Y-15063643D01*
X10166214Y-15077929D01*
X10137643Y-15092214D01*
X10109071Y-15092214D01*
X10080500Y-15077929D01*
X10066214Y-15063643D01*
X10051928Y-15035071D01*
X10037643Y-14977929D01*
X10037643Y-14906500D01*
X10051928Y-14849357D01*
X10066214Y-14820786D01*
X10080500Y-14806500D01*
X10109071Y-14792214D01*
X10337643Y-15063643D02*
X10351928Y-15077929D01*
X10337643Y-15092214D01*
X10323357Y-15077929D01*
X10337643Y-15063643D01*
X10337643Y-15092214D01*
X10623357Y-14792214D02*
X10480500Y-14792214D01*
X10466214Y-14935071D01*
X10480500Y-14920786D01*
X10509071Y-14906500D01*
X10580500Y-14906500D01*
X10609071Y-14920786D01*
X10623357Y-14935071D01*
X10637643Y-14963643D01*
X10637643Y-15035071D01*
X10623357Y-15063643D01*
X10609071Y-15077929D01*
X10580500Y-15092214D01*
X10509071Y-15092214D01*
X10480500Y-15077929D01*
X10466214Y-15063643D01*
X10823357Y-14792214D02*
X10851928Y-14792214D01*
X10880500Y-14806500D01*
X10894786Y-14820786D01*
X10909071Y-14849357D01*
X10923357Y-14906500D01*
X10923357Y-14977929D01*
X10909071Y-15035071D01*
X10894786Y-15063643D01*
X10880500Y-15077929D01*
X10851928Y-15092214D01*
X10823357Y-15092214D01*
X10794786Y-15077929D01*
X10780500Y-15063643D01*
X10766214Y-15035071D01*
X10751928Y-14977929D01*
X10751928Y-14906500D01*
X10766214Y-14849357D01*
X10780500Y-14820786D01*
X10794786Y-14806500D01*
X10823357Y-14792214D01*
X11109071Y-14792214D02*
X11137643Y-14792214D01*
X11166214Y-14806500D01*
X11180500Y-14820786D01*
X11194786Y-14849357D01*
X11209071Y-14906500D01*
X11209071Y-14977929D01*
X11194786Y-15035071D01*
X11180500Y-15063643D01*
X11166214Y-15077929D01*
X11137643Y-15092214D01*
X11109071Y-15092214D01*
X11080500Y-15077929D01*
X11066214Y-15063643D01*
X11051928Y-15035071D01*
X11037643Y-14977929D01*
X11037643Y-14906500D01*
X11051928Y-14849357D01*
X11066214Y-14820786D01*
X11080500Y-14806500D01*
X11109071Y-14792214D01*
X11337643Y-15092214D02*
X11337643Y-14892214D01*
X11337643Y-14920786D02*
X11351928Y-14906500D01*
X11380500Y-14892214D01*
X11423357Y-14892214D01*
X11451928Y-14906500D01*
X11466214Y-14935071D01*
X11466214Y-15092214D01*
X11466214Y-14935071D02*
X11480500Y-14906500D01*
X11509071Y-14892214D01*
X11551928Y-14892214D01*
X11580500Y-14906500D01*
X11594786Y-14935071D01*
X11594786Y-15092214D01*
X11737643Y-15092214D02*
X11737643Y-14892214D01*
X11737643Y-14920786D02*
X11751928Y-14906500D01*
X11780500Y-14892214D01*
X11823357Y-14892214D01*
X11851928Y-14906500D01*
X11866214Y-14935071D01*
X11866214Y-15092214D01*
X11866214Y-14935071D02*
X11880500Y-14906500D01*
X11909071Y-14892214D01*
X11951928Y-14892214D01*
X11980500Y-14906500D01*
X11994786Y-14935071D01*
X11994786Y-15092214D01*
X12580500Y-14777929D02*
X12323357Y-15163643D01*
X12966214Y-14792214D02*
X12994786Y-14792214D01*
X13023357Y-14806500D01*
X13037643Y-14820786D01*
X13051928Y-14849357D01*
X13066214Y-14906500D01*
X13066214Y-14977929D01*
X13051928Y-15035071D01*
X13037643Y-15063643D01*
X13023357Y-15077929D01*
X12994786Y-15092214D01*
X12966214Y-15092214D01*
X12937643Y-15077929D01*
X12923357Y-15063643D01*
X12909071Y-15035071D01*
X12894786Y-14977929D01*
X12894786Y-14906500D01*
X12909071Y-14849357D01*
X12923357Y-14820786D01*
X12937643Y-14806500D01*
X12966214Y-14792214D01*
X13194786Y-15063643D02*
X13209071Y-15077929D01*
X13194786Y-15092214D01*
X13180500Y-15077929D01*
X13194786Y-15063643D01*
X13194786Y-15092214D01*
X13394786Y-14792214D02*
X13423357Y-14792214D01*
X13451928Y-14806500D01*
X13466214Y-14820786D01*
X13480500Y-14849357D01*
X13494786Y-14906500D01*
X13494786Y-14977929D01*
X13480500Y-15035071D01*
X13466214Y-15063643D01*
X13451928Y-15077929D01*
X13423357Y-15092214D01*
X13394786Y-15092214D01*
X13366214Y-15077929D01*
X13351928Y-15063643D01*
X13337643Y-15035071D01*
X13323357Y-14977929D01*
X13323357Y-14906500D01*
X13337643Y-14849357D01*
X13351928Y-14820786D01*
X13366214Y-14806500D01*
X13394786Y-14792214D01*
X13780500Y-15092214D02*
X13609071Y-15092214D01*
X13694786Y-15092214D02*
X13694786Y-14792214D01*
X13666214Y-14835071D01*
X13637643Y-14863643D01*
X13609071Y-14877929D01*
X13923357Y-15092214D02*
X13980500Y-15092214D01*
X14009071Y-15077929D01*
X14023357Y-15063643D01*
X14051928Y-15020786D01*
X14066214Y-14963643D01*
X14066214Y-14849357D01*
X14051928Y-14820786D01*
X14037643Y-14806500D01*
X14009071Y-14792214D01*
X13951928Y-14792214D01*
X13923357Y-14806500D01*
X13909071Y-14820786D01*
X13894786Y-14849357D01*
X13894786Y-14920786D01*
X13909071Y-14949357D01*
X13923357Y-14963643D01*
X13951928Y-14977929D01*
X14009071Y-14977929D01*
X14037643Y-14963643D01*
X14051928Y-14949357D01*
X14066214Y-14920786D01*
X14166214Y-14792214D02*
X14366214Y-14792214D01*
X14237643Y-15092214D01*
X14466214Y-14792214D02*
X14466214Y-14849357D01*
X14580500Y-14792214D02*
X14580500Y-14849357D01*
X15023357Y-15206500D02*
X15009071Y-15192214D01*
X14980500Y-15149357D01*
X14966214Y-15120786D01*
X14951928Y-15077929D01*
X14937643Y-15006500D01*
X14937643Y-14949357D01*
X14951928Y-14877929D01*
X14966214Y-14835071D01*
X14980500Y-14806500D01*
X15009071Y-14763643D01*
X15023357Y-14749357D01*
X15194786Y-14792214D02*
X15223357Y-14792214D01*
X15251928Y-14806500D01*
X15266214Y-14820786D01*
X15280500Y-14849357D01*
X15294786Y-14906500D01*
X15294786Y-14977929D01*
X15280500Y-15035071D01*
X15266214Y-15063643D01*
X15251928Y-15077929D01*
X15223357Y-15092214D01*
X15194786Y-15092214D01*
X15166214Y-15077929D01*
X15151928Y-15063643D01*
X15137643Y-15035071D01*
X15123357Y-14977929D01*
X15123357Y-14906500D01*
X15137643Y-14849357D01*
X15151928Y-14820786D01*
X15166214Y-14806500D01*
X15194786Y-14792214D01*
X15651928Y-15092214D02*
X15651928Y-14792214D01*
X15780500Y-15092214D02*
X15780500Y-14935071D01*
X15766214Y-14906500D01*
X15737643Y-14892214D01*
X15694786Y-14892214D01*
X15666214Y-14906500D01*
X15651928Y-14920786D01*
X15966214Y-15092214D02*
X15937643Y-15077929D01*
X15923357Y-15063643D01*
X15909071Y-15035071D01*
X15909071Y-14949357D01*
X15923357Y-14920786D01*
X15937643Y-14906500D01*
X15966214Y-14892214D01*
X16009071Y-14892214D01*
X16037643Y-14906500D01*
X16051928Y-14920786D01*
X16066214Y-14949357D01*
X16066214Y-15035071D01*
X16051928Y-15063643D01*
X16037643Y-15077929D01*
X16009071Y-15092214D01*
X15966214Y-15092214D01*
X16237643Y-15092214D02*
X16209071Y-15077929D01*
X16194786Y-15049357D01*
X16194786Y-14792214D01*
X16466214Y-15077929D02*
X16437643Y-15092214D01*
X16380500Y-15092214D01*
X16351928Y-15077929D01*
X16337643Y-15049357D01*
X16337643Y-14935071D01*
X16351928Y-14906500D01*
X16380500Y-14892214D01*
X16437643Y-14892214D01*
X16466214Y-14906500D01*
X16480500Y-14935071D01*
X16480500Y-14963643D01*
X16337643Y-14992214D01*
X16594786Y-15077929D02*
X16623357Y-15092214D01*
X16680500Y-15092214D01*
X16709071Y-15077929D01*
X16723357Y-15049357D01*
X16723357Y-15035071D01*
X16709071Y-15006500D01*
X16680500Y-14992214D01*
X16637643Y-14992214D01*
X16609071Y-14977929D01*
X16594786Y-14949357D01*
X16594786Y-14935071D01*
X16609071Y-14906500D01*
X16637643Y-14892214D01*
X16680500Y-14892214D01*
X16709071Y-14906500D01*
X17080500Y-14977929D02*
X17309071Y-14977929D01*
X17194786Y-15092214D02*
X17194786Y-14863643D01*
X17666214Y-14820786D02*
X17680500Y-14806500D01*
X17709071Y-14792214D01*
X17780500Y-14792214D01*
X17809071Y-14806500D01*
X17823357Y-14820786D01*
X17837643Y-14849357D01*
X17837643Y-14877929D01*
X17823357Y-14920786D01*
X17651928Y-15092214D01*
X17837643Y-15092214D01*
X18180500Y-15077929D02*
X18209071Y-15092214D01*
X18266214Y-15092214D01*
X18294786Y-15077929D01*
X18309071Y-15049357D01*
X18309071Y-15035071D01*
X18294786Y-15006500D01*
X18266214Y-14992214D01*
X18223357Y-14992214D01*
X18194786Y-14977929D01*
X18180500Y-14949357D01*
X18180500Y-14935071D01*
X18194786Y-14906500D01*
X18223357Y-14892214D01*
X18266214Y-14892214D01*
X18294786Y-14906500D01*
X18480500Y-15092214D02*
X18451928Y-15077929D01*
X18437643Y-15049357D01*
X18437643Y-14792214D01*
X18637643Y-15092214D02*
X18609071Y-15077929D01*
X18594786Y-15063643D01*
X18580500Y-15035071D01*
X18580500Y-14949357D01*
X18594786Y-14920786D01*
X18609071Y-14906500D01*
X18637643Y-14892214D01*
X18680500Y-14892214D01*
X18709071Y-14906500D01*
X18723357Y-14920786D01*
X18737643Y-14949357D01*
X18737643Y-15035071D01*
X18723357Y-15063643D01*
X18709071Y-15077929D01*
X18680500Y-15092214D01*
X18637643Y-15092214D01*
X18823357Y-14892214D02*
X18937643Y-14892214D01*
X18866214Y-14792214D02*
X18866214Y-15049357D01*
X18880500Y-15077929D01*
X18909071Y-15092214D01*
X18937643Y-15092214D01*
X19023357Y-15077929D02*
X19051928Y-15092214D01*
X19109071Y-15092214D01*
X19137643Y-15077929D01*
X19151928Y-15049357D01*
X19151928Y-15035071D01*
X19137643Y-15006500D01*
X19109071Y-14992214D01*
X19066214Y-14992214D01*
X19037643Y-14977929D01*
X19023357Y-14949357D01*
X19023357Y-14935071D01*
X19037643Y-14906500D01*
X19066214Y-14892214D01*
X19109071Y-14892214D01*
X19137643Y-14906500D01*
X19251928Y-15206500D02*
X19266214Y-15192214D01*
X19294786Y-15149357D01*
X19309071Y-15120786D01*
X19323357Y-15077929D01*
X19337643Y-15006500D01*
X19337643Y-14949357D01*
X19323357Y-14877929D01*
X19309071Y-14835071D01*
X19294786Y-14806500D01*
X19266214Y-14763643D01*
X19251928Y-14749357D01*
X9757446Y-15371946D02*
X9757446Y-15333054D01*
X9718554Y-15333054D01*
X9718554Y-15371946D01*
X9757446Y-15371946D01*
X10109071Y-15188214D02*
X10137643Y-15188214D01*
X10166214Y-15202500D01*
X10180500Y-15216786D01*
X10194786Y-15245357D01*
X10209071Y-15302500D01*
X10209071Y-15373929D01*
X10194786Y-15431071D01*
X10180500Y-15459643D01*
X10166214Y-15473929D01*
X10137643Y-15488214D01*
X10109071Y-15488214D01*
X10080500Y-15473929D01*
X10066214Y-15459643D01*
X10051928Y-15431071D01*
X10037643Y-15373929D01*
X10037643Y-15302500D01*
X10051928Y-15245357D01*
X10066214Y-15216786D01*
X10080500Y-15202500D01*
X10109071Y-15188214D01*
X10337643Y-15459643D02*
X10351928Y-15473929D01*
X10337643Y-15488214D01*
X10323357Y-15473929D01*
X10337643Y-15459643D01*
X10337643Y-15488214D01*
X10623357Y-15188214D02*
X10480500Y-15188214D01*
X10466214Y-15331071D01*
X10480500Y-15316786D01*
X10509071Y-15302500D01*
X10580500Y-15302500D01*
X10609071Y-15316786D01*
X10623357Y-15331071D01*
X10637643Y-15359643D01*
X10637643Y-15431071D01*
X10623357Y-15459643D01*
X10609071Y-15473929D01*
X10580500Y-15488214D01*
X10509071Y-15488214D01*
X10480500Y-15473929D01*
X10466214Y-15459643D01*
X10909071Y-15188214D02*
X10766214Y-15188214D01*
X10751928Y-15331071D01*
X10766214Y-15316786D01*
X10794786Y-15302500D01*
X10866214Y-15302500D01*
X10894786Y-15316786D01*
X10909071Y-15331071D01*
X10923357Y-15359643D01*
X10923357Y-15431071D01*
X10909071Y-15459643D01*
X10894786Y-15473929D01*
X10866214Y-15488214D01*
X10794786Y-15488214D01*
X10766214Y-15473929D01*
X10751928Y-15459643D01*
X11109071Y-15188214D02*
X11137643Y-15188214D01*
X11166214Y-15202500D01*
X11180500Y-15216786D01*
X11194786Y-15245357D01*
X11209071Y-15302500D01*
X11209071Y-15373929D01*
X11194786Y-15431071D01*
X11180500Y-15459643D01*
X11166214Y-15473929D01*
X11137643Y-15488214D01*
X11109071Y-15488214D01*
X11080500Y-15473929D01*
X11066214Y-15459643D01*
X11051928Y-15431071D01*
X11037643Y-15373929D01*
X11037643Y-15302500D01*
X11051928Y-15245357D01*
X11066214Y-15216786D01*
X11080500Y-15202500D01*
X11109071Y-15188214D01*
X11337643Y-15488214D02*
X11337643Y-15288214D01*
X11337643Y-15316786D02*
X11351928Y-15302500D01*
X11380500Y-15288214D01*
X11423357Y-15288214D01*
X11451928Y-15302500D01*
X11466214Y-15331071D01*
X11466214Y-15488214D01*
X11466214Y-15331071D02*
X11480500Y-15302500D01*
X11509071Y-15288214D01*
X11551928Y-15288214D01*
X11580500Y-15302500D01*
X11594786Y-15331071D01*
X11594786Y-15488214D01*
X11737643Y-15488214D02*
X11737643Y-15288214D01*
X11737643Y-15316786D02*
X11751928Y-15302500D01*
X11780500Y-15288214D01*
X11823357Y-15288214D01*
X11851928Y-15302500D01*
X11866214Y-15331071D01*
X11866214Y-15488214D01*
X11866214Y-15331071D02*
X11880500Y-15302500D01*
X11909071Y-15288214D01*
X11951928Y-15288214D01*
X11980500Y-15302500D01*
X11994786Y-15331071D01*
X11994786Y-15488214D01*
X12580500Y-15173929D02*
X12323357Y-15559643D01*
X12966214Y-15188214D02*
X12994786Y-15188214D01*
X13023357Y-15202500D01*
X13037643Y-15216786D01*
X13051928Y-15245357D01*
X13066214Y-15302500D01*
X13066214Y-15373929D01*
X13051928Y-15431071D01*
X13037643Y-15459643D01*
X13023357Y-15473929D01*
X12994786Y-15488214D01*
X12966214Y-15488214D01*
X12937643Y-15473929D01*
X12923357Y-15459643D01*
X12909071Y-15431071D01*
X12894786Y-15373929D01*
X12894786Y-15302500D01*
X12909071Y-15245357D01*
X12923357Y-15216786D01*
X12937643Y-15202500D01*
X12966214Y-15188214D01*
X13194786Y-15459643D02*
X13209071Y-15473929D01*
X13194786Y-15488214D01*
X13180500Y-15473929D01*
X13194786Y-15459643D01*
X13194786Y-15488214D01*
X13394786Y-15188214D02*
X13423357Y-15188214D01*
X13451928Y-15202500D01*
X13466214Y-15216786D01*
X13480500Y-15245357D01*
X13494786Y-15302500D01*
X13494786Y-15373929D01*
X13480500Y-15431071D01*
X13466214Y-15459643D01*
X13451928Y-15473929D01*
X13423357Y-15488214D01*
X13394786Y-15488214D01*
X13366214Y-15473929D01*
X13351928Y-15459643D01*
X13337643Y-15431071D01*
X13323357Y-15373929D01*
X13323357Y-15302500D01*
X13337643Y-15245357D01*
X13351928Y-15216786D01*
X13366214Y-15202500D01*
X13394786Y-15188214D01*
X13609071Y-15216786D02*
X13623357Y-15202500D01*
X13651928Y-15188214D01*
X13723357Y-15188214D01*
X13751928Y-15202500D01*
X13766214Y-15216786D01*
X13780500Y-15245357D01*
X13780500Y-15273929D01*
X13766214Y-15316786D01*
X13594786Y-15488214D01*
X13780500Y-15488214D01*
X14066214Y-15488214D02*
X13894786Y-15488214D01*
X13980500Y-15488214D02*
X13980500Y-15188214D01*
X13951928Y-15231071D01*
X13923357Y-15259643D01*
X13894786Y-15273929D01*
X14166214Y-15188214D02*
X14366214Y-15188214D01*
X14237643Y-15488214D01*
X14466214Y-15188214D02*
X14466214Y-15245357D01*
X14580500Y-15188214D02*
X14580500Y-15245357D01*
X15023357Y-15602500D02*
X15009071Y-15588214D01*
X14980500Y-15545357D01*
X14966214Y-15516786D01*
X14951928Y-15473929D01*
X14937643Y-15402500D01*
X14937643Y-15345357D01*
X14951928Y-15273929D01*
X14966214Y-15231071D01*
X14980500Y-15202500D01*
X15009071Y-15159643D01*
X15023357Y-15145357D01*
X15194786Y-15188214D02*
X15223357Y-15188214D01*
X15251928Y-15202500D01*
X15266214Y-15216786D01*
X15280500Y-15245357D01*
X15294786Y-15302500D01*
X15294786Y-15373929D01*
X15280500Y-15431071D01*
X15266214Y-15459643D01*
X15251928Y-15473929D01*
X15223357Y-15488214D01*
X15194786Y-15488214D01*
X15166214Y-15473929D01*
X15151928Y-15459643D01*
X15137643Y-15431071D01*
X15123357Y-15373929D01*
X15123357Y-15302500D01*
X15137643Y-15245357D01*
X15151928Y-15216786D01*
X15166214Y-15202500D01*
X15194786Y-15188214D01*
X15651928Y-15488214D02*
X15651928Y-15188214D01*
X15780500Y-15488214D02*
X15780500Y-15331071D01*
X15766214Y-15302500D01*
X15737643Y-15288214D01*
X15694786Y-15288214D01*
X15666214Y-15302500D01*
X15651928Y-15316786D01*
X15966214Y-15488214D02*
X15937643Y-15473929D01*
X15923357Y-15459643D01*
X15909071Y-15431071D01*
X15909071Y-15345357D01*
X15923357Y-15316786D01*
X15937643Y-15302500D01*
X15966214Y-15288214D01*
X16009071Y-15288214D01*
X16037643Y-15302500D01*
X16051928Y-15316786D01*
X16066214Y-15345357D01*
X16066214Y-15431071D01*
X16051928Y-15459643D01*
X16037643Y-15473929D01*
X16009071Y-15488214D01*
X15966214Y-15488214D01*
X16237643Y-15488214D02*
X16209071Y-15473929D01*
X16194786Y-15445357D01*
X16194786Y-15188214D01*
X16466214Y-15473929D02*
X16437643Y-15488214D01*
X16380500Y-15488214D01*
X16351928Y-15473929D01*
X16337643Y-15445357D01*
X16337643Y-15331071D01*
X16351928Y-15302500D01*
X16380500Y-15288214D01*
X16437643Y-15288214D01*
X16466214Y-15302500D01*
X16480500Y-15331071D01*
X16480500Y-15359643D01*
X16337643Y-15388214D01*
X16594786Y-15473929D02*
X16623357Y-15488214D01*
X16680500Y-15488214D01*
X16709071Y-15473929D01*
X16723357Y-15445357D01*
X16723357Y-15431071D01*
X16709071Y-15402500D01*
X16680500Y-15388214D01*
X16637643Y-15388214D01*
X16609071Y-15373929D01*
X16594786Y-15345357D01*
X16594786Y-15331071D01*
X16609071Y-15302500D01*
X16637643Y-15288214D01*
X16680500Y-15288214D01*
X16709071Y-15302500D01*
X17080500Y-15373929D02*
X17309071Y-15373929D01*
X17194786Y-15488214D02*
X17194786Y-15259643D01*
X17666214Y-15216786D02*
X17680500Y-15202500D01*
X17709071Y-15188214D01*
X17780500Y-15188214D01*
X17809071Y-15202500D01*
X17823357Y-15216786D01*
X17837643Y-15245357D01*
X17837643Y-15273929D01*
X17823357Y-15316786D01*
X17651928Y-15488214D01*
X17837643Y-15488214D01*
X18180500Y-15473929D02*
X18209071Y-15488214D01*
X18266214Y-15488214D01*
X18294786Y-15473929D01*
X18309071Y-15445357D01*
X18309071Y-15431071D01*
X18294786Y-15402500D01*
X18266214Y-15388214D01*
X18223357Y-15388214D01*
X18194786Y-15373929D01*
X18180500Y-15345357D01*
X18180500Y-15331071D01*
X18194786Y-15302500D01*
X18223357Y-15288214D01*
X18266214Y-15288214D01*
X18294786Y-15302500D01*
X18480500Y-15488214D02*
X18451928Y-15473929D01*
X18437643Y-15445357D01*
X18437643Y-15188214D01*
X18637643Y-15488214D02*
X18609071Y-15473929D01*
X18594786Y-15459643D01*
X18580500Y-15431071D01*
X18580500Y-15345357D01*
X18594786Y-15316786D01*
X18609071Y-15302500D01*
X18637643Y-15288214D01*
X18680500Y-15288214D01*
X18709071Y-15302500D01*
X18723357Y-15316786D01*
X18737643Y-15345357D01*
X18737643Y-15431071D01*
X18723357Y-15459643D01*
X18709071Y-15473929D01*
X18680500Y-15488214D01*
X18637643Y-15488214D01*
X18823357Y-15288214D02*
X18937643Y-15288214D01*
X18866214Y-15188214D02*
X18866214Y-15445357D01*
X18880500Y-15473929D01*
X18909071Y-15488214D01*
X18937643Y-15488214D01*
X19023357Y-15473929D02*
X19051928Y-15488214D01*
X19109071Y-15488214D01*
X19137643Y-15473929D01*
X19151928Y-15445357D01*
X19151928Y-15431071D01*
X19137643Y-15402500D01*
X19109071Y-15388214D01*
X19066214Y-15388214D01*
X19037643Y-15373929D01*
X19023357Y-15345357D01*
X19023357Y-15331071D01*
X19037643Y-15302500D01*
X19066214Y-15288214D01*
X19109071Y-15288214D01*
X19137643Y-15302500D01*
X19251928Y-15602500D02*
X19266214Y-15588214D01*
X19294786Y-15545357D01*
X19309071Y-15516786D01*
X19323357Y-15473929D01*
X19337643Y-15402500D01*
X19337643Y-15345357D01*
X19323357Y-15273929D01*
X19309071Y-15231071D01*
X19294786Y-15202500D01*
X19266214Y-15159643D01*
X19251928Y-15145357D01*
M02*
