G04 #@! TF.GenerationSoftware,KiCad,Pcbnew,(5.1.10)-1*
G04 #@! TF.CreationDate,2021-08-26T18:29:03-04:00*
G04 #@! TF.ProjectId,CMOS-Clock-V1,434d4f53-2d43-46c6-9f63-6b2d56312e6b,rev?*
G04 #@! TF.SameCoordinates,Original*
G04 #@! TF.FileFunction,Soldermask,Top*
G04 #@! TF.FilePolarity,Negative*
%FSLAX46Y46*%
G04 Gerber Fmt 4.6, Leading zero omitted, Abs format (unit mm)*
G04 Created by KiCad (PCBNEW (5.1.10)-1) date 2021-08-26 18:29:03*
%MOMM*%
%LPD*%
G01*
G04 APERTURE LIST*
%ADD10O,1.410000X0.760000*%
%ADD11O,0.885000X1.660000*%
G04 APERTURE END LIST*
G36*
G01*
X112475000Y-128112500D02*
X112475000Y-128967500D01*
G75*
G02*
X112047500Y-129395000I-427500J0D01*
G01*
X109792500Y-129395000D01*
G75*
G02*
X109365000Y-128967500I0J427500D01*
G01*
X109365000Y-128112500D01*
G75*
G02*
X109792500Y-127685000I427500J0D01*
G01*
X112047500Y-127685000D01*
G75*
G02*
X112475000Y-128112500I0J-427500D01*
G01*
G37*
G36*
G01*
X116875000Y-128112500D02*
X116875000Y-128967500D01*
G75*
G02*
X116447500Y-129395000I-427500J0D01*
G01*
X114192500Y-129395000D01*
G75*
G02*
X113765000Y-128967500I0J427500D01*
G01*
X113765000Y-128112500D01*
G75*
G02*
X114192500Y-127685000I427500J0D01*
G01*
X116447500Y-127685000D01*
G75*
G02*
X116875000Y-128112500I0J-427500D01*
G01*
G37*
G36*
G01*
X143415000Y-75897500D02*
X143415000Y-74492500D01*
G75*
G02*
X143642500Y-74265000I227500J0D01*
G01*
X144097500Y-74265000D01*
G75*
G02*
X144325000Y-74492500I0J-227500D01*
G01*
X144325000Y-75897500D01*
G75*
G02*
X144097500Y-76125000I-227500J0D01*
G01*
X143642500Y-76125000D01*
G75*
G02*
X143415000Y-75897500I0J227500D01*
G01*
G37*
G36*
G01*
X144735000Y-75922500D02*
X144735000Y-74467500D01*
G75*
G02*
X144937500Y-74265000I202500J0D01*
G01*
X145342500Y-74265000D01*
G75*
G02*
X145545000Y-74467500I0J-202500D01*
G01*
X145545000Y-75922500D01*
G75*
G02*
X145342500Y-76125000I-202500J0D01*
G01*
X144937500Y-76125000D01*
G75*
G02*
X144735000Y-75922500I0J202500D01*
G01*
G37*
G36*
G01*
X146005000Y-75922500D02*
X146005000Y-74467500D01*
G75*
G02*
X146207500Y-74265000I202500J0D01*
G01*
X146612500Y-74265000D01*
G75*
G02*
X146815000Y-74467500I0J-202500D01*
G01*
X146815000Y-75922500D01*
G75*
G02*
X146612500Y-76125000I-202500J0D01*
G01*
X146207500Y-76125000D01*
G75*
G02*
X146005000Y-75922500I0J202500D01*
G01*
G37*
G36*
G01*
X147275000Y-75922500D02*
X147275000Y-74467500D01*
G75*
G02*
X147477500Y-74265000I202500J0D01*
G01*
X147882500Y-74265000D01*
G75*
G02*
X148085000Y-74467500I0J-202500D01*
G01*
X148085000Y-75922500D01*
G75*
G02*
X147882500Y-76125000I-202500J0D01*
G01*
X147477500Y-76125000D01*
G75*
G02*
X147275000Y-75922500I0J202500D01*
G01*
G37*
G36*
G01*
X148545000Y-75922500D02*
X148545000Y-74467500D01*
G75*
G02*
X148747500Y-74265000I202500J0D01*
G01*
X149152500Y-74265000D01*
G75*
G02*
X149355000Y-74467500I0J-202500D01*
G01*
X149355000Y-75922500D01*
G75*
G02*
X149152500Y-76125000I-202500J0D01*
G01*
X148747500Y-76125000D01*
G75*
G02*
X148545000Y-75922500I0J202500D01*
G01*
G37*
G36*
G01*
X149815000Y-75922500D02*
X149815000Y-74467500D01*
G75*
G02*
X150017500Y-74265000I202500J0D01*
G01*
X150422500Y-74265000D01*
G75*
G02*
X150625000Y-74467500I0J-202500D01*
G01*
X150625000Y-75922500D01*
G75*
G02*
X150422500Y-76125000I-202500J0D01*
G01*
X150017500Y-76125000D01*
G75*
G02*
X149815000Y-75922500I0J202500D01*
G01*
G37*
G36*
G01*
X151035000Y-75897500D02*
X151035000Y-74492500D01*
G75*
G02*
X151262500Y-74265000I227500J0D01*
G01*
X151717500Y-74265000D01*
G75*
G02*
X151945000Y-74492500I0J-227500D01*
G01*
X151945000Y-75897500D01*
G75*
G02*
X151717500Y-76125000I-227500J0D01*
G01*
X151262500Y-76125000D01*
G75*
G02*
X151035000Y-75897500I0J227500D01*
G01*
G37*
G36*
G01*
X151035000Y-81547500D02*
X151035000Y-80142500D01*
G75*
G02*
X151262500Y-79915000I227500J0D01*
G01*
X151717500Y-79915000D01*
G75*
G02*
X151945000Y-80142500I0J-227500D01*
G01*
X151945000Y-81547500D01*
G75*
G02*
X151717500Y-81775000I-227500J0D01*
G01*
X151262500Y-81775000D01*
G75*
G02*
X151035000Y-81547500I0J227500D01*
G01*
G37*
G36*
G01*
X149815000Y-81572500D02*
X149815000Y-80117500D01*
G75*
G02*
X150017500Y-79915000I202500J0D01*
G01*
X150422500Y-79915000D01*
G75*
G02*
X150625000Y-80117500I0J-202500D01*
G01*
X150625000Y-81572500D01*
G75*
G02*
X150422500Y-81775000I-202500J0D01*
G01*
X150017500Y-81775000D01*
G75*
G02*
X149815000Y-81572500I0J202500D01*
G01*
G37*
G36*
G01*
X148545000Y-81572500D02*
X148545000Y-80117500D01*
G75*
G02*
X148747500Y-79915000I202500J0D01*
G01*
X149152500Y-79915000D01*
G75*
G02*
X149355000Y-80117500I0J-202500D01*
G01*
X149355000Y-81572500D01*
G75*
G02*
X149152500Y-81775000I-202500J0D01*
G01*
X148747500Y-81775000D01*
G75*
G02*
X148545000Y-81572500I0J202500D01*
G01*
G37*
G36*
G01*
X147275000Y-81572500D02*
X147275000Y-80117500D01*
G75*
G02*
X147477500Y-79915000I202500J0D01*
G01*
X147882500Y-79915000D01*
G75*
G02*
X148085000Y-80117500I0J-202500D01*
G01*
X148085000Y-81572500D01*
G75*
G02*
X147882500Y-81775000I-202500J0D01*
G01*
X147477500Y-81775000D01*
G75*
G02*
X147275000Y-81572500I0J202500D01*
G01*
G37*
G36*
G01*
X146005000Y-81572500D02*
X146005000Y-80117500D01*
G75*
G02*
X146207500Y-79915000I202500J0D01*
G01*
X146612500Y-79915000D01*
G75*
G02*
X146815000Y-80117500I0J-202500D01*
G01*
X146815000Y-81572500D01*
G75*
G02*
X146612500Y-81775000I-202500J0D01*
G01*
X146207500Y-81775000D01*
G75*
G02*
X146005000Y-81572500I0J202500D01*
G01*
G37*
G36*
G01*
X144735000Y-81572500D02*
X144735000Y-80117500D01*
G75*
G02*
X144937500Y-79915000I202500J0D01*
G01*
X145342500Y-79915000D01*
G75*
G02*
X145545000Y-80117500I0J-202500D01*
G01*
X145545000Y-81572500D01*
G75*
G02*
X145342500Y-81775000I-202500J0D01*
G01*
X144937500Y-81775000D01*
G75*
G02*
X144735000Y-81572500I0J202500D01*
G01*
G37*
G36*
G01*
X143365000Y-81547500D02*
X143365000Y-80142500D01*
G75*
G02*
X143592500Y-79915000I227500J0D01*
G01*
X144047500Y-79915000D01*
G75*
G02*
X144275000Y-80142500I0J-227500D01*
G01*
X144275000Y-81547500D01*
G75*
G02*
X144047500Y-81775000I-227500J0D01*
G01*
X143592500Y-81775000D01*
G75*
G02*
X143365000Y-81547500I0J227500D01*
G01*
G37*
G36*
G01*
X103740000Y-106292500D02*
X103740000Y-107697500D01*
G75*
G02*
X103512500Y-107925000I-227500J0D01*
G01*
X103057500Y-107925000D01*
G75*
G02*
X102830000Y-107697500I0J227500D01*
G01*
X102830000Y-106292500D01*
G75*
G02*
X103057500Y-106065000I227500J0D01*
G01*
X103512500Y-106065000D01*
G75*
G02*
X103740000Y-106292500I0J-227500D01*
G01*
G37*
G36*
G01*
X105010000Y-106267500D02*
X105010000Y-107722500D01*
G75*
G02*
X104807500Y-107925000I-202500J0D01*
G01*
X104402500Y-107925000D01*
G75*
G02*
X104200000Y-107722500I0J202500D01*
G01*
X104200000Y-106267500D01*
G75*
G02*
X104402500Y-106065000I202500J0D01*
G01*
X104807500Y-106065000D01*
G75*
G02*
X105010000Y-106267500I0J-202500D01*
G01*
G37*
G36*
G01*
X106280000Y-106267500D02*
X106280000Y-107722500D01*
G75*
G02*
X106077500Y-107925000I-202500J0D01*
G01*
X105672500Y-107925000D01*
G75*
G02*
X105470000Y-107722500I0J202500D01*
G01*
X105470000Y-106267500D01*
G75*
G02*
X105672500Y-106065000I202500J0D01*
G01*
X106077500Y-106065000D01*
G75*
G02*
X106280000Y-106267500I0J-202500D01*
G01*
G37*
G36*
G01*
X107550000Y-106267500D02*
X107550000Y-107722500D01*
G75*
G02*
X107347500Y-107925000I-202500J0D01*
G01*
X106942500Y-107925000D01*
G75*
G02*
X106740000Y-107722500I0J202500D01*
G01*
X106740000Y-106267500D01*
G75*
G02*
X106942500Y-106065000I202500J0D01*
G01*
X107347500Y-106065000D01*
G75*
G02*
X107550000Y-106267500I0J-202500D01*
G01*
G37*
G36*
G01*
X108820000Y-106267500D02*
X108820000Y-107722500D01*
G75*
G02*
X108617500Y-107925000I-202500J0D01*
G01*
X108212500Y-107925000D01*
G75*
G02*
X108010000Y-107722500I0J202500D01*
G01*
X108010000Y-106267500D01*
G75*
G02*
X108212500Y-106065000I202500J0D01*
G01*
X108617500Y-106065000D01*
G75*
G02*
X108820000Y-106267500I0J-202500D01*
G01*
G37*
G36*
G01*
X110090000Y-106267500D02*
X110090000Y-107722500D01*
G75*
G02*
X109887500Y-107925000I-202500J0D01*
G01*
X109482500Y-107925000D01*
G75*
G02*
X109280000Y-107722500I0J202500D01*
G01*
X109280000Y-106267500D01*
G75*
G02*
X109482500Y-106065000I202500J0D01*
G01*
X109887500Y-106065000D01*
G75*
G02*
X110090000Y-106267500I0J-202500D01*
G01*
G37*
G36*
G01*
X111360000Y-106267500D02*
X111360000Y-107722500D01*
G75*
G02*
X111157500Y-107925000I-202500J0D01*
G01*
X110752500Y-107925000D01*
G75*
G02*
X110550000Y-107722500I0J202500D01*
G01*
X110550000Y-106267500D01*
G75*
G02*
X110752500Y-106065000I202500J0D01*
G01*
X111157500Y-106065000D01*
G75*
G02*
X111360000Y-106267500I0J-202500D01*
G01*
G37*
G36*
G01*
X112730000Y-106292500D02*
X112730000Y-107697500D01*
G75*
G02*
X112502500Y-107925000I-227500J0D01*
G01*
X112047500Y-107925000D01*
G75*
G02*
X111820000Y-107697500I0J227500D01*
G01*
X111820000Y-106292500D01*
G75*
G02*
X112047500Y-106065000I227500J0D01*
G01*
X112502500Y-106065000D01*
G75*
G02*
X112730000Y-106292500I0J-227500D01*
G01*
G37*
G36*
G01*
X112730000Y-111942500D02*
X112730000Y-113347500D01*
G75*
G02*
X112502500Y-113575000I-227500J0D01*
G01*
X112047500Y-113575000D01*
G75*
G02*
X111820000Y-113347500I0J227500D01*
G01*
X111820000Y-111942500D01*
G75*
G02*
X112047500Y-111715000I227500J0D01*
G01*
X112502500Y-111715000D01*
G75*
G02*
X112730000Y-111942500I0J-227500D01*
G01*
G37*
G36*
G01*
X111360000Y-111917500D02*
X111360000Y-113372500D01*
G75*
G02*
X111157500Y-113575000I-202500J0D01*
G01*
X110752500Y-113575000D01*
G75*
G02*
X110550000Y-113372500I0J202500D01*
G01*
X110550000Y-111917500D01*
G75*
G02*
X110752500Y-111715000I202500J0D01*
G01*
X111157500Y-111715000D01*
G75*
G02*
X111360000Y-111917500I0J-202500D01*
G01*
G37*
G36*
G01*
X110090000Y-111917500D02*
X110090000Y-113372500D01*
G75*
G02*
X109887500Y-113575000I-202500J0D01*
G01*
X109482500Y-113575000D01*
G75*
G02*
X109280000Y-113372500I0J202500D01*
G01*
X109280000Y-111917500D01*
G75*
G02*
X109482500Y-111715000I202500J0D01*
G01*
X109887500Y-111715000D01*
G75*
G02*
X110090000Y-111917500I0J-202500D01*
G01*
G37*
G36*
G01*
X108820000Y-111917500D02*
X108820000Y-113372500D01*
G75*
G02*
X108617500Y-113575000I-202500J0D01*
G01*
X108212500Y-113575000D01*
G75*
G02*
X108010000Y-113372500I0J202500D01*
G01*
X108010000Y-111917500D01*
G75*
G02*
X108212500Y-111715000I202500J0D01*
G01*
X108617500Y-111715000D01*
G75*
G02*
X108820000Y-111917500I0J-202500D01*
G01*
G37*
G36*
G01*
X107550000Y-111917500D02*
X107550000Y-113372500D01*
G75*
G02*
X107347500Y-113575000I-202500J0D01*
G01*
X106942500Y-113575000D01*
G75*
G02*
X106740000Y-113372500I0J202500D01*
G01*
X106740000Y-111917500D01*
G75*
G02*
X106942500Y-111715000I202500J0D01*
G01*
X107347500Y-111715000D01*
G75*
G02*
X107550000Y-111917500I0J-202500D01*
G01*
G37*
G36*
G01*
X106280000Y-111917500D02*
X106280000Y-113372500D01*
G75*
G02*
X106077500Y-113575000I-202500J0D01*
G01*
X105672500Y-113575000D01*
G75*
G02*
X105470000Y-113372500I0J202500D01*
G01*
X105470000Y-111917500D01*
G75*
G02*
X105672500Y-111715000I202500J0D01*
G01*
X106077500Y-111715000D01*
G75*
G02*
X106280000Y-111917500I0J-202500D01*
G01*
G37*
G36*
G01*
X105010000Y-111917500D02*
X105010000Y-113372500D01*
G75*
G02*
X104807500Y-113575000I-202500J0D01*
G01*
X104402500Y-113575000D01*
G75*
G02*
X104200000Y-113372500I0J202500D01*
G01*
X104200000Y-111917500D01*
G75*
G02*
X104402500Y-111715000I202500J0D01*
G01*
X104807500Y-111715000D01*
G75*
G02*
X105010000Y-111917500I0J-202500D01*
G01*
G37*
G36*
G01*
X103740000Y-111942500D02*
X103740000Y-113347500D01*
G75*
G02*
X103512500Y-113575000I-227500J0D01*
G01*
X103057500Y-113575000D01*
G75*
G02*
X102830000Y-113347500I0J227500D01*
G01*
X102830000Y-111942500D01*
G75*
G02*
X103057500Y-111715000I227500J0D01*
G01*
X103512500Y-111715000D01*
G75*
G02*
X103740000Y-111942500I0J-227500D01*
G01*
G37*
G36*
G01*
X191620000Y-103747500D02*
X191620000Y-102342500D01*
G75*
G02*
X191847500Y-102115000I227500J0D01*
G01*
X192302500Y-102115000D01*
G75*
G02*
X192530000Y-102342500I0J-227500D01*
G01*
X192530000Y-103747500D01*
G75*
G02*
X192302500Y-103975000I-227500J0D01*
G01*
X191847500Y-103975000D01*
G75*
G02*
X191620000Y-103747500I0J227500D01*
G01*
G37*
G36*
G01*
X190350000Y-103772500D02*
X190350000Y-102317500D01*
G75*
G02*
X190552500Y-102115000I202500J0D01*
G01*
X190957500Y-102115000D01*
G75*
G02*
X191160000Y-102317500I0J-202500D01*
G01*
X191160000Y-103772500D01*
G75*
G02*
X190957500Y-103975000I-202500J0D01*
G01*
X190552500Y-103975000D01*
G75*
G02*
X190350000Y-103772500I0J202500D01*
G01*
G37*
G36*
G01*
X189080000Y-103772500D02*
X189080000Y-102317500D01*
G75*
G02*
X189282500Y-102115000I202500J0D01*
G01*
X189687500Y-102115000D01*
G75*
G02*
X189890000Y-102317500I0J-202500D01*
G01*
X189890000Y-103772500D01*
G75*
G02*
X189687500Y-103975000I-202500J0D01*
G01*
X189282500Y-103975000D01*
G75*
G02*
X189080000Y-103772500I0J202500D01*
G01*
G37*
G36*
G01*
X187810000Y-103772500D02*
X187810000Y-102317500D01*
G75*
G02*
X188012500Y-102115000I202500J0D01*
G01*
X188417500Y-102115000D01*
G75*
G02*
X188620000Y-102317500I0J-202500D01*
G01*
X188620000Y-103772500D01*
G75*
G02*
X188417500Y-103975000I-202500J0D01*
G01*
X188012500Y-103975000D01*
G75*
G02*
X187810000Y-103772500I0J202500D01*
G01*
G37*
G36*
G01*
X186540000Y-103772500D02*
X186540000Y-102317500D01*
G75*
G02*
X186742500Y-102115000I202500J0D01*
G01*
X187147500Y-102115000D01*
G75*
G02*
X187350000Y-102317500I0J-202500D01*
G01*
X187350000Y-103772500D01*
G75*
G02*
X187147500Y-103975000I-202500J0D01*
G01*
X186742500Y-103975000D01*
G75*
G02*
X186540000Y-103772500I0J202500D01*
G01*
G37*
G36*
G01*
X185270000Y-103772500D02*
X185270000Y-102317500D01*
G75*
G02*
X185472500Y-102115000I202500J0D01*
G01*
X185877500Y-102115000D01*
G75*
G02*
X186080000Y-102317500I0J-202500D01*
G01*
X186080000Y-103772500D01*
G75*
G02*
X185877500Y-103975000I-202500J0D01*
G01*
X185472500Y-103975000D01*
G75*
G02*
X185270000Y-103772500I0J202500D01*
G01*
G37*
G36*
G01*
X184000000Y-103772500D02*
X184000000Y-102317500D01*
G75*
G02*
X184202500Y-102115000I202500J0D01*
G01*
X184607500Y-102115000D01*
G75*
G02*
X184810000Y-102317500I0J-202500D01*
G01*
X184810000Y-103772500D01*
G75*
G02*
X184607500Y-103975000I-202500J0D01*
G01*
X184202500Y-103975000D01*
G75*
G02*
X184000000Y-103772500I0J202500D01*
G01*
G37*
G36*
G01*
X182630000Y-103747500D02*
X182630000Y-102342500D01*
G75*
G02*
X182857500Y-102115000I227500J0D01*
G01*
X183312500Y-102115000D01*
G75*
G02*
X183540000Y-102342500I0J-227500D01*
G01*
X183540000Y-103747500D01*
G75*
G02*
X183312500Y-103975000I-227500J0D01*
G01*
X182857500Y-103975000D01*
G75*
G02*
X182630000Y-103747500I0J227500D01*
G01*
G37*
G36*
G01*
X182630000Y-98097500D02*
X182630000Y-96692500D01*
G75*
G02*
X182857500Y-96465000I227500J0D01*
G01*
X183312500Y-96465000D01*
G75*
G02*
X183540000Y-96692500I0J-227500D01*
G01*
X183540000Y-98097500D01*
G75*
G02*
X183312500Y-98325000I-227500J0D01*
G01*
X182857500Y-98325000D01*
G75*
G02*
X182630000Y-98097500I0J227500D01*
G01*
G37*
G36*
G01*
X184000000Y-98122500D02*
X184000000Y-96667500D01*
G75*
G02*
X184202500Y-96465000I202500J0D01*
G01*
X184607500Y-96465000D01*
G75*
G02*
X184810000Y-96667500I0J-202500D01*
G01*
X184810000Y-98122500D01*
G75*
G02*
X184607500Y-98325000I-202500J0D01*
G01*
X184202500Y-98325000D01*
G75*
G02*
X184000000Y-98122500I0J202500D01*
G01*
G37*
G36*
G01*
X185270000Y-98122500D02*
X185270000Y-96667500D01*
G75*
G02*
X185472500Y-96465000I202500J0D01*
G01*
X185877500Y-96465000D01*
G75*
G02*
X186080000Y-96667500I0J-202500D01*
G01*
X186080000Y-98122500D01*
G75*
G02*
X185877500Y-98325000I-202500J0D01*
G01*
X185472500Y-98325000D01*
G75*
G02*
X185270000Y-98122500I0J202500D01*
G01*
G37*
G36*
G01*
X186540000Y-98122500D02*
X186540000Y-96667500D01*
G75*
G02*
X186742500Y-96465000I202500J0D01*
G01*
X187147500Y-96465000D01*
G75*
G02*
X187350000Y-96667500I0J-202500D01*
G01*
X187350000Y-98122500D01*
G75*
G02*
X187147500Y-98325000I-202500J0D01*
G01*
X186742500Y-98325000D01*
G75*
G02*
X186540000Y-98122500I0J202500D01*
G01*
G37*
G36*
G01*
X187810000Y-98122500D02*
X187810000Y-96667500D01*
G75*
G02*
X188012500Y-96465000I202500J0D01*
G01*
X188417500Y-96465000D01*
G75*
G02*
X188620000Y-96667500I0J-202500D01*
G01*
X188620000Y-98122500D01*
G75*
G02*
X188417500Y-98325000I-202500J0D01*
G01*
X188012500Y-98325000D01*
G75*
G02*
X187810000Y-98122500I0J202500D01*
G01*
G37*
G36*
G01*
X189080000Y-98122500D02*
X189080000Y-96667500D01*
G75*
G02*
X189282500Y-96465000I202500J0D01*
G01*
X189687500Y-96465000D01*
G75*
G02*
X189890000Y-96667500I0J-202500D01*
G01*
X189890000Y-98122500D01*
G75*
G02*
X189687500Y-98325000I-202500J0D01*
G01*
X189282500Y-98325000D01*
G75*
G02*
X189080000Y-98122500I0J202500D01*
G01*
G37*
G36*
G01*
X190350000Y-98122500D02*
X190350000Y-96667500D01*
G75*
G02*
X190552500Y-96465000I202500J0D01*
G01*
X190957500Y-96465000D01*
G75*
G02*
X191160000Y-96667500I0J-202500D01*
G01*
X191160000Y-98122500D01*
G75*
G02*
X190957500Y-98325000I-202500J0D01*
G01*
X190552500Y-98325000D01*
G75*
G02*
X190350000Y-98122500I0J202500D01*
G01*
G37*
G36*
G01*
X191620000Y-98097500D02*
X191620000Y-96692500D01*
G75*
G02*
X191847500Y-96465000I227500J0D01*
G01*
X192302500Y-96465000D01*
G75*
G02*
X192530000Y-96692500I0J-227500D01*
G01*
X192530000Y-98097500D01*
G75*
G02*
X192302500Y-98325000I-227500J0D01*
G01*
X191847500Y-98325000D01*
G75*
G02*
X191620000Y-98097500I0J227500D01*
G01*
G37*
G36*
G01*
X191620000Y-113347500D02*
X191620000Y-111942500D01*
G75*
G02*
X191847500Y-111715000I227500J0D01*
G01*
X192302500Y-111715000D01*
G75*
G02*
X192530000Y-111942500I0J-227500D01*
G01*
X192530000Y-113347500D01*
G75*
G02*
X192302500Y-113575000I-227500J0D01*
G01*
X191847500Y-113575000D01*
G75*
G02*
X191620000Y-113347500I0J227500D01*
G01*
G37*
G36*
G01*
X190350000Y-113372500D02*
X190350000Y-111917500D01*
G75*
G02*
X190552500Y-111715000I202500J0D01*
G01*
X190957500Y-111715000D01*
G75*
G02*
X191160000Y-111917500I0J-202500D01*
G01*
X191160000Y-113372500D01*
G75*
G02*
X190957500Y-113575000I-202500J0D01*
G01*
X190552500Y-113575000D01*
G75*
G02*
X190350000Y-113372500I0J202500D01*
G01*
G37*
G36*
G01*
X189080000Y-113372500D02*
X189080000Y-111917500D01*
G75*
G02*
X189282500Y-111715000I202500J0D01*
G01*
X189687500Y-111715000D01*
G75*
G02*
X189890000Y-111917500I0J-202500D01*
G01*
X189890000Y-113372500D01*
G75*
G02*
X189687500Y-113575000I-202500J0D01*
G01*
X189282500Y-113575000D01*
G75*
G02*
X189080000Y-113372500I0J202500D01*
G01*
G37*
G36*
G01*
X187810000Y-113372500D02*
X187810000Y-111917500D01*
G75*
G02*
X188012500Y-111715000I202500J0D01*
G01*
X188417500Y-111715000D01*
G75*
G02*
X188620000Y-111917500I0J-202500D01*
G01*
X188620000Y-113372500D01*
G75*
G02*
X188417500Y-113575000I-202500J0D01*
G01*
X188012500Y-113575000D01*
G75*
G02*
X187810000Y-113372500I0J202500D01*
G01*
G37*
G36*
G01*
X186540000Y-113372500D02*
X186540000Y-111917500D01*
G75*
G02*
X186742500Y-111715000I202500J0D01*
G01*
X187147500Y-111715000D01*
G75*
G02*
X187350000Y-111917500I0J-202500D01*
G01*
X187350000Y-113372500D01*
G75*
G02*
X187147500Y-113575000I-202500J0D01*
G01*
X186742500Y-113575000D01*
G75*
G02*
X186540000Y-113372500I0J202500D01*
G01*
G37*
G36*
G01*
X185270000Y-113372500D02*
X185270000Y-111917500D01*
G75*
G02*
X185472500Y-111715000I202500J0D01*
G01*
X185877500Y-111715000D01*
G75*
G02*
X186080000Y-111917500I0J-202500D01*
G01*
X186080000Y-113372500D01*
G75*
G02*
X185877500Y-113575000I-202500J0D01*
G01*
X185472500Y-113575000D01*
G75*
G02*
X185270000Y-113372500I0J202500D01*
G01*
G37*
G36*
G01*
X184000000Y-113372500D02*
X184000000Y-111917500D01*
G75*
G02*
X184202500Y-111715000I202500J0D01*
G01*
X184607500Y-111715000D01*
G75*
G02*
X184810000Y-111917500I0J-202500D01*
G01*
X184810000Y-113372500D01*
G75*
G02*
X184607500Y-113575000I-202500J0D01*
G01*
X184202500Y-113575000D01*
G75*
G02*
X184000000Y-113372500I0J202500D01*
G01*
G37*
G36*
G01*
X182630000Y-113347500D02*
X182630000Y-111942500D01*
G75*
G02*
X182857500Y-111715000I227500J0D01*
G01*
X183312500Y-111715000D01*
G75*
G02*
X183540000Y-111942500I0J-227500D01*
G01*
X183540000Y-113347500D01*
G75*
G02*
X183312500Y-113575000I-227500J0D01*
G01*
X182857500Y-113575000D01*
G75*
G02*
X182630000Y-113347500I0J227500D01*
G01*
G37*
G36*
G01*
X182630000Y-107697500D02*
X182630000Y-106292500D01*
G75*
G02*
X182857500Y-106065000I227500J0D01*
G01*
X183312500Y-106065000D01*
G75*
G02*
X183540000Y-106292500I0J-227500D01*
G01*
X183540000Y-107697500D01*
G75*
G02*
X183312500Y-107925000I-227500J0D01*
G01*
X182857500Y-107925000D01*
G75*
G02*
X182630000Y-107697500I0J227500D01*
G01*
G37*
G36*
G01*
X184000000Y-107722500D02*
X184000000Y-106267500D01*
G75*
G02*
X184202500Y-106065000I202500J0D01*
G01*
X184607500Y-106065000D01*
G75*
G02*
X184810000Y-106267500I0J-202500D01*
G01*
X184810000Y-107722500D01*
G75*
G02*
X184607500Y-107925000I-202500J0D01*
G01*
X184202500Y-107925000D01*
G75*
G02*
X184000000Y-107722500I0J202500D01*
G01*
G37*
G36*
G01*
X185270000Y-107722500D02*
X185270000Y-106267500D01*
G75*
G02*
X185472500Y-106065000I202500J0D01*
G01*
X185877500Y-106065000D01*
G75*
G02*
X186080000Y-106267500I0J-202500D01*
G01*
X186080000Y-107722500D01*
G75*
G02*
X185877500Y-107925000I-202500J0D01*
G01*
X185472500Y-107925000D01*
G75*
G02*
X185270000Y-107722500I0J202500D01*
G01*
G37*
G36*
G01*
X186540000Y-107722500D02*
X186540000Y-106267500D01*
G75*
G02*
X186742500Y-106065000I202500J0D01*
G01*
X187147500Y-106065000D01*
G75*
G02*
X187350000Y-106267500I0J-202500D01*
G01*
X187350000Y-107722500D01*
G75*
G02*
X187147500Y-107925000I-202500J0D01*
G01*
X186742500Y-107925000D01*
G75*
G02*
X186540000Y-107722500I0J202500D01*
G01*
G37*
G36*
G01*
X187810000Y-107722500D02*
X187810000Y-106267500D01*
G75*
G02*
X188012500Y-106065000I202500J0D01*
G01*
X188417500Y-106065000D01*
G75*
G02*
X188620000Y-106267500I0J-202500D01*
G01*
X188620000Y-107722500D01*
G75*
G02*
X188417500Y-107925000I-202500J0D01*
G01*
X188012500Y-107925000D01*
G75*
G02*
X187810000Y-107722500I0J202500D01*
G01*
G37*
G36*
G01*
X189080000Y-107722500D02*
X189080000Y-106267500D01*
G75*
G02*
X189282500Y-106065000I202500J0D01*
G01*
X189687500Y-106065000D01*
G75*
G02*
X189890000Y-106267500I0J-202500D01*
G01*
X189890000Y-107722500D01*
G75*
G02*
X189687500Y-107925000I-202500J0D01*
G01*
X189282500Y-107925000D01*
G75*
G02*
X189080000Y-107722500I0J202500D01*
G01*
G37*
G36*
G01*
X190350000Y-107722500D02*
X190350000Y-106267500D01*
G75*
G02*
X190552500Y-106065000I202500J0D01*
G01*
X190957500Y-106065000D01*
G75*
G02*
X191160000Y-106267500I0J-202500D01*
G01*
X191160000Y-107722500D01*
G75*
G02*
X190957500Y-107925000I-202500J0D01*
G01*
X190552500Y-107925000D01*
G75*
G02*
X190350000Y-107722500I0J202500D01*
G01*
G37*
G36*
G01*
X191620000Y-107697500D02*
X191620000Y-106292500D01*
G75*
G02*
X191847500Y-106065000I227500J0D01*
G01*
X192302500Y-106065000D01*
G75*
G02*
X192530000Y-106292500I0J-227500D01*
G01*
X192530000Y-107697500D01*
G75*
G02*
X192302500Y-107925000I-227500J0D01*
G01*
X191847500Y-107925000D01*
G75*
G02*
X191620000Y-107697500I0J227500D01*
G01*
G37*
G36*
G01*
X161600000Y-98635000D02*
X161600000Y-96405000D01*
G75*
G02*
X162040000Y-95965000I440000J0D01*
G01*
X162920000Y-95965000D01*
G75*
G02*
X163360000Y-96405000I0J-440000D01*
G01*
X163360000Y-98635000D01*
G75*
G02*
X162920000Y-99075000I-440000J0D01*
G01*
X162040000Y-99075000D01*
G75*
G02*
X161600000Y-98635000I0J440000D01*
G01*
G37*
G36*
G01*
X163500000Y-98635000D02*
X163500000Y-96405000D01*
G75*
G02*
X163940000Y-95965000I440000J0D01*
G01*
X164820000Y-95965000D01*
G75*
G02*
X165260000Y-96405000I0J-440000D01*
G01*
X165260000Y-98635000D01*
G75*
G02*
X164820000Y-99075000I-440000J0D01*
G01*
X163940000Y-99075000D01*
G75*
G02*
X163500000Y-98635000I0J440000D01*
G01*
G37*
G36*
G01*
X165400000Y-98635000D02*
X165400000Y-96405000D01*
G75*
G02*
X165840000Y-95965000I440000J0D01*
G01*
X166720000Y-95965000D01*
G75*
G02*
X167160000Y-96405000I0J-440000D01*
G01*
X167160000Y-98635000D01*
G75*
G02*
X166720000Y-99075000I-440000J0D01*
G01*
X165840000Y-99075000D01*
G75*
G02*
X165400000Y-98635000I0J440000D01*
G01*
G37*
G36*
G01*
X167300000Y-98635000D02*
X167300000Y-96405000D01*
G75*
G02*
X167740000Y-95965000I440000J0D01*
G01*
X168620000Y-95965000D01*
G75*
G02*
X169060000Y-96405000I0J-440000D01*
G01*
X169060000Y-98635000D01*
G75*
G02*
X168620000Y-99075000I-440000J0D01*
G01*
X167740000Y-99075000D01*
G75*
G02*
X167300000Y-98635000I0J440000D01*
G01*
G37*
G36*
G01*
X169200000Y-98635000D02*
X169200000Y-96405000D01*
G75*
G02*
X169640000Y-95965000I440000J0D01*
G01*
X170520000Y-95965000D01*
G75*
G02*
X170960000Y-96405000I0J-440000D01*
G01*
X170960000Y-98635000D01*
G75*
G02*
X170520000Y-99075000I-440000J0D01*
G01*
X169640000Y-99075000D01*
G75*
G02*
X169200000Y-98635000I0J440000D01*
G01*
G37*
G36*
G01*
X169200000Y-113635000D02*
X169200000Y-111405000D01*
G75*
G02*
X169640000Y-110965000I440000J0D01*
G01*
X170520000Y-110965000D01*
G75*
G02*
X170960000Y-111405000I0J-440000D01*
G01*
X170960000Y-113635000D01*
G75*
G02*
X170520000Y-114075000I-440000J0D01*
G01*
X169640000Y-114075000D01*
G75*
G02*
X169200000Y-113635000I0J440000D01*
G01*
G37*
G36*
G01*
X167300000Y-113635000D02*
X167300000Y-111405000D01*
G75*
G02*
X167740000Y-110965000I440000J0D01*
G01*
X168620000Y-110965000D01*
G75*
G02*
X169060000Y-111405000I0J-440000D01*
G01*
X169060000Y-113635000D01*
G75*
G02*
X168620000Y-114075000I-440000J0D01*
G01*
X167740000Y-114075000D01*
G75*
G02*
X167300000Y-113635000I0J440000D01*
G01*
G37*
G36*
G01*
X165400000Y-113635000D02*
X165400000Y-111405000D01*
G75*
G02*
X165840000Y-110965000I440000J0D01*
G01*
X166720000Y-110965000D01*
G75*
G02*
X167160000Y-111405000I0J-440000D01*
G01*
X167160000Y-113635000D01*
G75*
G02*
X166720000Y-114075000I-440000J0D01*
G01*
X165840000Y-114075000D01*
G75*
G02*
X165400000Y-113635000I0J440000D01*
G01*
G37*
G36*
G01*
X163500000Y-113635000D02*
X163500000Y-111405000D01*
G75*
G02*
X163940000Y-110965000I440000J0D01*
G01*
X164820000Y-110965000D01*
G75*
G02*
X165260000Y-111405000I0J-440000D01*
G01*
X165260000Y-113635000D01*
G75*
G02*
X164820000Y-114075000I-440000J0D01*
G01*
X163940000Y-114075000D01*
G75*
G02*
X163500000Y-113635000I0J440000D01*
G01*
G37*
G36*
G01*
X161600000Y-113635000D02*
X161600000Y-111405000D01*
G75*
G02*
X162040000Y-110965000I440000J0D01*
G01*
X162920000Y-110965000D01*
G75*
G02*
X163360000Y-111405000I0J-440000D01*
G01*
X163360000Y-113635000D01*
G75*
G02*
X162920000Y-114075000I-440000J0D01*
G01*
X162040000Y-114075000D01*
G75*
G02*
X161600000Y-113635000I0J440000D01*
G01*
G37*
G36*
G01*
X116625000Y-98178848D02*
X116625000Y-96861152D01*
G75*
G02*
X116896152Y-96590000I271152J0D01*
G01*
X117763848Y-96590000D01*
G75*
G02*
X118035000Y-96861152I0J-271152D01*
G01*
X118035000Y-98178848D01*
G75*
G02*
X117763848Y-98450000I-271152J0D01*
G01*
X116896152Y-98450000D01*
G75*
G02*
X116625000Y-98178848I0J271152D01*
G01*
G37*
G36*
G01*
X113525000Y-98178848D02*
X113525000Y-96861152D01*
G75*
G02*
X113796152Y-96590000I271152J0D01*
G01*
X114663848Y-96590000D01*
G75*
G02*
X114935000Y-96861152I0J-271152D01*
G01*
X114935000Y-98178848D01*
G75*
G02*
X114663848Y-98450000I-271152J0D01*
G01*
X113796152Y-98450000D01*
G75*
G02*
X113525000Y-98178848I0J271152D01*
G01*
G37*
G36*
G01*
X160885000Y-127993404D02*
X160885000Y-129006596D01*
G75*
G02*
X160611596Y-129280000I-273404J0D01*
G01*
X159873404Y-129280000D01*
G75*
G02*
X159600000Y-129006596I0J273404D01*
G01*
X159600000Y-127993404D01*
G75*
G02*
X159873404Y-127720000I273404J0D01*
G01*
X160611596Y-127720000D01*
G75*
G02*
X160885000Y-127993404I0J-273404D01*
G01*
G37*
G36*
G01*
X162960000Y-127993404D02*
X162960000Y-129006596D01*
G75*
G02*
X162686596Y-129280000I-273404J0D01*
G01*
X161948404Y-129280000D01*
G75*
G02*
X161675000Y-129006596I0J273404D01*
G01*
X161675000Y-127993404D01*
G75*
G02*
X161948404Y-127720000I273404J0D01*
G01*
X162686596Y-127720000D01*
G75*
G02*
X162960000Y-127993404I0J-273404D01*
G01*
G37*
G36*
G01*
X181375000Y-123897500D02*
X181375000Y-123342500D01*
G75*
G02*
X181652500Y-123065000I277500J0D01*
G01*
X183257500Y-123065000D01*
G75*
G02*
X183535000Y-123342500I0J-277500D01*
G01*
X183535000Y-123897500D01*
G75*
G02*
X183257500Y-124175000I-277500J0D01*
G01*
X181652500Y-124175000D01*
G75*
G02*
X181375000Y-123897500I0J277500D01*
G01*
G37*
G36*
G01*
X175625000Y-123897500D02*
X175625000Y-123342500D01*
G75*
G02*
X175902500Y-123065000I277500J0D01*
G01*
X177507500Y-123065000D01*
G75*
G02*
X177785000Y-123342500I0J-277500D01*
G01*
X177785000Y-123897500D01*
G75*
G02*
X177507500Y-124175000I-277500J0D01*
G01*
X175902500Y-124175000D01*
G75*
G02*
X175625000Y-123897500I0J277500D01*
G01*
G37*
G36*
G01*
X181375000Y-120697500D02*
X181375000Y-120142500D01*
G75*
G02*
X181652500Y-119865000I277500J0D01*
G01*
X183257500Y-119865000D01*
G75*
G02*
X183535000Y-120142500I0J-277500D01*
G01*
X183535000Y-120697500D01*
G75*
G02*
X183257500Y-120975000I-277500J0D01*
G01*
X181652500Y-120975000D01*
G75*
G02*
X181375000Y-120697500I0J277500D01*
G01*
G37*
G36*
G01*
X175625000Y-120697500D02*
X175625000Y-120142500D01*
G75*
G02*
X175902500Y-119865000I277500J0D01*
G01*
X177507500Y-119865000D01*
G75*
G02*
X177785000Y-120142500I0J-277500D01*
G01*
X177785000Y-120697500D01*
G75*
G02*
X177507500Y-120975000I-277500J0D01*
G01*
X175902500Y-120975000D01*
G75*
G02*
X175625000Y-120697500I0J277500D01*
G01*
G37*
G36*
G01*
X163075000Y-123897500D02*
X163075000Y-123342500D01*
G75*
G02*
X163352500Y-123065000I277500J0D01*
G01*
X164957500Y-123065000D01*
G75*
G02*
X165235000Y-123342500I0J-277500D01*
G01*
X165235000Y-123897500D01*
G75*
G02*
X164957500Y-124175000I-277500J0D01*
G01*
X163352500Y-124175000D01*
G75*
G02*
X163075000Y-123897500I0J277500D01*
G01*
G37*
G36*
G01*
X157325000Y-123897500D02*
X157325000Y-123342500D01*
G75*
G02*
X157602500Y-123065000I277500J0D01*
G01*
X159207500Y-123065000D01*
G75*
G02*
X159485000Y-123342500I0J-277500D01*
G01*
X159485000Y-123897500D01*
G75*
G02*
X159207500Y-124175000I-277500J0D01*
G01*
X157602500Y-124175000D01*
G75*
G02*
X157325000Y-123897500I0J277500D01*
G01*
G37*
G36*
G01*
X163075000Y-120697500D02*
X163075000Y-120142500D01*
G75*
G02*
X163352500Y-119865000I277500J0D01*
G01*
X164957500Y-119865000D01*
G75*
G02*
X165235000Y-120142500I0J-277500D01*
G01*
X165235000Y-120697500D01*
G75*
G02*
X164957500Y-120975000I-277500J0D01*
G01*
X163352500Y-120975000D01*
G75*
G02*
X163075000Y-120697500I0J277500D01*
G01*
G37*
G36*
G01*
X157325000Y-120697500D02*
X157325000Y-120142500D01*
G75*
G02*
X157602500Y-119865000I277500J0D01*
G01*
X159207500Y-119865000D01*
G75*
G02*
X159485000Y-120142500I0J-277500D01*
G01*
X159485000Y-120697500D01*
G75*
G02*
X159207500Y-120975000I-277500J0D01*
G01*
X157602500Y-120975000D01*
G75*
G02*
X157325000Y-120697500I0J277500D01*
G01*
G37*
G36*
G01*
X135875000Y-123897500D02*
X135875000Y-123342500D01*
G75*
G02*
X136152500Y-123065000I277500J0D01*
G01*
X137757500Y-123065000D01*
G75*
G02*
X138035000Y-123342500I0J-277500D01*
G01*
X138035000Y-123897500D01*
G75*
G02*
X137757500Y-124175000I-277500J0D01*
G01*
X136152500Y-124175000D01*
G75*
G02*
X135875000Y-123897500I0J277500D01*
G01*
G37*
G36*
G01*
X130125000Y-123897500D02*
X130125000Y-123342500D01*
G75*
G02*
X130402500Y-123065000I277500J0D01*
G01*
X132007500Y-123065000D01*
G75*
G02*
X132285000Y-123342500I0J-277500D01*
G01*
X132285000Y-123897500D01*
G75*
G02*
X132007500Y-124175000I-277500J0D01*
G01*
X130402500Y-124175000D01*
G75*
G02*
X130125000Y-123897500I0J277500D01*
G01*
G37*
G36*
G01*
X135875000Y-120697500D02*
X135875000Y-120142500D01*
G75*
G02*
X136152500Y-119865000I277500J0D01*
G01*
X137757500Y-119865000D01*
G75*
G02*
X138035000Y-120142500I0J-277500D01*
G01*
X138035000Y-120697500D01*
G75*
G02*
X137757500Y-120975000I-277500J0D01*
G01*
X136152500Y-120975000D01*
G75*
G02*
X135875000Y-120697500I0J277500D01*
G01*
G37*
G36*
G01*
X130125000Y-120697500D02*
X130125000Y-120142500D01*
G75*
G02*
X130402500Y-119865000I277500J0D01*
G01*
X132007500Y-119865000D01*
G75*
G02*
X132285000Y-120142500I0J-277500D01*
G01*
X132285000Y-120697500D01*
G75*
G02*
X132007500Y-120975000I-277500J0D01*
G01*
X130402500Y-120975000D01*
G75*
G02*
X130125000Y-120697500I0J277500D01*
G01*
G37*
G36*
G01*
X194586596Y-99825000D02*
X193573404Y-99825000D01*
G75*
G02*
X193300000Y-99551596I0J273404D01*
G01*
X193300000Y-98813404D01*
G75*
G02*
X193573404Y-98540000I273404J0D01*
G01*
X194586596Y-98540000D01*
G75*
G02*
X194860000Y-98813404I0J-273404D01*
G01*
X194860000Y-99551596D01*
G75*
G02*
X194586596Y-99825000I-273404J0D01*
G01*
G37*
G36*
G01*
X194586596Y-101900000D02*
X193573404Y-101900000D01*
G75*
G02*
X193300000Y-101626596I0J273404D01*
G01*
X193300000Y-100888404D01*
G75*
G02*
X193573404Y-100615000I273404J0D01*
G01*
X194586596Y-100615000D01*
G75*
G02*
X194860000Y-100888404I0J-273404D01*
G01*
X194860000Y-101626596D01*
G75*
G02*
X194586596Y-101900000I-273404J0D01*
G01*
G37*
G36*
G01*
X120355000Y-128252500D02*
X120355000Y-126047500D01*
G75*
G02*
X120482500Y-125920000I127500J0D01*
G01*
X120737500Y-125920000D01*
G75*
G02*
X120865000Y-126047500I0J-127500D01*
G01*
X120865000Y-128252500D01*
G75*
G02*
X120737500Y-128380000I-127500J0D01*
G01*
X120482500Y-128380000D01*
G75*
G02*
X120355000Y-128252500I0J127500D01*
G01*
G37*
G36*
G01*
X121005000Y-128252500D02*
X121005000Y-126047500D01*
G75*
G02*
X121132500Y-125920000I127500J0D01*
G01*
X121387500Y-125920000D01*
G75*
G02*
X121515000Y-126047500I0J-127500D01*
G01*
X121515000Y-128252500D01*
G75*
G02*
X121387500Y-128380000I-127500J0D01*
G01*
X121132500Y-128380000D01*
G75*
G02*
X121005000Y-128252500I0J127500D01*
G01*
G37*
G36*
G01*
X121655000Y-128252500D02*
X121655000Y-126047500D01*
G75*
G02*
X121782500Y-125920000I127500J0D01*
G01*
X122037500Y-125920000D01*
G75*
G02*
X122165000Y-126047500I0J-127500D01*
G01*
X122165000Y-128252500D01*
G75*
G02*
X122037500Y-128380000I-127500J0D01*
G01*
X121782500Y-128380000D01*
G75*
G02*
X121655000Y-128252500I0J127500D01*
G01*
G37*
G36*
G01*
X122305000Y-128252500D02*
X122305000Y-126047500D01*
G75*
G02*
X122432500Y-125920000I127500J0D01*
G01*
X122687500Y-125920000D01*
G75*
G02*
X122815000Y-126047500I0J-127500D01*
G01*
X122815000Y-128252500D01*
G75*
G02*
X122687500Y-128380000I-127500J0D01*
G01*
X122432500Y-128380000D01*
G75*
G02*
X122305000Y-128252500I0J127500D01*
G01*
G37*
G36*
G01*
X122955000Y-128252500D02*
X122955000Y-126047500D01*
G75*
G02*
X123082500Y-125920000I127500J0D01*
G01*
X123337500Y-125920000D01*
G75*
G02*
X123465000Y-126047500I0J-127500D01*
G01*
X123465000Y-128252500D01*
G75*
G02*
X123337500Y-128380000I-127500J0D01*
G01*
X123082500Y-128380000D01*
G75*
G02*
X122955000Y-128252500I0J127500D01*
G01*
G37*
D10*
X119410000Y-127650000D03*
X124410000Y-127650000D03*
D11*
X118410000Y-130350000D03*
G36*
G01*
X120105000Y-131125000D02*
X120105000Y-129575000D01*
G75*
G02*
X120160000Y-129520000I55000J0D01*
G01*
X121660000Y-129520000D01*
G75*
G02*
X121715000Y-129575000I0J-55000D01*
G01*
X121715000Y-131125000D01*
G75*
G02*
X121660000Y-131180000I-55000J0D01*
G01*
X120160000Y-131180000D01*
G75*
G02*
X120105000Y-131125000I0J55000D01*
G01*
G37*
G36*
G01*
X122105000Y-131125000D02*
X122105000Y-129575000D01*
G75*
G02*
X122160000Y-129520000I55000J0D01*
G01*
X123660000Y-129520000D01*
G75*
G02*
X123715000Y-129575000I0J-55000D01*
G01*
X123715000Y-131125000D01*
G75*
G02*
X123660000Y-131180000I-55000J0D01*
G01*
X122160000Y-131180000D01*
G75*
G02*
X122105000Y-131125000I0J55000D01*
G01*
G37*
X125410000Y-130350000D03*
G36*
G01*
X189547500Y-116915000D02*
X189192500Y-116915000D01*
G75*
G02*
X189015000Y-116737500I0J177500D01*
G01*
X189015000Y-115882500D01*
G75*
G02*
X189192500Y-115705000I177500J0D01*
G01*
X189547500Y-115705000D01*
G75*
G02*
X189725000Y-115882500I0J-177500D01*
G01*
X189725000Y-116737500D01*
G75*
G02*
X189547500Y-116915000I-177500J0D01*
G01*
G37*
G36*
G01*
X190247500Y-116915000D02*
X189992500Y-116915000D01*
G75*
G02*
X189865000Y-116787500I0J127500D01*
G01*
X189865000Y-115832500D01*
G75*
G02*
X189992500Y-115705000I127500J0D01*
G01*
X190247500Y-115705000D01*
G75*
G02*
X190375000Y-115832500I0J-127500D01*
G01*
X190375000Y-116787500D01*
G75*
G02*
X190247500Y-116915000I-127500J0D01*
G01*
G37*
G36*
G01*
X191047500Y-116915000D02*
X190692500Y-116915000D01*
G75*
G02*
X190515000Y-116737500I0J177500D01*
G01*
X190515000Y-115882500D01*
G75*
G02*
X190692500Y-115705000I177500J0D01*
G01*
X191047500Y-115705000D01*
G75*
G02*
X191225000Y-115882500I0J-177500D01*
G01*
X191225000Y-116737500D01*
G75*
G02*
X191047500Y-116915000I-177500J0D01*
G01*
G37*
G36*
G01*
X189547500Y-119215000D02*
X189192500Y-119215000D01*
G75*
G02*
X189015000Y-119037500I0J177500D01*
G01*
X189015000Y-118182500D01*
G75*
G02*
X189192500Y-118005000I177500J0D01*
G01*
X189547500Y-118005000D01*
G75*
G02*
X189725000Y-118182500I0J-177500D01*
G01*
X189725000Y-119037500D01*
G75*
G02*
X189547500Y-119215000I-177500J0D01*
G01*
G37*
G36*
G01*
X190247500Y-119215000D02*
X189992500Y-119215000D01*
G75*
G02*
X189865000Y-119087500I0J127500D01*
G01*
X189865000Y-118132500D01*
G75*
G02*
X189992500Y-118005000I127500J0D01*
G01*
X190247500Y-118005000D01*
G75*
G02*
X190375000Y-118132500I0J-127500D01*
G01*
X190375000Y-119087500D01*
G75*
G02*
X190247500Y-119215000I-127500J0D01*
G01*
G37*
G36*
G01*
X191047500Y-119215000D02*
X190692500Y-119215000D01*
G75*
G02*
X190515000Y-119037500I0J177500D01*
G01*
X190515000Y-118182500D01*
G75*
G02*
X190692500Y-118005000I177500J0D01*
G01*
X191047500Y-118005000D01*
G75*
G02*
X191225000Y-118182500I0J-177500D01*
G01*
X191225000Y-119037500D01*
G75*
G02*
X191047500Y-119215000I-177500J0D01*
G01*
G37*
G36*
G01*
X145765000Y-127965000D02*
X146120000Y-127965000D01*
G75*
G02*
X146297500Y-128142500I0J-177500D01*
G01*
X146297500Y-128997500D01*
G75*
G02*
X146120000Y-129175000I-177500J0D01*
G01*
X145765000Y-129175000D01*
G75*
G02*
X145587500Y-128997500I0J177500D01*
G01*
X145587500Y-128142500D01*
G75*
G02*
X145765000Y-127965000I177500J0D01*
G01*
G37*
G36*
G01*
X145065000Y-127965000D02*
X145320000Y-127965000D01*
G75*
G02*
X145447500Y-128092500I0J-127500D01*
G01*
X145447500Y-129047500D01*
G75*
G02*
X145320000Y-129175000I-127500J0D01*
G01*
X145065000Y-129175000D01*
G75*
G02*
X144937500Y-129047500I0J127500D01*
G01*
X144937500Y-128092500D01*
G75*
G02*
X145065000Y-127965000I127500J0D01*
G01*
G37*
G36*
G01*
X144265000Y-127965000D02*
X144620000Y-127965000D01*
G75*
G02*
X144797500Y-128142500I0J-177500D01*
G01*
X144797500Y-128997500D01*
G75*
G02*
X144620000Y-129175000I-177500J0D01*
G01*
X144265000Y-129175000D01*
G75*
G02*
X144087500Y-128997500I0J177500D01*
G01*
X144087500Y-128142500D01*
G75*
G02*
X144265000Y-127965000I177500J0D01*
G01*
G37*
G36*
G01*
X145765000Y-125665000D02*
X146120000Y-125665000D01*
G75*
G02*
X146297500Y-125842500I0J-177500D01*
G01*
X146297500Y-126697500D01*
G75*
G02*
X146120000Y-126875000I-177500J0D01*
G01*
X145765000Y-126875000D01*
G75*
G02*
X145587500Y-126697500I0J177500D01*
G01*
X145587500Y-125842500D01*
G75*
G02*
X145765000Y-125665000I177500J0D01*
G01*
G37*
G36*
G01*
X145065000Y-125665000D02*
X145320000Y-125665000D01*
G75*
G02*
X145447500Y-125792500I0J-127500D01*
G01*
X145447500Y-126747500D01*
G75*
G02*
X145320000Y-126875000I-127500J0D01*
G01*
X145065000Y-126875000D01*
G75*
G02*
X144937500Y-126747500I0J127500D01*
G01*
X144937500Y-125792500D01*
G75*
G02*
X145065000Y-125665000I127500J0D01*
G01*
G37*
G36*
G01*
X144265000Y-125665000D02*
X144620000Y-125665000D01*
G75*
G02*
X144797500Y-125842500I0J-177500D01*
G01*
X144797500Y-126697500D01*
G75*
G02*
X144620000Y-126875000I-177500J0D01*
G01*
X144265000Y-126875000D01*
G75*
G02*
X144087500Y-126697500I0J177500D01*
G01*
X144087500Y-125842500D01*
G75*
G02*
X144265000Y-125665000I177500J0D01*
G01*
G37*
G36*
G01*
X150740000Y-127965000D02*
X151095000Y-127965000D01*
G75*
G02*
X151272500Y-128142500I0J-177500D01*
G01*
X151272500Y-128997500D01*
G75*
G02*
X151095000Y-129175000I-177500J0D01*
G01*
X150740000Y-129175000D01*
G75*
G02*
X150562500Y-128997500I0J177500D01*
G01*
X150562500Y-128142500D01*
G75*
G02*
X150740000Y-127965000I177500J0D01*
G01*
G37*
G36*
G01*
X150040000Y-127965000D02*
X150295000Y-127965000D01*
G75*
G02*
X150422500Y-128092500I0J-127500D01*
G01*
X150422500Y-129047500D01*
G75*
G02*
X150295000Y-129175000I-127500J0D01*
G01*
X150040000Y-129175000D01*
G75*
G02*
X149912500Y-129047500I0J127500D01*
G01*
X149912500Y-128092500D01*
G75*
G02*
X150040000Y-127965000I127500J0D01*
G01*
G37*
G36*
G01*
X149240000Y-127965000D02*
X149595000Y-127965000D01*
G75*
G02*
X149772500Y-128142500I0J-177500D01*
G01*
X149772500Y-128997500D01*
G75*
G02*
X149595000Y-129175000I-177500J0D01*
G01*
X149240000Y-129175000D01*
G75*
G02*
X149062500Y-128997500I0J177500D01*
G01*
X149062500Y-128142500D01*
G75*
G02*
X149240000Y-127965000I177500J0D01*
G01*
G37*
G36*
G01*
X150740000Y-125665000D02*
X151095000Y-125665000D01*
G75*
G02*
X151272500Y-125842500I0J-177500D01*
G01*
X151272500Y-126697500D01*
G75*
G02*
X151095000Y-126875000I-177500J0D01*
G01*
X150740000Y-126875000D01*
G75*
G02*
X150562500Y-126697500I0J177500D01*
G01*
X150562500Y-125842500D01*
G75*
G02*
X150740000Y-125665000I177500J0D01*
G01*
G37*
G36*
G01*
X150040000Y-125665000D02*
X150295000Y-125665000D01*
G75*
G02*
X150422500Y-125792500I0J-127500D01*
G01*
X150422500Y-126747500D01*
G75*
G02*
X150295000Y-126875000I-127500J0D01*
G01*
X150040000Y-126875000D01*
G75*
G02*
X149912500Y-126747500I0J127500D01*
G01*
X149912500Y-125792500D01*
G75*
G02*
X150040000Y-125665000I127500J0D01*
G01*
G37*
G36*
G01*
X149240000Y-125665000D02*
X149595000Y-125665000D01*
G75*
G02*
X149772500Y-125842500I0J-177500D01*
G01*
X149772500Y-126697500D01*
G75*
G02*
X149595000Y-126875000I-177500J0D01*
G01*
X149240000Y-126875000D01*
G75*
G02*
X149062500Y-126697500I0J177500D01*
G01*
X149062500Y-125842500D01*
G75*
G02*
X149240000Y-125665000I177500J0D01*
G01*
G37*
G36*
G01*
X150307500Y-116350000D02*
X149152500Y-116350000D01*
G75*
G02*
X149000000Y-116197500I0J152500D01*
G01*
X149000000Y-115892500D01*
G75*
G02*
X149152500Y-115740000I152500J0D01*
G01*
X150307500Y-115740000D01*
G75*
G02*
X150460000Y-115892500I0J-152500D01*
G01*
X150460000Y-116197500D01*
G75*
G02*
X150307500Y-116350000I-152500J0D01*
G01*
G37*
G36*
G01*
X150332500Y-117000000D02*
X149127500Y-117000000D01*
G75*
G02*
X149000000Y-116872500I0J127500D01*
G01*
X149000000Y-116617500D01*
G75*
G02*
X149127500Y-116490000I127500J0D01*
G01*
X150332500Y-116490000D01*
G75*
G02*
X150460000Y-116617500I0J-127500D01*
G01*
X150460000Y-116872500D01*
G75*
G02*
X150332500Y-117000000I-127500J0D01*
G01*
G37*
G36*
G01*
X150332500Y-117650000D02*
X149127500Y-117650000D01*
G75*
G02*
X149000000Y-117522500I0J127500D01*
G01*
X149000000Y-117267500D01*
G75*
G02*
X149127500Y-117140000I127500J0D01*
G01*
X150332500Y-117140000D01*
G75*
G02*
X150460000Y-117267500I0J-127500D01*
G01*
X150460000Y-117522500D01*
G75*
G02*
X150332500Y-117650000I-127500J0D01*
G01*
G37*
G36*
G01*
X150307500Y-118400000D02*
X149152500Y-118400000D01*
G75*
G02*
X149000000Y-118247500I0J152500D01*
G01*
X149000000Y-117942500D01*
G75*
G02*
X149152500Y-117790000I152500J0D01*
G01*
X150307500Y-117790000D01*
G75*
G02*
X150460000Y-117942500I0J-152500D01*
G01*
X150460000Y-118247500D01*
G75*
G02*
X150307500Y-118400000I-152500J0D01*
G01*
G37*
G36*
G01*
X146207500Y-118400000D02*
X145052500Y-118400000D01*
G75*
G02*
X144900000Y-118247500I0J152500D01*
G01*
X144900000Y-117942500D01*
G75*
G02*
X145052500Y-117790000I152500J0D01*
G01*
X146207500Y-117790000D01*
G75*
G02*
X146360000Y-117942500I0J-152500D01*
G01*
X146360000Y-118247500D01*
G75*
G02*
X146207500Y-118400000I-152500J0D01*
G01*
G37*
G36*
G01*
X146232500Y-117650000D02*
X145027500Y-117650000D01*
G75*
G02*
X144900000Y-117522500I0J127500D01*
G01*
X144900000Y-117267500D01*
G75*
G02*
X145027500Y-117140000I127500J0D01*
G01*
X146232500Y-117140000D01*
G75*
G02*
X146360000Y-117267500I0J-127500D01*
G01*
X146360000Y-117522500D01*
G75*
G02*
X146232500Y-117650000I-127500J0D01*
G01*
G37*
G36*
G01*
X146232500Y-117000000D02*
X145027500Y-117000000D01*
G75*
G02*
X144900000Y-116872500I0J127500D01*
G01*
X144900000Y-116617500D01*
G75*
G02*
X145027500Y-116490000I127500J0D01*
G01*
X146232500Y-116490000D01*
G75*
G02*
X146360000Y-116617500I0J-127500D01*
G01*
X146360000Y-116872500D01*
G75*
G02*
X146232500Y-117000000I-127500J0D01*
G01*
G37*
G36*
G01*
X146207500Y-116350000D02*
X145052500Y-116350000D01*
G75*
G02*
X144900000Y-116197500I0J152500D01*
G01*
X144900000Y-115892500D01*
G75*
G02*
X145052500Y-115740000I152500J0D01*
G01*
X146207500Y-115740000D01*
G75*
G02*
X146360000Y-115892500I0J-152500D01*
G01*
X146360000Y-116197500D01*
G75*
G02*
X146207500Y-116350000I-152500J0D01*
G01*
G37*
G36*
G01*
X170975000Y-117447500D02*
X170975000Y-117092500D01*
G75*
G02*
X171152500Y-116915000I177500J0D01*
G01*
X172007500Y-116915000D01*
G75*
G02*
X172185000Y-117092500I0J-177500D01*
G01*
X172185000Y-117447500D01*
G75*
G02*
X172007500Y-117625000I-177500J0D01*
G01*
X171152500Y-117625000D01*
G75*
G02*
X170975000Y-117447500I0J177500D01*
G01*
G37*
G36*
G01*
X170975000Y-118147500D02*
X170975000Y-117892500D01*
G75*
G02*
X171102500Y-117765000I127500J0D01*
G01*
X172057500Y-117765000D01*
G75*
G02*
X172185000Y-117892500I0J-127500D01*
G01*
X172185000Y-118147500D01*
G75*
G02*
X172057500Y-118275000I-127500J0D01*
G01*
X171102500Y-118275000D01*
G75*
G02*
X170975000Y-118147500I0J127500D01*
G01*
G37*
G36*
G01*
X170975000Y-118947500D02*
X170975000Y-118592500D01*
G75*
G02*
X171152500Y-118415000I177500J0D01*
G01*
X172007500Y-118415000D01*
G75*
G02*
X172185000Y-118592500I0J-177500D01*
G01*
X172185000Y-118947500D01*
G75*
G02*
X172007500Y-119125000I-177500J0D01*
G01*
X171152500Y-119125000D01*
G75*
G02*
X170975000Y-118947500I0J177500D01*
G01*
G37*
G36*
G01*
X168675000Y-117447500D02*
X168675000Y-117092500D01*
G75*
G02*
X168852500Y-116915000I177500J0D01*
G01*
X169707500Y-116915000D01*
G75*
G02*
X169885000Y-117092500I0J-177500D01*
G01*
X169885000Y-117447500D01*
G75*
G02*
X169707500Y-117625000I-177500J0D01*
G01*
X168852500Y-117625000D01*
G75*
G02*
X168675000Y-117447500I0J177500D01*
G01*
G37*
G36*
G01*
X168675000Y-118147500D02*
X168675000Y-117892500D01*
G75*
G02*
X168802500Y-117765000I127500J0D01*
G01*
X169757500Y-117765000D01*
G75*
G02*
X169885000Y-117892500I0J-127500D01*
G01*
X169885000Y-118147500D01*
G75*
G02*
X169757500Y-118275000I-127500J0D01*
G01*
X168802500Y-118275000D01*
G75*
G02*
X168675000Y-118147500I0J127500D01*
G01*
G37*
G36*
G01*
X168675000Y-118947500D02*
X168675000Y-118592500D01*
G75*
G02*
X168852500Y-118415000I177500J0D01*
G01*
X169707500Y-118415000D01*
G75*
G02*
X169885000Y-118592500I0J-177500D01*
G01*
X169885000Y-118947500D01*
G75*
G02*
X169707500Y-119125000I-177500J0D01*
G01*
X168852500Y-119125000D01*
G75*
G02*
X168675000Y-118947500I0J177500D01*
G01*
G37*
G36*
G01*
X103740000Y-96692500D02*
X103740000Y-98097500D01*
G75*
G02*
X103512500Y-98325000I-227500J0D01*
G01*
X103057500Y-98325000D01*
G75*
G02*
X102830000Y-98097500I0J227500D01*
G01*
X102830000Y-96692500D01*
G75*
G02*
X103057500Y-96465000I227500J0D01*
G01*
X103512500Y-96465000D01*
G75*
G02*
X103740000Y-96692500I0J-227500D01*
G01*
G37*
G36*
G01*
X105010000Y-96667500D02*
X105010000Y-98122500D01*
G75*
G02*
X104807500Y-98325000I-202500J0D01*
G01*
X104402500Y-98325000D01*
G75*
G02*
X104200000Y-98122500I0J202500D01*
G01*
X104200000Y-96667500D01*
G75*
G02*
X104402500Y-96465000I202500J0D01*
G01*
X104807500Y-96465000D01*
G75*
G02*
X105010000Y-96667500I0J-202500D01*
G01*
G37*
G36*
G01*
X106280000Y-96667500D02*
X106280000Y-98122500D01*
G75*
G02*
X106077500Y-98325000I-202500J0D01*
G01*
X105672500Y-98325000D01*
G75*
G02*
X105470000Y-98122500I0J202500D01*
G01*
X105470000Y-96667500D01*
G75*
G02*
X105672500Y-96465000I202500J0D01*
G01*
X106077500Y-96465000D01*
G75*
G02*
X106280000Y-96667500I0J-202500D01*
G01*
G37*
G36*
G01*
X107550000Y-96667500D02*
X107550000Y-98122500D01*
G75*
G02*
X107347500Y-98325000I-202500J0D01*
G01*
X106942500Y-98325000D01*
G75*
G02*
X106740000Y-98122500I0J202500D01*
G01*
X106740000Y-96667500D01*
G75*
G02*
X106942500Y-96465000I202500J0D01*
G01*
X107347500Y-96465000D01*
G75*
G02*
X107550000Y-96667500I0J-202500D01*
G01*
G37*
G36*
G01*
X108820000Y-96667500D02*
X108820000Y-98122500D01*
G75*
G02*
X108617500Y-98325000I-202500J0D01*
G01*
X108212500Y-98325000D01*
G75*
G02*
X108010000Y-98122500I0J202500D01*
G01*
X108010000Y-96667500D01*
G75*
G02*
X108212500Y-96465000I202500J0D01*
G01*
X108617500Y-96465000D01*
G75*
G02*
X108820000Y-96667500I0J-202500D01*
G01*
G37*
G36*
G01*
X110090000Y-96667500D02*
X110090000Y-98122500D01*
G75*
G02*
X109887500Y-98325000I-202500J0D01*
G01*
X109482500Y-98325000D01*
G75*
G02*
X109280000Y-98122500I0J202500D01*
G01*
X109280000Y-96667500D01*
G75*
G02*
X109482500Y-96465000I202500J0D01*
G01*
X109887500Y-96465000D01*
G75*
G02*
X110090000Y-96667500I0J-202500D01*
G01*
G37*
G36*
G01*
X111360000Y-96667500D02*
X111360000Y-98122500D01*
G75*
G02*
X111157500Y-98325000I-202500J0D01*
G01*
X110752500Y-98325000D01*
G75*
G02*
X110550000Y-98122500I0J202500D01*
G01*
X110550000Y-96667500D01*
G75*
G02*
X110752500Y-96465000I202500J0D01*
G01*
X111157500Y-96465000D01*
G75*
G02*
X111360000Y-96667500I0J-202500D01*
G01*
G37*
G36*
G01*
X112730000Y-96692500D02*
X112730000Y-98097500D01*
G75*
G02*
X112502500Y-98325000I-227500J0D01*
G01*
X112047500Y-98325000D01*
G75*
G02*
X111820000Y-98097500I0J227500D01*
G01*
X111820000Y-96692500D01*
G75*
G02*
X112047500Y-96465000I227500J0D01*
G01*
X112502500Y-96465000D01*
G75*
G02*
X112730000Y-96692500I0J-227500D01*
G01*
G37*
G36*
G01*
X112730000Y-102342500D02*
X112730000Y-103747500D01*
G75*
G02*
X112502500Y-103975000I-227500J0D01*
G01*
X112047500Y-103975000D01*
G75*
G02*
X111820000Y-103747500I0J227500D01*
G01*
X111820000Y-102342500D01*
G75*
G02*
X112047500Y-102115000I227500J0D01*
G01*
X112502500Y-102115000D01*
G75*
G02*
X112730000Y-102342500I0J-227500D01*
G01*
G37*
G36*
G01*
X111360000Y-102317500D02*
X111360000Y-103772500D01*
G75*
G02*
X111157500Y-103975000I-202500J0D01*
G01*
X110752500Y-103975000D01*
G75*
G02*
X110550000Y-103772500I0J202500D01*
G01*
X110550000Y-102317500D01*
G75*
G02*
X110752500Y-102115000I202500J0D01*
G01*
X111157500Y-102115000D01*
G75*
G02*
X111360000Y-102317500I0J-202500D01*
G01*
G37*
G36*
G01*
X110090000Y-102317500D02*
X110090000Y-103772500D01*
G75*
G02*
X109887500Y-103975000I-202500J0D01*
G01*
X109482500Y-103975000D01*
G75*
G02*
X109280000Y-103772500I0J202500D01*
G01*
X109280000Y-102317500D01*
G75*
G02*
X109482500Y-102115000I202500J0D01*
G01*
X109887500Y-102115000D01*
G75*
G02*
X110090000Y-102317500I0J-202500D01*
G01*
G37*
G36*
G01*
X108820000Y-102317500D02*
X108820000Y-103772500D01*
G75*
G02*
X108617500Y-103975000I-202500J0D01*
G01*
X108212500Y-103975000D01*
G75*
G02*
X108010000Y-103772500I0J202500D01*
G01*
X108010000Y-102317500D01*
G75*
G02*
X108212500Y-102115000I202500J0D01*
G01*
X108617500Y-102115000D01*
G75*
G02*
X108820000Y-102317500I0J-202500D01*
G01*
G37*
G36*
G01*
X107550000Y-102317500D02*
X107550000Y-103772500D01*
G75*
G02*
X107347500Y-103975000I-202500J0D01*
G01*
X106942500Y-103975000D01*
G75*
G02*
X106740000Y-103772500I0J202500D01*
G01*
X106740000Y-102317500D01*
G75*
G02*
X106942500Y-102115000I202500J0D01*
G01*
X107347500Y-102115000D01*
G75*
G02*
X107550000Y-102317500I0J-202500D01*
G01*
G37*
G36*
G01*
X106280000Y-102317500D02*
X106280000Y-103772500D01*
G75*
G02*
X106077500Y-103975000I-202500J0D01*
G01*
X105672500Y-103975000D01*
G75*
G02*
X105470000Y-103772500I0J202500D01*
G01*
X105470000Y-102317500D01*
G75*
G02*
X105672500Y-102115000I202500J0D01*
G01*
X106077500Y-102115000D01*
G75*
G02*
X106280000Y-102317500I0J-202500D01*
G01*
G37*
G36*
G01*
X105010000Y-102317500D02*
X105010000Y-103772500D01*
G75*
G02*
X104807500Y-103975000I-202500J0D01*
G01*
X104402500Y-103975000D01*
G75*
G02*
X104200000Y-103772500I0J202500D01*
G01*
X104200000Y-102317500D01*
G75*
G02*
X104402500Y-102115000I202500J0D01*
G01*
X104807500Y-102115000D01*
G75*
G02*
X105010000Y-102317500I0J-202500D01*
G01*
G37*
G36*
G01*
X103740000Y-102342500D02*
X103740000Y-103747500D01*
G75*
G02*
X103512500Y-103975000I-227500J0D01*
G01*
X103057500Y-103975000D01*
G75*
G02*
X102830000Y-103747500I0J227500D01*
G01*
X102830000Y-102342500D01*
G75*
G02*
X103057500Y-102115000I227500J0D01*
G01*
X103512500Y-102115000D01*
G75*
G02*
X103740000Y-102342500I0J-227500D01*
G01*
G37*
G36*
G01*
X167140000Y-84992500D02*
X167140000Y-86397500D01*
G75*
G02*
X166912500Y-86625000I-227500J0D01*
G01*
X166457500Y-86625000D01*
G75*
G02*
X166230000Y-86397500I0J227500D01*
G01*
X166230000Y-84992500D01*
G75*
G02*
X166457500Y-84765000I227500J0D01*
G01*
X166912500Y-84765000D01*
G75*
G02*
X167140000Y-84992500I0J-227500D01*
G01*
G37*
G36*
G01*
X168410000Y-84967500D02*
X168410000Y-86422500D01*
G75*
G02*
X168207500Y-86625000I-202500J0D01*
G01*
X167802500Y-86625000D01*
G75*
G02*
X167600000Y-86422500I0J202500D01*
G01*
X167600000Y-84967500D01*
G75*
G02*
X167802500Y-84765000I202500J0D01*
G01*
X168207500Y-84765000D01*
G75*
G02*
X168410000Y-84967500I0J-202500D01*
G01*
G37*
G36*
G01*
X169680000Y-84967500D02*
X169680000Y-86422500D01*
G75*
G02*
X169477500Y-86625000I-202500J0D01*
G01*
X169072500Y-86625000D01*
G75*
G02*
X168870000Y-86422500I0J202500D01*
G01*
X168870000Y-84967500D01*
G75*
G02*
X169072500Y-84765000I202500J0D01*
G01*
X169477500Y-84765000D01*
G75*
G02*
X169680000Y-84967500I0J-202500D01*
G01*
G37*
G36*
G01*
X170950000Y-84967500D02*
X170950000Y-86422500D01*
G75*
G02*
X170747500Y-86625000I-202500J0D01*
G01*
X170342500Y-86625000D01*
G75*
G02*
X170140000Y-86422500I0J202500D01*
G01*
X170140000Y-84967500D01*
G75*
G02*
X170342500Y-84765000I202500J0D01*
G01*
X170747500Y-84765000D01*
G75*
G02*
X170950000Y-84967500I0J-202500D01*
G01*
G37*
G36*
G01*
X172220000Y-84967500D02*
X172220000Y-86422500D01*
G75*
G02*
X172017500Y-86625000I-202500J0D01*
G01*
X171612500Y-86625000D01*
G75*
G02*
X171410000Y-86422500I0J202500D01*
G01*
X171410000Y-84967500D01*
G75*
G02*
X171612500Y-84765000I202500J0D01*
G01*
X172017500Y-84765000D01*
G75*
G02*
X172220000Y-84967500I0J-202500D01*
G01*
G37*
G36*
G01*
X173490000Y-84967500D02*
X173490000Y-86422500D01*
G75*
G02*
X173287500Y-86625000I-202500J0D01*
G01*
X172882500Y-86625000D01*
G75*
G02*
X172680000Y-86422500I0J202500D01*
G01*
X172680000Y-84967500D01*
G75*
G02*
X172882500Y-84765000I202500J0D01*
G01*
X173287500Y-84765000D01*
G75*
G02*
X173490000Y-84967500I0J-202500D01*
G01*
G37*
G36*
G01*
X174760000Y-84967500D02*
X174760000Y-86422500D01*
G75*
G02*
X174557500Y-86625000I-202500J0D01*
G01*
X174152500Y-86625000D01*
G75*
G02*
X173950000Y-86422500I0J202500D01*
G01*
X173950000Y-84967500D01*
G75*
G02*
X174152500Y-84765000I202500J0D01*
G01*
X174557500Y-84765000D01*
G75*
G02*
X174760000Y-84967500I0J-202500D01*
G01*
G37*
G36*
G01*
X176130000Y-84992500D02*
X176130000Y-86397500D01*
G75*
G02*
X175902500Y-86625000I-227500J0D01*
G01*
X175447500Y-86625000D01*
G75*
G02*
X175220000Y-86397500I0J227500D01*
G01*
X175220000Y-84992500D01*
G75*
G02*
X175447500Y-84765000I227500J0D01*
G01*
X175902500Y-84765000D01*
G75*
G02*
X176130000Y-84992500I0J-227500D01*
G01*
G37*
G36*
G01*
X176130000Y-90642500D02*
X176130000Y-92047500D01*
G75*
G02*
X175902500Y-92275000I-227500J0D01*
G01*
X175447500Y-92275000D01*
G75*
G02*
X175220000Y-92047500I0J227500D01*
G01*
X175220000Y-90642500D01*
G75*
G02*
X175447500Y-90415000I227500J0D01*
G01*
X175902500Y-90415000D01*
G75*
G02*
X176130000Y-90642500I0J-227500D01*
G01*
G37*
G36*
G01*
X174760000Y-90617500D02*
X174760000Y-92072500D01*
G75*
G02*
X174557500Y-92275000I-202500J0D01*
G01*
X174152500Y-92275000D01*
G75*
G02*
X173950000Y-92072500I0J202500D01*
G01*
X173950000Y-90617500D01*
G75*
G02*
X174152500Y-90415000I202500J0D01*
G01*
X174557500Y-90415000D01*
G75*
G02*
X174760000Y-90617500I0J-202500D01*
G01*
G37*
G36*
G01*
X173490000Y-90617500D02*
X173490000Y-92072500D01*
G75*
G02*
X173287500Y-92275000I-202500J0D01*
G01*
X172882500Y-92275000D01*
G75*
G02*
X172680000Y-92072500I0J202500D01*
G01*
X172680000Y-90617500D01*
G75*
G02*
X172882500Y-90415000I202500J0D01*
G01*
X173287500Y-90415000D01*
G75*
G02*
X173490000Y-90617500I0J-202500D01*
G01*
G37*
G36*
G01*
X172220000Y-90617500D02*
X172220000Y-92072500D01*
G75*
G02*
X172017500Y-92275000I-202500J0D01*
G01*
X171612500Y-92275000D01*
G75*
G02*
X171410000Y-92072500I0J202500D01*
G01*
X171410000Y-90617500D01*
G75*
G02*
X171612500Y-90415000I202500J0D01*
G01*
X172017500Y-90415000D01*
G75*
G02*
X172220000Y-90617500I0J-202500D01*
G01*
G37*
G36*
G01*
X170950000Y-90617500D02*
X170950000Y-92072500D01*
G75*
G02*
X170747500Y-92275000I-202500J0D01*
G01*
X170342500Y-92275000D01*
G75*
G02*
X170140000Y-92072500I0J202500D01*
G01*
X170140000Y-90617500D01*
G75*
G02*
X170342500Y-90415000I202500J0D01*
G01*
X170747500Y-90415000D01*
G75*
G02*
X170950000Y-90617500I0J-202500D01*
G01*
G37*
G36*
G01*
X169680000Y-90617500D02*
X169680000Y-92072500D01*
G75*
G02*
X169477500Y-92275000I-202500J0D01*
G01*
X169072500Y-92275000D01*
G75*
G02*
X168870000Y-92072500I0J202500D01*
G01*
X168870000Y-90617500D01*
G75*
G02*
X169072500Y-90415000I202500J0D01*
G01*
X169477500Y-90415000D01*
G75*
G02*
X169680000Y-90617500I0J-202500D01*
G01*
G37*
G36*
G01*
X168410000Y-90617500D02*
X168410000Y-92072500D01*
G75*
G02*
X168207500Y-92275000I-202500J0D01*
G01*
X167802500Y-92275000D01*
G75*
G02*
X167600000Y-92072500I0J202500D01*
G01*
X167600000Y-90617500D01*
G75*
G02*
X167802500Y-90415000I202500J0D01*
G01*
X168207500Y-90415000D01*
G75*
G02*
X168410000Y-90617500I0J-202500D01*
G01*
G37*
G36*
G01*
X167140000Y-90642500D02*
X167140000Y-92047500D01*
G75*
G02*
X166912500Y-92275000I-227500J0D01*
G01*
X166457500Y-92275000D01*
G75*
G02*
X166230000Y-92047500I0J227500D01*
G01*
X166230000Y-90642500D01*
G75*
G02*
X166457500Y-90415000I227500J0D01*
G01*
X166912500Y-90415000D01*
G75*
G02*
X167140000Y-90642500I0J-227500D01*
G01*
G37*
G36*
G01*
X159190000Y-74492500D02*
X159190000Y-75897500D01*
G75*
G02*
X158962500Y-76125000I-227500J0D01*
G01*
X158507500Y-76125000D01*
G75*
G02*
X158280000Y-75897500I0J227500D01*
G01*
X158280000Y-74492500D01*
G75*
G02*
X158507500Y-74265000I227500J0D01*
G01*
X158962500Y-74265000D01*
G75*
G02*
X159190000Y-74492500I0J-227500D01*
G01*
G37*
G36*
G01*
X160460000Y-74467500D02*
X160460000Y-75922500D01*
G75*
G02*
X160257500Y-76125000I-202500J0D01*
G01*
X159852500Y-76125000D01*
G75*
G02*
X159650000Y-75922500I0J202500D01*
G01*
X159650000Y-74467500D01*
G75*
G02*
X159852500Y-74265000I202500J0D01*
G01*
X160257500Y-74265000D01*
G75*
G02*
X160460000Y-74467500I0J-202500D01*
G01*
G37*
G36*
G01*
X161730000Y-74467500D02*
X161730000Y-75922500D01*
G75*
G02*
X161527500Y-76125000I-202500J0D01*
G01*
X161122500Y-76125000D01*
G75*
G02*
X160920000Y-75922500I0J202500D01*
G01*
X160920000Y-74467500D01*
G75*
G02*
X161122500Y-74265000I202500J0D01*
G01*
X161527500Y-74265000D01*
G75*
G02*
X161730000Y-74467500I0J-202500D01*
G01*
G37*
G36*
G01*
X163000000Y-74467500D02*
X163000000Y-75922500D01*
G75*
G02*
X162797500Y-76125000I-202500J0D01*
G01*
X162392500Y-76125000D01*
G75*
G02*
X162190000Y-75922500I0J202500D01*
G01*
X162190000Y-74467500D01*
G75*
G02*
X162392500Y-74265000I202500J0D01*
G01*
X162797500Y-74265000D01*
G75*
G02*
X163000000Y-74467500I0J-202500D01*
G01*
G37*
G36*
G01*
X164270000Y-74467500D02*
X164270000Y-75922500D01*
G75*
G02*
X164067500Y-76125000I-202500J0D01*
G01*
X163662500Y-76125000D01*
G75*
G02*
X163460000Y-75922500I0J202500D01*
G01*
X163460000Y-74467500D01*
G75*
G02*
X163662500Y-74265000I202500J0D01*
G01*
X164067500Y-74265000D01*
G75*
G02*
X164270000Y-74467500I0J-202500D01*
G01*
G37*
G36*
G01*
X165540000Y-74467500D02*
X165540000Y-75922500D01*
G75*
G02*
X165337500Y-76125000I-202500J0D01*
G01*
X164932500Y-76125000D01*
G75*
G02*
X164730000Y-75922500I0J202500D01*
G01*
X164730000Y-74467500D01*
G75*
G02*
X164932500Y-74265000I202500J0D01*
G01*
X165337500Y-74265000D01*
G75*
G02*
X165540000Y-74467500I0J-202500D01*
G01*
G37*
G36*
G01*
X166810000Y-74467500D02*
X166810000Y-75922500D01*
G75*
G02*
X166607500Y-76125000I-202500J0D01*
G01*
X166202500Y-76125000D01*
G75*
G02*
X166000000Y-75922500I0J202500D01*
G01*
X166000000Y-74467500D01*
G75*
G02*
X166202500Y-74265000I202500J0D01*
G01*
X166607500Y-74265000D01*
G75*
G02*
X166810000Y-74467500I0J-202500D01*
G01*
G37*
G36*
G01*
X168180000Y-74492500D02*
X168180000Y-75897500D01*
G75*
G02*
X167952500Y-76125000I-227500J0D01*
G01*
X167497500Y-76125000D01*
G75*
G02*
X167270000Y-75897500I0J227500D01*
G01*
X167270000Y-74492500D01*
G75*
G02*
X167497500Y-74265000I227500J0D01*
G01*
X167952500Y-74265000D01*
G75*
G02*
X168180000Y-74492500I0J-227500D01*
G01*
G37*
G36*
G01*
X168180000Y-80142500D02*
X168180000Y-81547500D01*
G75*
G02*
X167952500Y-81775000I-227500J0D01*
G01*
X167497500Y-81775000D01*
G75*
G02*
X167270000Y-81547500I0J227500D01*
G01*
X167270000Y-80142500D01*
G75*
G02*
X167497500Y-79915000I227500J0D01*
G01*
X167952500Y-79915000D01*
G75*
G02*
X168180000Y-80142500I0J-227500D01*
G01*
G37*
G36*
G01*
X166810000Y-80117500D02*
X166810000Y-81572500D01*
G75*
G02*
X166607500Y-81775000I-202500J0D01*
G01*
X166202500Y-81775000D01*
G75*
G02*
X166000000Y-81572500I0J202500D01*
G01*
X166000000Y-80117500D01*
G75*
G02*
X166202500Y-79915000I202500J0D01*
G01*
X166607500Y-79915000D01*
G75*
G02*
X166810000Y-80117500I0J-202500D01*
G01*
G37*
G36*
G01*
X165540000Y-80117500D02*
X165540000Y-81572500D01*
G75*
G02*
X165337500Y-81775000I-202500J0D01*
G01*
X164932500Y-81775000D01*
G75*
G02*
X164730000Y-81572500I0J202500D01*
G01*
X164730000Y-80117500D01*
G75*
G02*
X164932500Y-79915000I202500J0D01*
G01*
X165337500Y-79915000D01*
G75*
G02*
X165540000Y-80117500I0J-202500D01*
G01*
G37*
G36*
G01*
X164270000Y-80117500D02*
X164270000Y-81572500D01*
G75*
G02*
X164067500Y-81775000I-202500J0D01*
G01*
X163662500Y-81775000D01*
G75*
G02*
X163460000Y-81572500I0J202500D01*
G01*
X163460000Y-80117500D01*
G75*
G02*
X163662500Y-79915000I202500J0D01*
G01*
X164067500Y-79915000D01*
G75*
G02*
X164270000Y-80117500I0J-202500D01*
G01*
G37*
G36*
G01*
X163000000Y-80117500D02*
X163000000Y-81572500D01*
G75*
G02*
X162797500Y-81775000I-202500J0D01*
G01*
X162392500Y-81775000D01*
G75*
G02*
X162190000Y-81572500I0J202500D01*
G01*
X162190000Y-80117500D01*
G75*
G02*
X162392500Y-79915000I202500J0D01*
G01*
X162797500Y-79915000D01*
G75*
G02*
X163000000Y-80117500I0J-202500D01*
G01*
G37*
G36*
G01*
X161730000Y-80117500D02*
X161730000Y-81572500D01*
G75*
G02*
X161527500Y-81775000I-202500J0D01*
G01*
X161122500Y-81775000D01*
G75*
G02*
X160920000Y-81572500I0J202500D01*
G01*
X160920000Y-80117500D01*
G75*
G02*
X161122500Y-79915000I202500J0D01*
G01*
X161527500Y-79915000D01*
G75*
G02*
X161730000Y-80117500I0J-202500D01*
G01*
G37*
G36*
G01*
X160460000Y-80117500D02*
X160460000Y-81572500D01*
G75*
G02*
X160257500Y-81775000I-202500J0D01*
G01*
X159852500Y-81775000D01*
G75*
G02*
X159650000Y-81572500I0J202500D01*
G01*
X159650000Y-80117500D01*
G75*
G02*
X159852500Y-79915000I202500J0D01*
G01*
X160257500Y-79915000D01*
G75*
G02*
X160460000Y-80117500I0J-202500D01*
G01*
G37*
G36*
G01*
X159190000Y-80142500D02*
X159190000Y-81547500D01*
G75*
G02*
X158962500Y-81775000I-227500J0D01*
G01*
X158507500Y-81775000D01*
G75*
G02*
X158280000Y-81547500I0J227500D01*
G01*
X158280000Y-80142500D01*
G75*
G02*
X158507500Y-79915000I227500J0D01*
G01*
X158962500Y-79915000D01*
G75*
G02*
X159190000Y-80142500I0J-227500D01*
G01*
G37*
G36*
G01*
X151015000Y-86497500D02*
X151015000Y-85092500D01*
G75*
G02*
X151242500Y-84865000I227500J0D01*
G01*
X151697500Y-84865000D01*
G75*
G02*
X151925000Y-85092500I0J-227500D01*
G01*
X151925000Y-86497500D01*
G75*
G02*
X151697500Y-86725000I-227500J0D01*
G01*
X151242500Y-86725000D01*
G75*
G02*
X151015000Y-86497500I0J227500D01*
G01*
G37*
G36*
G01*
X152335000Y-86522500D02*
X152335000Y-85067500D01*
G75*
G02*
X152537500Y-84865000I202500J0D01*
G01*
X152942500Y-84865000D01*
G75*
G02*
X153145000Y-85067500I0J-202500D01*
G01*
X153145000Y-86522500D01*
G75*
G02*
X152942500Y-86725000I-202500J0D01*
G01*
X152537500Y-86725000D01*
G75*
G02*
X152335000Y-86522500I0J202500D01*
G01*
G37*
G36*
G01*
X153605000Y-86522500D02*
X153605000Y-85067500D01*
G75*
G02*
X153807500Y-84865000I202500J0D01*
G01*
X154212500Y-84865000D01*
G75*
G02*
X154415000Y-85067500I0J-202500D01*
G01*
X154415000Y-86522500D01*
G75*
G02*
X154212500Y-86725000I-202500J0D01*
G01*
X153807500Y-86725000D01*
G75*
G02*
X153605000Y-86522500I0J202500D01*
G01*
G37*
G36*
G01*
X154875000Y-86522500D02*
X154875000Y-85067500D01*
G75*
G02*
X155077500Y-84865000I202500J0D01*
G01*
X155482500Y-84865000D01*
G75*
G02*
X155685000Y-85067500I0J-202500D01*
G01*
X155685000Y-86522500D01*
G75*
G02*
X155482500Y-86725000I-202500J0D01*
G01*
X155077500Y-86725000D01*
G75*
G02*
X154875000Y-86522500I0J202500D01*
G01*
G37*
G36*
G01*
X156145000Y-86522500D02*
X156145000Y-85067500D01*
G75*
G02*
X156347500Y-84865000I202500J0D01*
G01*
X156752500Y-84865000D01*
G75*
G02*
X156955000Y-85067500I0J-202500D01*
G01*
X156955000Y-86522500D01*
G75*
G02*
X156752500Y-86725000I-202500J0D01*
G01*
X156347500Y-86725000D01*
G75*
G02*
X156145000Y-86522500I0J202500D01*
G01*
G37*
G36*
G01*
X157415000Y-86522500D02*
X157415000Y-85067500D01*
G75*
G02*
X157617500Y-84865000I202500J0D01*
G01*
X158022500Y-84865000D01*
G75*
G02*
X158225000Y-85067500I0J-202500D01*
G01*
X158225000Y-86522500D01*
G75*
G02*
X158022500Y-86725000I-202500J0D01*
G01*
X157617500Y-86725000D01*
G75*
G02*
X157415000Y-86522500I0J202500D01*
G01*
G37*
G36*
G01*
X158635000Y-86497500D02*
X158635000Y-85092500D01*
G75*
G02*
X158862500Y-84865000I227500J0D01*
G01*
X159317500Y-84865000D01*
G75*
G02*
X159545000Y-85092500I0J-227500D01*
G01*
X159545000Y-86497500D01*
G75*
G02*
X159317500Y-86725000I-227500J0D01*
G01*
X158862500Y-86725000D01*
G75*
G02*
X158635000Y-86497500I0J227500D01*
G01*
G37*
G36*
G01*
X158635000Y-92147500D02*
X158635000Y-90742500D01*
G75*
G02*
X158862500Y-90515000I227500J0D01*
G01*
X159317500Y-90515000D01*
G75*
G02*
X159545000Y-90742500I0J-227500D01*
G01*
X159545000Y-92147500D01*
G75*
G02*
X159317500Y-92375000I-227500J0D01*
G01*
X158862500Y-92375000D01*
G75*
G02*
X158635000Y-92147500I0J227500D01*
G01*
G37*
G36*
G01*
X157415000Y-92172500D02*
X157415000Y-90717500D01*
G75*
G02*
X157617500Y-90515000I202500J0D01*
G01*
X158022500Y-90515000D01*
G75*
G02*
X158225000Y-90717500I0J-202500D01*
G01*
X158225000Y-92172500D01*
G75*
G02*
X158022500Y-92375000I-202500J0D01*
G01*
X157617500Y-92375000D01*
G75*
G02*
X157415000Y-92172500I0J202500D01*
G01*
G37*
G36*
G01*
X156145000Y-92172500D02*
X156145000Y-90717500D01*
G75*
G02*
X156347500Y-90515000I202500J0D01*
G01*
X156752500Y-90515000D01*
G75*
G02*
X156955000Y-90717500I0J-202500D01*
G01*
X156955000Y-92172500D01*
G75*
G02*
X156752500Y-92375000I-202500J0D01*
G01*
X156347500Y-92375000D01*
G75*
G02*
X156145000Y-92172500I0J202500D01*
G01*
G37*
G36*
G01*
X154875000Y-92172500D02*
X154875000Y-90717500D01*
G75*
G02*
X155077500Y-90515000I202500J0D01*
G01*
X155482500Y-90515000D01*
G75*
G02*
X155685000Y-90717500I0J-202500D01*
G01*
X155685000Y-92172500D01*
G75*
G02*
X155482500Y-92375000I-202500J0D01*
G01*
X155077500Y-92375000D01*
G75*
G02*
X154875000Y-92172500I0J202500D01*
G01*
G37*
G36*
G01*
X153605000Y-92172500D02*
X153605000Y-90717500D01*
G75*
G02*
X153807500Y-90515000I202500J0D01*
G01*
X154212500Y-90515000D01*
G75*
G02*
X154415000Y-90717500I0J-202500D01*
G01*
X154415000Y-92172500D01*
G75*
G02*
X154212500Y-92375000I-202500J0D01*
G01*
X153807500Y-92375000D01*
G75*
G02*
X153605000Y-92172500I0J202500D01*
G01*
G37*
G36*
G01*
X152335000Y-92172500D02*
X152335000Y-90717500D01*
G75*
G02*
X152537500Y-90515000I202500J0D01*
G01*
X152942500Y-90515000D01*
G75*
G02*
X153145000Y-90717500I0J-202500D01*
G01*
X153145000Y-92172500D01*
G75*
G02*
X152942500Y-92375000I-202500J0D01*
G01*
X152537500Y-92375000D01*
G75*
G02*
X152335000Y-92172500I0J202500D01*
G01*
G37*
G36*
G01*
X150965000Y-92147500D02*
X150965000Y-90742500D01*
G75*
G02*
X151192500Y-90515000I227500J0D01*
G01*
X151647500Y-90515000D01*
G75*
G02*
X151875000Y-90742500I0J-227500D01*
G01*
X151875000Y-92147500D01*
G75*
G02*
X151647500Y-92375000I-227500J0D01*
G01*
X151192500Y-92375000D01*
G75*
G02*
X150965000Y-92147500I0J227500D01*
G01*
G37*
G36*
G01*
X135815000Y-86497500D02*
X135815000Y-85092500D01*
G75*
G02*
X136042500Y-84865000I227500J0D01*
G01*
X136497500Y-84865000D01*
G75*
G02*
X136725000Y-85092500I0J-227500D01*
G01*
X136725000Y-86497500D01*
G75*
G02*
X136497500Y-86725000I-227500J0D01*
G01*
X136042500Y-86725000D01*
G75*
G02*
X135815000Y-86497500I0J227500D01*
G01*
G37*
G36*
G01*
X137135000Y-86522500D02*
X137135000Y-85067500D01*
G75*
G02*
X137337500Y-84865000I202500J0D01*
G01*
X137742500Y-84865000D01*
G75*
G02*
X137945000Y-85067500I0J-202500D01*
G01*
X137945000Y-86522500D01*
G75*
G02*
X137742500Y-86725000I-202500J0D01*
G01*
X137337500Y-86725000D01*
G75*
G02*
X137135000Y-86522500I0J202500D01*
G01*
G37*
G36*
G01*
X138405000Y-86522500D02*
X138405000Y-85067500D01*
G75*
G02*
X138607500Y-84865000I202500J0D01*
G01*
X139012500Y-84865000D01*
G75*
G02*
X139215000Y-85067500I0J-202500D01*
G01*
X139215000Y-86522500D01*
G75*
G02*
X139012500Y-86725000I-202500J0D01*
G01*
X138607500Y-86725000D01*
G75*
G02*
X138405000Y-86522500I0J202500D01*
G01*
G37*
G36*
G01*
X139675000Y-86522500D02*
X139675000Y-85067500D01*
G75*
G02*
X139877500Y-84865000I202500J0D01*
G01*
X140282500Y-84865000D01*
G75*
G02*
X140485000Y-85067500I0J-202500D01*
G01*
X140485000Y-86522500D01*
G75*
G02*
X140282500Y-86725000I-202500J0D01*
G01*
X139877500Y-86725000D01*
G75*
G02*
X139675000Y-86522500I0J202500D01*
G01*
G37*
G36*
G01*
X140945000Y-86522500D02*
X140945000Y-85067500D01*
G75*
G02*
X141147500Y-84865000I202500J0D01*
G01*
X141552500Y-84865000D01*
G75*
G02*
X141755000Y-85067500I0J-202500D01*
G01*
X141755000Y-86522500D01*
G75*
G02*
X141552500Y-86725000I-202500J0D01*
G01*
X141147500Y-86725000D01*
G75*
G02*
X140945000Y-86522500I0J202500D01*
G01*
G37*
G36*
G01*
X142215000Y-86522500D02*
X142215000Y-85067500D01*
G75*
G02*
X142417500Y-84865000I202500J0D01*
G01*
X142822500Y-84865000D01*
G75*
G02*
X143025000Y-85067500I0J-202500D01*
G01*
X143025000Y-86522500D01*
G75*
G02*
X142822500Y-86725000I-202500J0D01*
G01*
X142417500Y-86725000D01*
G75*
G02*
X142215000Y-86522500I0J202500D01*
G01*
G37*
G36*
G01*
X143435000Y-86497500D02*
X143435000Y-85092500D01*
G75*
G02*
X143662500Y-84865000I227500J0D01*
G01*
X144117500Y-84865000D01*
G75*
G02*
X144345000Y-85092500I0J-227500D01*
G01*
X144345000Y-86497500D01*
G75*
G02*
X144117500Y-86725000I-227500J0D01*
G01*
X143662500Y-86725000D01*
G75*
G02*
X143435000Y-86497500I0J227500D01*
G01*
G37*
G36*
G01*
X143435000Y-92147500D02*
X143435000Y-90742500D01*
G75*
G02*
X143662500Y-90515000I227500J0D01*
G01*
X144117500Y-90515000D01*
G75*
G02*
X144345000Y-90742500I0J-227500D01*
G01*
X144345000Y-92147500D01*
G75*
G02*
X144117500Y-92375000I-227500J0D01*
G01*
X143662500Y-92375000D01*
G75*
G02*
X143435000Y-92147500I0J227500D01*
G01*
G37*
G36*
G01*
X142215000Y-92172500D02*
X142215000Y-90717500D01*
G75*
G02*
X142417500Y-90515000I202500J0D01*
G01*
X142822500Y-90515000D01*
G75*
G02*
X143025000Y-90717500I0J-202500D01*
G01*
X143025000Y-92172500D01*
G75*
G02*
X142822500Y-92375000I-202500J0D01*
G01*
X142417500Y-92375000D01*
G75*
G02*
X142215000Y-92172500I0J202500D01*
G01*
G37*
G36*
G01*
X140945000Y-92172500D02*
X140945000Y-90717500D01*
G75*
G02*
X141147500Y-90515000I202500J0D01*
G01*
X141552500Y-90515000D01*
G75*
G02*
X141755000Y-90717500I0J-202500D01*
G01*
X141755000Y-92172500D01*
G75*
G02*
X141552500Y-92375000I-202500J0D01*
G01*
X141147500Y-92375000D01*
G75*
G02*
X140945000Y-92172500I0J202500D01*
G01*
G37*
G36*
G01*
X139675000Y-92172500D02*
X139675000Y-90717500D01*
G75*
G02*
X139877500Y-90515000I202500J0D01*
G01*
X140282500Y-90515000D01*
G75*
G02*
X140485000Y-90717500I0J-202500D01*
G01*
X140485000Y-92172500D01*
G75*
G02*
X140282500Y-92375000I-202500J0D01*
G01*
X139877500Y-92375000D01*
G75*
G02*
X139675000Y-92172500I0J202500D01*
G01*
G37*
G36*
G01*
X138405000Y-92172500D02*
X138405000Y-90717500D01*
G75*
G02*
X138607500Y-90515000I202500J0D01*
G01*
X139012500Y-90515000D01*
G75*
G02*
X139215000Y-90717500I0J-202500D01*
G01*
X139215000Y-92172500D01*
G75*
G02*
X139012500Y-92375000I-202500J0D01*
G01*
X138607500Y-92375000D01*
G75*
G02*
X138405000Y-92172500I0J202500D01*
G01*
G37*
G36*
G01*
X137135000Y-92172500D02*
X137135000Y-90717500D01*
G75*
G02*
X137337500Y-90515000I202500J0D01*
G01*
X137742500Y-90515000D01*
G75*
G02*
X137945000Y-90717500I0J-202500D01*
G01*
X137945000Y-92172500D01*
G75*
G02*
X137742500Y-92375000I-202500J0D01*
G01*
X137337500Y-92375000D01*
G75*
G02*
X137135000Y-92172500I0J202500D01*
G01*
G37*
G36*
G01*
X135765000Y-92147500D02*
X135765000Y-90742500D01*
G75*
G02*
X135992500Y-90515000I227500J0D01*
G01*
X136447500Y-90515000D01*
G75*
G02*
X136675000Y-90742500I0J-227500D01*
G01*
X136675000Y-92147500D01*
G75*
G02*
X136447500Y-92375000I-227500J0D01*
G01*
X135992500Y-92375000D01*
G75*
G02*
X135765000Y-92147500I0J227500D01*
G01*
G37*
G36*
G01*
X114148736Y-84288894D02*
X113915391Y-84522239D01*
G75*
G02*
X113682045Y-84522239I-116673J116673D01*
G01*
X112918370Y-83758564D01*
G75*
G02*
X112918370Y-83525218I116673J116673D01*
G01*
X113151715Y-83291873D01*
G75*
G02*
X113385061Y-83291873I116673J-116673D01*
G01*
X114148736Y-84055548D01*
G75*
G02*
X114148736Y-84288894I-116673J-116673D01*
G01*
G37*
G36*
G01*
X114820488Y-83617143D02*
X114587143Y-83850488D01*
G75*
G02*
X114353797Y-83850488I-116673J116673D01*
G01*
X113590122Y-83086813D01*
G75*
G02*
X113590122Y-82853467I116673J116673D01*
G01*
X113823467Y-82620122D01*
G75*
G02*
X114056813Y-82620122I116673J-116673D01*
G01*
X114820488Y-83383797D01*
G75*
G02*
X114820488Y-83617143I-116673J-116673D01*
G01*
G37*
G36*
G01*
X115492239Y-82945391D02*
X115258894Y-83178736D01*
G75*
G02*
X115025548Y-83178736I-116673J116673D01*
G01*
X114261873Y-82415061D01*
G75*
G02*
X114261873Y-82181715I116673J116673D01*
G01*
X114495218Y-81948370D01*
G75*
G02*
X114728564Y-81948370I116673J-116673D01*
G01*
X115492239Y-82712045D01*
G75*
G02*
X115492239Y-82945391I-116673J-116673D01*
G01*
G37*
G36*
G01*
X113441630Y-80894782D02*
X113208285Y-81128127D01*
G75*
G02*
X112974939Y-81128127I-116673J116673D01*
G01*
X112211264Y-80364452D01*
G75*
G02*
X112211264Y-80131106I116673J116673D01*
G01*
X112444609Y-79897761D01*
G75*
G02*
X112677955Y-79897761I116673J-116673D01*
G01*
X113441630Y-80661436D01*
G75*
G02*
X113441630Y-80894782I-116673J-116673D01*
G01*
G37*
G36*
G01*
X112769878Y-81566533D02*
X112536533Y-81799878D01*
G75*
G02*
X112303187Y-81799878I-116673J116673D01*
G01*
X111539512Y-81036203D01*
G75*
G02*
X111539512Y-80802857I116673J116673D01*
G01*
X111772857Y-80569512D01*
G75*
G02*
X112006203Y-80569512I116673J-116673D01*
G01*
X112769878Y-81333187D01*
G75*
G02*
X112769878Y-81566533I-116673J-116673D01*
G01*
G37*
G36*
G01*
X112098127Y-82238285D02*
X111864782Y-82471630D01*
G75*
G02*
X111631436Y-82471630I-116673J116673D01*
G01*
X110867761Y-81707955D01*
G75*
G02*
X110867761Y-81474609I116673J116673D01*
G01*
X111101106Y-81241264D01*
G75*
G02*
X111334452Y-81241264I116673J-116673D01*
G01*
X112098127Y-82004939D01*
G75*
G02*
X112098127Y-82238285I-116673J-116673D01*
G01*
G37*
G36*
G01*
X120140000Y-84992500D02*
X120140000Y-86397500D01*
G75*
G02*
X119912500Y-86625000I-227500J0D01*
G01*
X119457500Y-86625000D01*
G75*
G02*
X119230000Y-86397500I0J227500D01*
G01*
X119230000Y-84992500D01*
G75*
G02*
X119457500Y-84765000I227500J0D01*
G01*
X119912500Y-84765000D01*
G75*
G02*
X120140000Y-84992500I0J-227500D01*
G01*
G37*
G36*
G01*
X121410000Y-84967500D02*
X121410000Y-86422500D01*
G75*
G02*
X121207500Y-86625000I-202500J0D01*
G01*
X120802500Y-86625000D01*
G75*
G02*
X120600000Y-86422500I0J202500D01*
G01*
X120600000Y-84967500D01*
G75*
G02*
X120802500Y-84765000I202500J0D01*
G01*
X121207500Y-84765000D01*
G75*
G02*
X121410000Y-84967500I0J-202500D01*
G01*
G37*
G36*
G01*
X122680000Y-84967500D02*
X122680000Y-86422500D01*
G75*
G02*
X122477500Y-86625000I-202500J0D01*
G01*
X122072500Y-86625000D01*
G75*
G02*
X121870000Y-86422500I0J202500D01*
G01*
X121870000Y-84967500D01*
G75*
G02*
X122072500Y-84765000I202500J0D01*
G01*
X122477500Y-84765000D01*
G75*
G02*
X122680000Y-84967500I0J-202500D01*
G01*
G37*
G36*
G01*
X123950000Y-84967500D02*
X123950000Y-86422500D01*
G75*
G02*
X123747500Y-86625000I-202500J0D01*
G01*
X123342500Y-86625000D01*
G75*
G02*
X123140000Y-86422500I0J202500D01*
G01*
X123140000Y-84967500D01*
G75*
G02*
X123342500Y-84765000I202500J0D01*
G01*
X123747500Y-84765000D01*
G75*
G02*
X123950000Y-84967500I0J-202500D01*
G01*
G37*
G36*
G01*
X125220000Y-84967500D02*
X125220000Y-86422500D01*
G75*
G02*
X125017500Y-86625000I-202500J0D01*
G01*
X124612500Y-86625000D01*
G75*
G02*
X124410000Y-86422500I0J202500D01*
G01*
X124410000Y-84967500D01*
G75*
G02*
X124612500Y-84765000I202500J0D01*
G01*
X125017500Y-84765000D01*
G75*
G02*
X125220000Y-84967500I0J-202500D01*
G01*
G37*
G36*
G01*
X126490000Y-84967500D02*
X126490000Y-86422500D01*
G75*
G02*
X126287500Y-86625000I-202500J0D01*
G01*
X125882500Y-86625000D01*
G75*
G02*
X125680000Y-86422500I0J202500D01*
G01*
X125680000Y-84967500D01*
G75*
G02*
X125882500Y-84765000I202500J0D01*
G01*
X126287500Y-84765000D01*
G75*
G02*
X126490000Y-84967500I0J-202500D01*
G01*
G37*
G36*
G01*
X127760000Y-84967500D02*
X127760000Y-86422500D01*
G75*
G02*
X127557500Y-86625000I-202500J0D01*
G01*
X127152500Y-86625000D01*
G75*
G02*
X126950000Y-86422500I0J202500D01*
G01*
X126950000Y-84967500D01*
G75*
G02*
X127152500Y-84765000I202500J0D01*
G01*
X127557500Y-84765000D01*
G75*
G02*
X127760000Y-84967500I0J-202500D01*
G01*
G37*
G36*
G01*
X129130000Y-84992500D02*
X129130000Y-86397500D01*
G75*
G02*
X128902500Y-86625000I-227500J0D01*
G01*
X128447500Y-86625000D01*
G75*
G02*
X128220000Y-86397500I0J227500D01*
G01*
X128220000Y-84992500D01*
G75*
G02*
X128447500Y-84765000I227500J0D01*
G01*
X128902500Y-84765000D01*
G75*
G02*
X129130000Y-84992500I0J-227500D01*
G01*
G37*
G36*
G01*
X129130000Y-90642500D02*
X129130000Y-92047500D01*
G75*
G02*
X128902500Y-92275000I-227500J0D01*
G01*
X128447500Y-92275000D01*
G75*
G02*
X128220000Y-92047500I0J227500D01*
G01*
X128220000Y-90642500D01*
G75*
G02*
X128447500Y-90415000I227500J0D01*
G01*
X128902500Y-90415000D01*
G75*
G02*
X129130000Y-90642500I0J-227500D01*
G01*
G37*
G36*
G01*
X127760000Y-90617500D02*
X127760000Y-92072500D01*
G75*
G02*
X127557500Y-92275000I-202500J0D01*
G01*
X127152500Y-92275000D01*
G75*
G02*
X126950000Y-92072500I0J202500D01*
G01*
X126950000Y-90617500D01*
G75*
G02*
X127152500Y-90415000I202500J0D01*
G01*
X127557500Y-90415000D01*
G75*
G02*
X127760000Y-90617500I0J-202500D01*
G01*
G37*
G36*
G01*
X126490000Y-90617500D02*
X126490000Y-92072500D01*
G75*
G02*
X126287500Y-92275000I-202500J0D01*
G01*
X125882500Y-92275000D01*
G75*
G02*
X125680000Y-92072500I0J202500D01*
G01*
X125680000Y-90617500D01*
G75*
G02*
X125882500Y-90415000I202500J0D01*
G01*
X126287500Y-90415000D01*
G75*
G02*
X126490000Y-90617500I0J-202500D01*
G01*
G37*
G36*
G01*
X125220000Y-90617500D02*
X125220000Y-92072500D01*
G75*
G02*
X125017500Y-92275000I-202500J0D01*
G01*
X124612500Y-92275000D01*
G75*
G02*
X124410000Y-92072500I0J202500D01*
G01*
X124410000Y-90617500D01*
G75*
G02*
X124612500Y-90415000I202500J0D01*
G01*
X125017500Y-90415000D01*
G75*
G02*
X125220000Y-90617500I0J-202500D01*
G01*
G37*
G36*
G01*
X123950000Y-90617500D02*
X123950000Y-92072500D01*
G75*
G02*
X123747500Y-92275000I-202500J0D01*
G01*
X123342500Y-92275000D01*
G75*
G02*
X123140000Y-92072500I0J202500D01*
G01*
X123140000Y-90617500D01*
G75*
G02*
X123342500Y-90415000I202500J0D01*
G01*
X123747500Y-90415000D01*
G75*
G02*
X123950000Y-90617500I0J-202500D01*
G01*
G37*
G36*
G01*
X122680000Y-90617500D02*
X122680000Y-92072500D01*
G75*
G02*
X122477500Y-92275000I-202500J0D01*
G01*
X122072500Y-92275000D01*
G75*
G02*
X121870000Y-92072500I0J202500D01*
G01*
X121870000Y-90617500D01*
G75*
G02*
X122072500Y-90415000I202500J0D01*
G01*
X122477500Y-90415000D01*
G75*
G02*
X122680000Y-90617500I0J-202500D01*
G01*
G37*
G36*
G01*
X121410000Y-90617500D02*
X121410000Y-92072500D01*
G75*
G02*
X121207500Y-92275000I-202500J0D01*
G01*
X120802500Y-92275000D01*
G75*
G02*
X120600000Y-92072500I0J202500D01*
G01*
X120600000Y-90617500D01*
G75*
G02*
X120802500Y-90415000I202500J0D01*
G01*
X121207500Y-90415000D01*
G75*
G02*
X121410000Y-90617500I0J-202500D01*
G01*
G37*
G36*
G01*
X120140000Y-90642500D02*
X120140000Y-92047500D01*
G75*
G02*
X119912500Y-92275000I-227500J0D01*
G01*
X119457500Y-92275000D01*
G75*
G02*
X119230000Y-92047500I0J227500D01*
G01*
X119230000Y-90642500D01*
G75*
G02*
X119457500Y-90415000I227500J0D01*
G01*
X119912500Y-90415000D01*
G75*
G02*
X120140000Y-90642500I0J-227500D01*
G01*
G37*
G36*
G01*
X128090000Y-74492500D02*
X128090000Y-75897500D01*
G75*
G02*
X127862500Y-76125000I-227500J0D01*
G01*
X127407500Y-76125000D01*
G75*
G02*
X127180000Y-75897500I0J227500D01*
G01*
X127180000Y-74492500D01*
G75*
G02*
X127407500Y-74265000I227500J0D01*
G01*
X127862500Y-74265000D01*
G75*
G02*
X128090000Y-74492500I0J-227500D01*
G01*
G37*
G36*
G01*
X129360000Y-74467500D02*
X129360000Y-75922500D01*
G75*
G02*
X129157500Y-76125000I-202500J0D01*
G01*
X128752500Y-76125000D01*
G75*
G02*
X128550000Y-75922500I0J202500D01*
G01*
X128550000Y-74467500D01*
G75*
G02*
X128752500Y-74265000I202500J0D01*
G01*
X129157500Y-74265000D01*
G75*
G02*
X129360000Y-74467500I0J-202500D01*
G01*
G37*
G36*
G01*
X130630000Y-74467500D02*
X130630000Y-75922500D01*
G75*
G02*
X130427500Y-76125000I-202500J0D01*
G01*
X130022500Y-76125000D01*
G75*
G02*
X129820000Y-75922500I0J202500D01*
G01*
X129820000Y-74467500D01*
G75*
G02*
X130022500Y-74265000I202500J0D01*
G01*
X130427500Y-74265000D01*
G75*
G02*
X130630000Y-74467500I0J-202500D01*
G01*
G37*
G36*
G01*
X131900000Y-74467500D02*
X131900000Y-75922500D01*
G75*
G02*
X131697500Y-76125000I-202500J0D01*
G01*
X131292500Y-76125000D01*
G75*
G02*
X131090000Y-75922500I0J202500D01*
G01*
X131090000Y-74467500D01*
G75*
G02*
X131292500Y-74265000I202500J0D01*
G01*
X131697500Y-74265000D01*
G75*
G02*
X131900000Y-74467500I0J-202500D01*
G01*
G37*
G36*
G01*
X133170000Y-74467500D02*
X133170000Y-75922500D01*
G75*
G02*
X132967500Y-76125000I-202500J0D01*
G01*
X132562500Y-76125000D01*
G75*
G02*
X132360000Y-75922500I0J202500D01*
G01*
X132360000Y-74467500D01*
G75*
G02*
X132562500Y-74265000I202500J0D01*
G01*
X132967500Y-74265000D01*
G75*
G02*
X133170000Y-74467500I0J-202500D01*
G01*
G37*
G36*
G01*
X134440000Y-74467500D02*
X134440000Y-75922500D01*
G75*
G02*
X134237500Y-76125000I-202500J0D01*
G01*
X133832500Y-76125000D01*
G75*
G02*
X133630000Y-75922500I0J202500D01*
G01*
X133630000Y-74467500D01*
G75*
G02*
X133832500Y-74265000I202500J0D01*
G01*
X134237500Y-74265000D01*
G75*
G02*
X134440000Y-74467500I0J-202500D01*
G01*
G37*
G36*
G01*
X135710000Y-74467500D02*
X135710000Y-75922500D01*
G75*
G02*
X135507500Y-76125000I-202500J0D01*
G01*
X135102500Y-76125000D01*
G75*
G02*
X134900000Y-75922500I0J202500D01*
G01*
X134900000Y-74467500D01*
G75*
G02*
X135102500Y-74265000I202500J0D01*
G01*
X135507500Y-74265000D01*
G75*
G02*
X135710000Y-74467500I0J-202500D01*
G01*
G37*
G36*
G01*
X137080000Y-74492500D02*
X137080000Y-75897500D01*
G75*
G02*
X136852500Y-76125000I-227500J0D01*
G01*
X136397500Y-76125000D01*
G75*
G02*
X136170000Y-75897500I0J227500D01*
G01*
X136170000Y-74492500D01*
G75*
G02*
X136397500Y-74265000I227500J0D01*
G01*
X136852500Y-74265000D01*
G75*
G02*
X137080000Y-74492500I0J-227500D01*
G01*
G37*
G36*
G01*
X137080000Y-80142500D02*
X137080000Y-81547500D01*
G75*
G02*
X136852500Y-81775000I-227500J0D01*
G01*
X136397500Y-81775000D01*
G75*
G02*
X136170000Y-81547500I0J227500D01*
G01*
X136170000Y-80142500D01*
G75*
G02*
X136397500Y-79915000I227500J0D01*
G01*
X136852500Y-79915000D01*
G75*
G02*
X137080000Y-80142500I0J-227500D01*
G01*
G37*
G36*
G01*
X135710000Y-80117500D02*
X135710000Y-81572500D01*
G75*
G02*
X135507500Y-81775000I-202500J0D01*
G01*
X135102500Y-81775000D01*
G75*
G02*
X134900000Y-81572500I0J202500D01*
G01*
X134900000Y-80117500D01*
G75*
G02*
X135102500Y-79915000I202500J0D01*
G01*
X135507500Y-79915000D01*
G75*
G02*
X135710000Y-80117500I0J-202500D01*
G01*
G37*
G36*
G01*
X134440000Y-80117500D02*
X134440000Y-81572500D01*
G75*
G02*
X134237500Y-81775000I-202500J0D01*
G01*
X133832500Y-81775000D01*
G75*
G02*
X133630000Y-81572500I0J202500D01*
G01*
X133630000Y-80117500D01*
G75*
G02*
X133832500Y-79915000I202500J0D01*
G01*
X134237500Y-79915000D01*
G75*
G02*
X134440000Y-80117500I0J-202500D01*
G01*
G37*
G36*
G01*
X133170000Y-80117500D02*
X133170000Y-81572500D01*
G75*
G02*
X132967500Y-81775000I-202500J0D01*
G01*
X132562500Y-81775000D01*
G75*
G02*
X132360000Y-81572500I0J202500D01*
G01*
X132360000Y-80117500D01*
G75*
G02*
X132562500Y-79915000I202500J0D01*
G01*
X132967500Y-79915000D01*
G75*
G02*
X133170000Y-80117500I0J-202500D01*
G01*
G37*
G36*
G01*
X131900000Y-80117500D02*
X131900000Y-81572500D01*
G75*
G02*
X131697500Y-81775000I-202500J0D01*
G01*
X131292500Y-81775000D01*
G75*
G02*
X131090000Y-81572500I0J202500D01*
G01*
X131090000Y-80117500D01*
G75*
G02*
X131292500Y-79915000I202500J0D01*
G01*
X131697500Y-79915000D01*
G75*
G02*
X131900000Y-80117500I0J-202500D01*
G01*
G37*
G36*
G01*
X130630000Y-80117500D02*
X130630000Y-81572500D01*
G75*
G02*
X130427500Y-81775000I-202500J0D01*
G01*
X130022500Y-81775000D01*
G75*
G02*
X129820000Y-81572500I0J202500D01*
G01*
X129820000Y-80117500D01*
G75*
G02*
X130022500Y-79915000I202500J0D01*
G01*
X130427500Y-79915000D01*
G75*
G02*
X130630000Y-80117500I0J-202500D01*
G01*
G37*
G36*
G01*
X129360000Y-80117500D02*
X129360000Y-81572500D01*
G75*
G02*
X129157500Y-81775000I-202500J0D01*
G01*
X128752500Y-81775000D01*
G75*
G02*
X128550000Y-81572500I0J202500D01*
G01*
X128550000Y-80117500D01*
G75*
G02*
X128752500Y-79915000I202500J0D01*
G01*
X129157500Y-79915000D01*
G75*
G02*
X129360000Y-80117500I0J-202500D01*
G01*
G37*
G36*
G01*
X128090000Y-80142500D02*
X128090000Y-81547500D01*
G75*
G02*
X127862500Y-81775000I-227500J0D01*
G01*
X127407500Y-81775000D01*
G75*
G02*
X127180000Y-81547500I0J227500D01*
G01*
X127180000Y-80142500D01*
G75*
G02*
X127407500Y-79915000I227500J0D01*
G01*
X127862500Y-79915000D01*
G75*
G02*
X128090000Y-80142500I0J-227500D01*
G01*
G37*
G36*
G01*
X173057500Y-127020000D02*
X171902500Y-127020000D01*
G75*
G02*
X171750000Y-126867500I0J152500D01*
G01*
X171750000Y-126562500D01*
G75*
G02*
X171902500Y-126410000I152500J0D01*
G01*
X173057500Y-126410000D01*
G75*
G02*
X173210000Y-126562500I0J-152500D01*
G01*
X173210000Y-126867500D01*
G75*
G02*
X173057500Y-127020000I-152500J0D01*
G01*
G37*
G36*
G01*
X173082500Y-127670000D02*
X171877500Y-127670000D01*
G75*
G02*
X171750000Y-127542500I0J127500D01*
G01*
X171750000Y-127287500D01*
G75*
G02*
X171877500Y-127160000I127500J0D01*
G01*
X173082500Y-127160000D01*
G75*
G02*
X173210000Y-127287500I0J-127500D01*
G01*
X173210000Y-127542500D01*
G75*
G02*
X173082500Y-127670000I-127500J0D01*
G01*
G37*
G36*
G01*
X173082500Y-128320000D02*
X171877500Y-128320000D01*
G75*
G02*
X171750000Y-128192500I0J127500D01*
G01*
X171750000Y-127937500D01*
G75*
G02*
X171877500Y-127810000I127500J0D01*
G01*
X173082500Y-127810000D01*
G75*
G02*
X173210000Y-127937500I0J-127500D01*
G01*
X173210000Y-128192500D01*
G75*
G02*
X173082500Y-128320000I-127500J0D01*
G01*
G37*
G36*
G01*
X173057500Y-129070000D02*
X171902500Y-129070000D01*
G75*
G02*
X171750000Y-128917500I0J152500D01*
G01*
X171750000Y-128612500D01*
G75*
G02*
X171902500Y-128460000I152500J0D01*
G01*
X173057500Y-128460000D01*
G75*
G02*
X173210000Y-128612500I0J-152500D01*
G01*
X173210000Y-128917500D01*
G75*
G02*
X173057500Y-129070000I-152500J0D01*
G01*
G37*
G36*
G01*
X168957500Y-129070000D02*
X167802500Y-129070000D01*
G75*
G02*
X167650000Y-128917500I0J152500D01*
G01*
X167650000Y-128612500D01*
G75*
G02*
X167802500Y-128460000I152500J0D01*
G01*
X168957500Y-128460000D01*
G75*
G02*
X169110000Y-128612500I0J-152500D01*
G01*
X169110000Y-128917500D01*
G75*
G02*
X168957500Y-129070000I-152500J0D01*
G01*
G37*
G36*
G01*
X168982500Y-128320000D02*
X167777500Y-128320000D01*
G75*
G02*
X167650000Y-128192500I0J127500D01*
G01*
X167650000Y-127937500D01*
G75*
G02*
X167777500Y-127810000I127500J0D01*
G01*
X168982500Y-127810000D01*
G75*
G02*
X169110000Y-127937500I0J-127500D01*
G01*
X169110000Y-128192500D01*
G75*
G02*
X168982500Y-128320000I-127500J0D01*
G01*
G37*
G36*
G01*
X168982500Y-127670000D02*
X167777500Y-127670000D01*
G75*
G02*
X167650000Y-127542500I0J127500D01*
G01*
X167650000Y-127287500D01*
G75*
G02*
X167777500Y-127160000I127500J0D01*
G01*
X168982500Y-127160000D01*
G75*
G02*
X169110000Y-127287500I0J-127500D01*
G01*
X169110000Y-127542500D01*
G75*
G02*
X168982500Y-127670000I-127500J0D01*
G01*
G37*
G36*
G01*
X168957500Y-127020000D02*
X167802500Y-127020000D01*
G75*
G02*
X167650000Y-126867500I0J152500D01*
G01*
X167650000Y-126562500D01*
G75*
G02*
X167802500Y-126410000I152500J0D01*
G01*
X168957500Y-126410000D01*
G75*
G02*
X169110000Y-126562500I0J-152500D01*
G01*
X169110000Y-126867500D01*
G75*
G02*
X168957500Y-127020000I-152500J0D01*
G01*
G37*
G36*
G01*
X186754869Y-89086814D02*
X186503846Y-88835791D01*
G75*
G02*
X186503846Y-88584769I125511J125511D01*
G01*
X187108423Y-87980192D01*
G75*
G02*
X187359445Y-87980192I125511J-125511D01*
G01*
X187610468Y-88231215D01*
G75*
G02*
X187610468Y-88482237I-125511J-125511D01*
G01*
X187005891Y-89086814D01*
G75*
G02*
X186754869Y-89086814I-125511J125511D01*
G01*
G37*
G36*
G01*
X185694209Y-88026154D02*
X185443186Y-87775131D01*
G75*
G02*
X185443186Y-87524109I125511J125511D01*
G01*
X186047763Y-86919532D01*
G75*
G02*
X186298785Y-86919532I125511J-125511D01*
G01*
X186549808Y-87170555D01*
G75*
G02*
X186549808Y-87421577I-125511J-125511D01*
G01*
X185945231Y-88026154D01*
G75*
G02*
X185694209Y-88026154I-125511J125511D01*
G01*
G37*
G36*
G01*
X187320555Y-86399808D02*
X187069532Y-86148785D01*
G75*
G02*
X187069532Y-85897763I125511J125511D01*
G01*
X187674109Y-85293186D01*
G75*
G02*
X187925131Y-85293186I125511J-125511D01*
G01*
X188176154Y-85544209D01*
G75*
G02*
X188176154Y-85795231I-125511J-125511D01*
G01*
X187571577Y-86399808D01*
G75*
G02*
X187320555Y-86399808I-125511J125511D01*
G01*
G37*
G36*
G01*
X187815530Y-86894783D02*
X187635217Y-86714470D01*
G75*
G02*
X187635217Y-86534158I90156J90156D01*
G01*
X188310504Y-85858871D01*
G75*
G02*
X188490816Y-85858871I90156J-90156D01*
G01*
X188671129Y-86039184D01*
G75*
G02*
X188671129Y-86219496I-90156J-90156D01*
G01*
X187995842Y-86894783D01*
G75*
G02*
X187815530Y-86894783I-90156J90156D01*
G01*
G37*
G36*
G01*
X188381215Y-87460468D02*
X188130192Y-87209445D01*
G75*
G02*
X188130192Y-86958423I125511J125511D01*
G01*
X188734769Y-86353846D01*
G75*
G02*
X188985791Y-86353846I125511J-125511D01*
G01*
X189236814Y-86604869D01*
G75*
G02*
X189236814Y-86855891I-125511J-125511D01*
G01*
X188632237Y-87460468D01*
G75*
G02*
X188381215Y-87460468I-125511J125511D01*
G01*
G37*
G36*
G01*
X117125000Y-119392500D02*
X117125000Y-119037500D01*
G75*
G02*
X117302500Y-118860000I177500J0D01*
G01*
X119257500Y-118860000D01*
G75*
G02*
X119435000Y-119037500I0J-177500D01*
G01*
X119435000Y-119392500D01*
G75*
G02*
X119257500Y-119570000I-177500J0D01*
G01*
X117302500Y-119570000D01*
G75*
G02*
X117125000Y-119392500I0J177500D01*
G01*
G37*
G36*
G01*
X117125000Y-120662500D02*
X117125000Y-120307500D01*
G75*
G02*
X117302500Y-120130000I177500J0D01*
G01*
X119257500Y-120130000D01*
G75*
G02*
X119435000Y-120307500I0J-177500D01*
G01*
X119435000Y-120662500D01*
G75*
G02*
X119257500Y-120840000I-177500J0D01*
G01*
X117302500Y-120840000D01*
G75*
G02*
X117125000Y-120662500I0J177500D01*
G01*
G37*
G36*
G01*
X117125000Y-121932500D02*
X117125000Y-121577500D01*
G75*
G02*
X117302500Y-121400000I177500J0D01*
G01*
X119257500Y-121400000D01*
G75*
G02*
X119435000Y-121577500I0J-177500D01*
G01*
X119435000Y-121932500D01*
G75*
G02*
X119257500Y-122110000I-177500J0D01*
G01*
X117302500Y-122110000D01*
G75*
G02*
X117125000Y-121932500I0J177500D01*
G01*
G37*
G36*
G01*
X117125000Y-123202500D02*
X117125000Y-122847500D01*
G75*
G02*
X117302500Y-122670000I177500J0D01*
G01*
X119257500Y-122670000D01*
G75*
G02*
X119435000Y-122847500I0J-177500D01*
G01*
X119435000Y-123202500D01*
G75*
G02*
X119257500Y-123380000I-177500J0D01*
G01*
X117302500Y-123380000D01*
G75*
G02*
X117125000Y-123202500I0J177500D01*
G01*
G37*
G36*
G01*
X111925000Y-123202500D02*
X111925000Y-122847500D01*
G75*
G02*
X112102500Y-122670000I177500J0D01*
G01*
X114057500Y-122670000D01*
G75*
G02*
X114235000Y-122847500I0J-177500D01*
G01*
X114235000Y-123202500D01*
G75*
G02*
X114057500Y-123380000I-177500J0D01*
G01*
X112102500Y-123380000D01*
G75*
G02*
X111925000Y-123202500I0J177500D01*
G01*
G37*
G36*
G01*
X111925000Y-121932500D02*
X111925000Y-121577500D01*
G75*
G02*
X112102500Y-121400000I177500J0D01*
G01*
X114057500Y-121400000D01*
G75*
G02*
X114235000Y-121577500I0J-177500D01*
G01*
X114235000Y-121932500D01*
G75*
G02*
X114057500Y-122110000I-177500J0D01*
G01*
X112102500Y-122110000D01*
G75*
G02*
X111925000Y-121932500I0J177500D01*
G01*
G37*
G36*
G01*
X111925000Y-120662500D02*
X111925000Y-120307500D01*
G75*
G02*
X112102500Y-120130000I177500J0D01*
G01*
X114057500Y-120130000D01*
G75*
G02*
X114235000Y-120307500I0J-177500D01*
G01*
X114235000Y-120662500D01*
G75*
G02*
X114057500Y-120840000I-177500J0D01*
G01*
X112102500Y-120840000D01*
G75*
G02*
X111925000Y-120662500I0J177500D01*
G01*
G37*
G36*
G01*
X111925000Y-119392500D02*
X111925000Y-119037500D01*
G75*
G02*
X112102500Y-118860000I177500J0D01*
G01*
X114057500Y-118860000D01*
G75*
G02*
X114235000Y-119037500I0J-177500D01*
G01*
X114235000Y-119392500D01*
G75*
G02*
X114057500Y-119570000I-177500J0D01*
G01*
X112102500Y-119570000D01*
G75*
G02*
X111925000Y-119392500I0J177500D01*
G01*
G37*
G36*
G01*
X124607500Y-122425000D02*
X123852500Y-122425000D01*
G75*
G02*
X123575000Y-122147500I0J277500D01*
G01*
X123575000Y-121592500D01*
G75*
G02*
X123852500Y-121315000I277500J0D01*
G01*
X124607500Y-121315000D01*
G75*
G02*
X124885000Y-121592500I0J-277500D01*
G01*
X124885000Y-122147500D01*
G75*
G02*
X124607500Y-122425000I-277500J0D01*
G01*
G37*
G36*
G01*
X124707500Y-120525000D02*
X123752500Y-120525000D01*
G75*
G02*
X123575000Y-120347500I0J177500D01*
G01*
X123575000Y-119992500D01*
G75*
G02*
X123752500Y-119815000I177500J0D01*
G01*
X124707500Y-119815000D01*
G75*
G02*
X124885000Y-119992500I0J-177500D01*
G01*
X124885000Y-120347500D01*
G75*
G02*
X124707500Y-120525000I-177500J0D01*
G01*
G37*
G36*
G01*
X122207500Y-120525000D02*
X121252500Y-120525000D01*
G75*
G02*
X121075000Y-120347500I0J177500D01*
G01*
X121075000Y-119992500D01*
G75*
G02*
X121252500Y-119815000I177500J0D01*
G01*
X122207500Y-119815000D01*
G75*
G02*
X122385000Y-119992500I0J-177500D01*
G01*
X122385000Y-120347500D01*
G75*
G02*
X122207500Y-120525000I-177500J0D01*
G01*
G37*
G36*
G01*
X122207500Y-122425000D02*
X121252500Y-122425000D01*
G75*
G02*
X121075000Y-122247500I0J177500D01*
G01*
X121075000Y-121892500D01*
G75*
G02*
X121252500Y-121715000I177500J0D01*
G01*
X122207500Y-121715000D01*
G75*
G02*
X122385000Y-121892500I0J-177500D01*
G01*
X122385000Y-122247500D01*
G75*
G02*
X122207500Y-122425000I-177500J0D01*
G01*
G37*
G36*
G01*
X124400000Y-98635000D02*
X124400000Y-96405000D01*
G75*
G02*
X124840000Y-95965000I440000J0D01*
G01*
X125720000Y-95965000D01*
G75*
G02*
X126160000Y-96405000I0J-440000D01*
G01*
X126160000Y-98635000D01*
G75*
G02*
X125720000Y-99075000I-440000J0D01*
G01*
X124840000Y-99075000D01*
G75*
G02*
X124400000Y-98635000I0J440000D01*
G01*
G37*
G36*
G01*
X126300000Y-98635000D02*
X126300000Y-96405000D01*
G75*
G02*
X126740000Y-95965000I440000J0D01*
G01*
X127620000Y-95965000D01*
G75*
G02*
X128060000Y-96405000I0J-440000D01*
G01*
X128060000Y-98635000D01*
G75*
G02*
X127620000Y-99075000I-440000J0D01*
G01*
X126740000Y-99075000D01*
G75*
G02*
X126300000Y-98635000I0J440000D01*
G01*
G37*
G36*
G01*
X128200000Y-98635000D02*
X128200000Y-96405000D01*
G75*
G02*
X128640000Y-95965000I440000J0D01*
G01*
X129520000Y-95965000D01*
G75*
G02*
X129960000Y-96405000I0J-440000D01*
G01*
X129960000Y-98635000D01*
G75*
G02*
X129520000Y-99075000I-440000J0D01*
G01*
X128640000Y-99075000D01*
G75*
G02*
X128200000Y-98635000I0J440000D01*
G01*
G37*
G36*
G01*
X130100000Y-98635000D02*
X130100000Y-96405000D01*
G75*
G02*
X130540000Y-95965000I440000J0D01*
G01*
X131420000Y-95965000D01*
G75*
G02*
X131860000Y-96405000I0J-440000D01*
G01*
X131860000Y-98635000D01*
G75*
G02*
X131420000Y-99075000I-440000J0D01*
G01*
X130540000Y-99075000D01*
G75*
G02*
X130100000Y-98635000I0J440000D01*
G01*
G37*
G36*
G01*
X132000000Y-98635000D02*
X132000000Y-96405000D01*
G75*
G02*
X132440000Y-95965000I440000J0D01*
G01*
X133320000Y-95965000D01*
G75*
G02*
X133760000Y-96405000I0J-440000D01*
G01*
X133760000Y-98635000D01*
G75*
G02*
X133320000Y-99075000I-440000J0D01*
G01*
X132440000Y-99075000D01*
G75*
G02*
X132000000Y-98635000I0J440000D01*
G01*
G37*
G36*
G01*
X132000000Y-113635000D02*
X132000000Y-111405000D01*
G75*
G02*
X132440000Y-110965000I440000J0D01*
G01*
X133320000Y-110965000D01*
G75*
G02*
X133760000Y-111405000I0J-440000D01*
G01*
X133760000Y-113635000D01*
G75*
G02*
X133320000Y-114075000I-440000J0D01*
G01*
X132440000Y-114075000D01*
G75*
G02*
X132000000Y-113635000I0J440000D01*
G01*
G37*
G36*
G01*
X130100000Y-113635000D02*
X130100000Y-111405000D01*
G75*
G02*
X130540000Y-110965000I440000J0D01*
G01*
X131420000Y-110965000D01*
G75*
G02*
X131860000Y-111405000I0J-440000D01*
G01*
X131860000Y-113635000D01*
G75*
G02*
X131420000Y-114075000I-440000J0D01*
G01*
X130540000Y-114075000D01*
G75*
G02*
X130100000Y-113635000I0J440000D01*
G01*
G37*
G36*
G01*
X128200000Y-113635000D02*
X128200000Y-111405000D01*
G75*
G02*
X128640000Y-110965000I440000J0D01*
G01*
X129520000Y-110965000D01*
G75*
G02*
X129960000Y-111405000I0J-440000D01*
G01*
X129960000Y-113635000D01*
G75*
G02*
X129520000Y-114075000I-440000J0D01*
G01*
X128640000Y-114075000D01*
G75*
G02*
X128200000Y-113635000I0J440000D01*
G01*
G37*
G36*
G01*
X126300000Y-113635000D02*
X126300000Y-111405000D01*
G75*
G02*
X126740000Y-110965000I440000J0D01*
G01*
X127620000Y-110965000D01*
G75*
G02*
X128060000Y-111405000I0J-440000D01*
G01*
X128060000Y-113635000D01*
G75*
G02*
X127620000Y-114075000I-440000J0D01*
G01*
X126740000Y-114075000D01*
G75*
G02*
X126300000Y-113635000I0J440000D01*
G01*
G37*
G36*
G01*
X124400000Y-113635000D02*
X124400000Y-111405000D01*
G75*
G02*
X124840000Y-110965000I440000J0D01*
G01*
X125720000Y-110965000D01*
G75*
G02*
X126160000Y-111405000I0J-440000D01*
G01*
X126160000Y-113635000D01*
G75*
G02*
X125720000Y-114075000I-440000J0D01*
G01*
X124840000Y-114075000D01*
G75*
G02*
X124400000Y-113635000I0J440000D01*
G01*
G37*
G36*
G01*
X134400000Y-98635000D02*
X134400000Y-96405000D01*
G75*
G02*
X134840000Y-95965000I440000J0D01*
G01*
X135720000Y-95965000D01*
G75*
G02*
X136160000Y-96405000I0J-440000D01*
G01*
X136160000Y-98635000D01*
G75*
G02*
X135720000Y-99075000I-440000J0D01*
G01*
X134840000Y-99075000D01*
G75*
G02*
X134400000Y-98635000I0J440000D01*
G01*
G37*
G36*
G01*
X136300000Y-98635000D02*
X136300000Y-96405000D01*
G75*
G02*
X136740000Y-95965000I440000J0D01*
G01*
X137620000Y-95965000D01*
G75*
G02*
X138060000Y-96405000I0J-440000D01*
G01*
X138060000Y-98635000D01*
G75*
G02*
X137620000Y-99075000I-440000J0D01*
G01*
X136740000Y-99075000D01*
G75*
G02*
X136300000Y-98635000I0J440000D01*
G01*
G37*
G36*
G01*
X138200000Y-98635000D02*
X138200000Y-96405000D01*
G75*
G02*
X138640000Y-95965000I440000J0D01*
G01*
X139520000Y-95965000D01*
G75*
G02*
X139960000Y-96405000I0J-440000D01*
G01*
X139960000Y-98635000D01*
G75*
G02*
X139520000Y-99075000I-440000J0D01*
G01*
X138640000Y-99075000D01*
G75*
G02*
X138200000Y-98635000I0J440000D01*
G01*
G37*
G36*
G01*
X140100000Y-98635000D02*
X140100000Y-96405000D01*
G75*
G02*
X140540000Y-95965000I440000J0D01*
G01*
X141420000Y-95965000D01*
G75*
G02*
X141860000Y-96405000I0J-440000D01*
G01*
X141860000Y-98635000D01*
G75*
G02*
X141420000Y-99075000I-440000J0D01*
G01*
X140540000Y-99075000D01*
G75*
G02*
X140100000Y-98635000I0J440000D01*
G01*
G37*
G36*
G01*
X142000000Y-98635000D02*
X142000000Y-96405000D01*
G75*
G02*
X142440000Y-95965000I440000J0D01*
G01*
X143320000Y-95965000D01*
G75*
G02*
X143760000Y-96405000I0J-440000D01*
G01*
X143760000Y-98635000D01*
G75*
G02*
X143320000Y-99075000I-440000J0D01*
G01*
X142440000Y-99075000D01*
G75*
G02*
X142000000Y-98635000I0J440000D01*
G01*
G37*
G36*
G01*
X142000000Y-113635000D02*
X142000000Y-111405000D01*
G75*
G02*
X142440000Y-110965000I440000J0D01*
G01*
X143320000Y-110965000D01*
G75*
G02*
X143760000Y-111405000I0J-440000D01*
G01*
X143760000Y-113635000D01*
G75*
G02*
X143320000Y-114075000I-440000J0D01*
G01*
X142440000Y-114075000D01*
G75*
G02*
X142000000Y-113635000I0J440000D01*
G01*
G37*
G36*
G01*
X140100000Y-113635000D02*
X140100000Y-111405000D01*
G75*
G02*
X140540000Y-110965000I440000J0D01*
G01*
X141420000Y-110965000D01*
G75*
G02*
X141860000Y-111405000I0J-440000D01*
G01*
X141860000Y-113635000D01*
G75*
G02*
X141420000Y-114075000I-440000J0D01*
G01*
X140540000Y-114075000D01*
G75*
G02*
X140100000Y-113635000I0J440000D01*
G01*
G37*
G36*
G01*
X138200000Y-113635000D02*
X138200000Y-111405000D01*
G75*
G02*
X138640000Y-110965000I440000J0D01*
G01*
X139520000Y-110965000D01*
G75*
G02*
X139960000Y-111405000I0J-440000D01*
G01*
X139960000Y-113635000D01*
G75*
G02*
X139520000Y-114075000I-440000J0D01*
G01*
X138640000Y-114075000D01*
G75*
G02*
X138200000Y-113635000I0J440000D01*
G01*
G37*
G36*
G01*
X136300000Y-113635000D02*
X136300000Y-111405000D01*
G75*
G02*
X136740000Y-110965000I440000J0D01*
G01*
X137620000Y-110965000D01*
G75*
G02*
X138060000Y-111405000I0J-440000D01*
G01*
X138060000Y-113635000D01*
G75*
G02*
X137620000Y-114075000I-440000J0D01*
G01*
X136740000Y-114075000D01*
G75*
G02*
X136300000Y-113635000I0J440000D01*
G01*
G37*
G36*
G01*
X134400000Y-113635000D02*
X134400000Y-111405000D01*
G75*
G02*
X134840000Y-110965000I440000J0D01*
G01*
X135720000Y-110965000D01*
G75*
G02*
X136160000Y-111405000I0J-440000D01*
G01*
X136160000Y-113635000D01*
G75*
G02*
X135720000Y-114075000I-440000J0D01*
G01*
X134840000Y-114075000D01*
G75*
G02*
X134400000Y-113635000I0J440000D01*
G01*
G37*
G36*
G01*
X151600000Y-98635000D02*
X151600000Y-96405000D01*
G75*
G02*
X152040000Y-95965000I440000J0D01*
G01*
X152920000Y-95965000D01*
G75*
G02*
X153360000Y-96405000I0J-440000D01*
G01*
X153360000Y-98635000D01*
G75*
G02*
X152920000Y-99075000I-440000J0D01*
G01*
X152040000Y-99075000D01*
G75*
G02*
X151600000Y-98635000I0J440000D01*
G01*
G37*
G36*
G01*
X153500000Y-98635000D02*
X153500000Y-96405000D01*
G75*
G02*
X153940000Y-95965000I440000J0D01*
G01*
X154820000Y-95965000D01*
G75*
G02*
X155260000Y-96405000I0J-440000D01*
G01*
X155260000Y-98635000D01*
G75*
G02*
X154820000Y-99075000I-440000J0D01*
G01*
X153940000Y-99075000D01*
G75*
G02*
X153500000Y-98635000I0J440000D01*
G01*
G37*
G36*
G01*
X155400000Y-98635000D02*
X155400000Y-96405000D01*
G75*
G02*
X155840000Y-95965000I440000J0D01*
G01*
X156720000Y-95965000D01*
G75*
G02*
X157160000Y-96405000I0J-440000D01*
G01*
X157160000Y-98635000D01*
G75*
G02*
X156720000Y-99075000I-440000J0D01*
G01*
X155840000Y-99075000D01*
G75*
G02*
X155400000Y-98635000I0J440000D01*
G01*
G37*
G36*
G01*
X157300000Y-98635000D02*
X157300000Y-96405000D01*
G75*
G02*
X157740000Y-95965000I440000J0D01*
G01*
X158620000Y-95965000D01*
G75*
G02*
X159060000Y-96405000I0J-440000D01*
G01*
X159060000Y-98635000D01*
G75*
G02*
X158620000Y-99075000I-440000J0D01*
G01*
X157740000Y-99075000D01*
G75*
G02*
X157300000Y-98635000I0J440000D01*
G01*
G37*
G36*
G01*
X159200000Y-98635000D02*
X159200000Y-96405000D01*
G75*
G02*
X159640000Y-95965000I440000J0D01*
G01*
X160520000Y-95965000D01*
G75*
G02*
X160960000Y-96405000I0J-440000D01*
G01*
X160960000Y-98635000D01*
G75*
G02*
X160520000Y-99075000I-440000J0D01*
G01*
X159640000Y-99075000D01*
G75*
G02*
X159200000Y-98635000I0J440000D01*
G01*
G37*
G36*
G01*
X159200000Y-113635000D02*
X159200000Y-111405000D01*
G75*
G02*
X159640000Y-110965000I440000J0D01*
G01*
X160520000Y-110965000D01*
G75*
G02*
X160960000Y-111405000I0J-440000D01*
G01*
X160960000Y-113635000D01*
G75*
G02*
X160520000Y-114075000I-440000J0D01*
G01*
X159640000Y-114075000D01*
G75*
G02*
X159200000Y-113635000I0J440000D01*
G01*
G37*
G36*
G01*
X157300000Y-113635000D02*
X157300000Y-111405000D01*
G75*
G02*
X157740000Y-110965000I440000J0D01*
G01*
X158620000Y-110965000D01*
G75*
G02*
X159060000Y-111405000I0J-440000D01*
G01*
X159060000Y-113635000D01*
G75*
G02*
X158620000Y-114075000I-440000J0D01*
G01*
X157740000Y-114075000D01*
G75*
G02*
X157300000Y-113635000I0J440000D01*
G01*
G37*
G36*
G01*
X155400000Y-113635000D02*
X155400000Y-111405000D01*
G75*
G02*
X155840000Y-110965000I440000J0D01*
G01*
X156720000Y-110965000D01*
G75*
G02*
X157160000Y-111405000I0J-440000D01*
G01*
X157160000Y-113635000D01*
G75*
G02*
X156720000Y-114075000I-440000J0D01*
G01*
X155840000Y-114075000D01*
G75*
G02*
X155400000Y-113635000I0J440000D01*
G01*
G37*
G36*
G01*
X153500000Y-113635000D02*
X153500000Y-111405000D01*
G75*
G02*
X153940000Y-110965000I440000J0D01*
G01*
X154820000Y-110965000D01*
G75*
G02*
X155260000Y-111405000I0J-440000D01*
G01*
X155260000Y-113635000D01*
G75*
G02*
X154820000Y-114075000I-440000J0D01*
G01*
X153940000Y-114075000D01*
G75*
G02*
X153500000Y-113635000I0J440000D01*
G01*
G37*
G36*
G01*
X151600000Y-113635000D02*
X151600000Y-111405000D01*
G75*
G02*
X152040000Y-110965000I440000J0D01*
G01*
X152920000Y-110965000D01*
G75*
G02*
X153360000Y-111405000I0J-440000D01*
G01*
X153360000Y-113635000D01*
G75*
G02*
X152920000Y-114075000I-440000J0D01*
G01*
X152040000Y-114075000D01*
G75*
G02*
X151600000Y-113635000I0J440000D01*
G01*
G37*
G36*
G01*
X110805000Y-119732500D02*
X110805000Y-120387500D01*
G75*
G02*
X110477500Y-120715000I-327500J0D01*
G01*
X109322500Y-120715000D01*
G75*
G02*
X108995000Y-120387500I0J327500D01*
G01*
X108995000Y-119732500D01*
G75*
G02*
X109322500Y-119405000I327500J0D01*
G01*
X110477500Y-119405000D01*
G75*
G02*
X110805000Y-119732500I0J-327500D01*
G01*
G37*
G36*
G01*
X110805000Y-117732500D02*
X110805000Y-118387500D01*
G75*
G02*
X110477500Y-118715000I-327500J0D01*
G01*
X109322500Y-118715000D01*
G75*
G02*
X108995000Y-118387500I0J327500D01*
G01*
X108995000Y-117732500D01*
G75*
G02*
X109322500Y-117405000I327500J0D01*
G01*
X110477500Y-117405000D01*
G75*
G02*
X110805000Y-117732500I0J-327500D01*
G01*
G37*
G36*
G01*
X105095000Y-119487500D02*
X105095000Y-118632500D01*
G75*
G02*
X105522500Y-118205000I427500J0D01*
G01*
X106777500Y-118205000D01*
G75*
G02*
X107205000Y-118632500I0J-427500D01*
G01*
X107205000Y-119487500D01*
G75*
G02*
X106777500Y-119915000I-427500J0D01*
G01*
X105522500Y-119915000D01*
G75*
G02*
X105095000Y-119487500I0J427500D01*
G01*
G37*
G36*
G01*
X188825000Y-94067915D02*
X188825000Y-95032085D01*
G75*
G02*
X188552085Y-95305000I-272915J0D01*
G01*
X187787915Y-95305000D01*
G75*
G02*
X187515000Y-95032085I0J272915D01*
G01*
X187515000Y-94067915D01*
G75*
G02*
X187787915Y-93795000I272915J0D01*
G01*
X188552085Y-93795000D01*
G75*
G02*
X188825000Y-94067915I0J-272915D01*
G01*
G37*
G36*
G01*
X190825000Y-94067915D02*
X190825000Y-95032085D01*
G75*
G02*
X190552085Y-95305000I-272915J0D01*
G01*
X189787915Y-95305000D01*
G75*
G02*
X189515000Y-95032085I0J272915D01*
G01*
X189515000Y-94067915D01*
G75*
G02*
X189787915Y-93795000I272915J0D01*
G01*
X190552085Y-93795000D01*
G75*
G02*
X190825000Y-94067915I0J-272915D01*
G01*
G37*
G36*
G01*
X194562085Y-107485000D02*
X193597915Y-107485000D01*
G75*
G02*
X193325000Y-107212085I0J272915D01*
G01*
X193325000Y-106447915D01*
G75*
G02*
X193597915Y-106175000I272915J0D01*
G01*
X194562085Y-106175000D01*
G75*
G02*
X194835000Y-106447915I0J-272915D01*
G01*
X194835000Y-107212085D01*
G75*
G02*
X194562085Y-107485000I-272915J0D01*
G01*
G37*
G36*
G01*
X194562085Y-109485000D02*
X193597915Y-109485000D01*
G75*
G02*
X193325000Y-109212085I0J272915D01*
G01*
X193325000Y-108447915D01*
G75*
G02*
X193597915Y-108175000I272915J0D01*
G01*
X194562085Y-108175000D01*
G75*
G02*
X194835000Y-108447915I0J-272915D01*
G01*
X194835000Y-109212085D01*
G75*
G02*
X194562085Y-109485000I-272915J0D01*
G01*
G37*
G36*
G01*
X107795000Y-115177915D02*
X107795000Y-116142085D01*
G75*
G02*
X107522085Y-116415000I-272915J0D01*
G01*
X106757915Y-116415000D01*
G75*
G02*
X106485000Y-116142085I0J272915D01*
G01*
X106485000Y-115177915D01*
G75*
G02*
X106757915Y-114905000I272915J0D01*
G01*
X107522085Y-114905000D01*
G75*
G02*
X107795000Y-115177915I0J-272915D01*
G01*
G37*
G36*
G01*
X109795000Y-115177915D02*
X109795000Y-116142085D01*
G75*
G02*
X109522085Y-116415000I-272915J0D01*
G01*
X108757915Y-116415000D01*
G75*
G02*
X108485000Y-116142085I0J272915D01*
G01*
X108485000Y-115177915D01*
G75*
G02*
X108757915Y-114905000I272915J0D01*
G01*
X109522085Y-114905000D01*
G75*
G02*
X109795000Y-115177915I0J-272915D01*
G01*
G37*
G36*
G01*
X141762085Y-127075000D02*
X140797915Y-127075000D01*
G75*
G02*
X140525000Y-126802085I0J272915D01*
G01*
X140525000Y-126037915D01*
G75*
G02*
X140797915Y-125765000I272915J0D01*
G01*
X141762085Y-125765000D01*
G75*
G02*
X142035000Y-126037915I0J-272915D01*
G01*
X142035000Y-126802085D01*
G75*
G02*
X141762085Y-127075000I-272915J0D01*
G01*
G37*
G36*
G01*
X141762085Y-129075000D02*
X140797915Y-129075000D01*
G75*
G02*
X140525000Y-128802085I0J272915D01*
G01*
X140525000Y-128037915D01*
G75*
G02*
X140797915Y-127765000I272915J0D01*
G01*
X141762085Y-127765000D01*
G75*
G02*
X142035000Y-128037915I0J-272915D01*
G01*
X142035000Y-128802085D01*
G75*
G02*
X141762085Y-129075000I-272915J0D01*
G01*
G37*
G36*
G01*
X184275000Y-116801152D02*
X184275000Y-118118848D01*
G75*
G02*
X184003848Y-118390000I-271152J0D01*
G01*
X183136152Y-118390000D01*
G75*
G02*
X182865000Y-118118848I0J271152D01*
G01*
X182865000Y-116801152D01*
G75*
G02*
X183136152Y-116530000I271152J0D01*
G01*
X184003848Y-116530000D01*
G75*
G02*
X184275000Y-116801152I0J-271152D01*
G01*
G37*
G36*
G01*
X187375000Y-116801152D02*
X187375000Y-118118848D01*
G75*
G02*
X187103848Y-118390000I-271152J0D01*
G01*
X186236152Y-118390000D01*
G75*
G02*
X185965000Y-118118848I0J271152D01*
G01*
X185965000Y-116801152D01*
G75*
G02*
X186236152Y-116530000I271152J0D01*
G01*
X187103848Y-116530000D01*
G75*
G02*
X187375000Y-116801152I0J-271152D01*
G01*
G37*
G36*
G01*
X173535000Y-96861152D02*
X173535000Y-98178848D01*
G75*
G02*
X173263848Y-98450000I-271152J0D01*
G01*
X172396152Y-98450000D01*
G75*
G02*
X172125000Y-98178848I0J271152D01*
G01*
X172125000Y-96861152D01*
G75*
G02*
X172396152Y-96590000I271152J0D01*
G01*
X173263848Y-96590000D01*
G75*
G02*
X173535000Y-96861152I0J-271152D01*
G01*
G37*
G36*
G01*
X176635000Y-96861152D02*
X176635000Y-98178848D01*
G75*
G02*
X176363848Y-98450000I-271152J0D01*
G01*
X175496152Y-98450000D01*
G75*
G02*
X175225000Y-98178848I0J271152D01*
G01*
X175225000Y-96861152D01*
G75*
G02*
X175496152Y-96590000I271152J0D01*
G01*
X176363848Y-96590000D01*
G75*
G02*
X176635000Y-96861152I0J-271152D01*
G01*
G37*
G36*
G01*
X175225000Y-113178848D02*
X175225000Y-111861152D01*
G75*
G02*
X175496152Y-111590000I271152J0D01*
G01*
X176363848Y-111590000D01*
G75*
G02*
X176635000Y-111861152I0J-271152D01*
G01*
X176635000Y-113178848D01*
G75*
G02*
X176363848Y-113450000I-271152J0D01*
G01*
X175496152Y-113450000D01*
G75*
G02*
X175225000Y-113178848I0J271152D01*
G01*
G37*
G36*
G01*
X172125000Y-113178848D02*
X172125000Y-111861152D01*
G75*
G02*
X172396152Y-111590000I271152J0D01*
G01*
X173263848Y-111590000D01*
G75*
G02*
X173535000Y-111861152I0J-271152D01*
G01*
X173535000Y-113178848D01*
G75*
G02*
X173263848Y-113450000I-271152J0D01*
G01*
X172396152Y-113450000D01*
G75*
G02*
X172125000Y-113178848I0J271152D01*
G01*
G37*
G36*
G01*
X173535000Y-99361152D02*
X173535000Y-100678848D01*
G75*
G02*
X173263848Y-100950000I-271152J0D01*
G01*
X172396152Y-100950000D01*
G75*
G02*
X172125000Y-100678848I0J271152D01*
G01*
X172125000Y-99361152D01*
G75*
G02*
X172396152Y-99090000I271152J0D01*
G01*
X173263848Y-99090000D01*
G75*
G02*
X173535000Y-99361152I0J-271152D01*
G01*
G37*
G36*
G01*
X176635000Y-99361152D02*
X176635000Y-100678848D01*
G75*
G02*
X176363848Y-100950000I-271152J0D01*
G01*
X175496152Y-100950000D01*
G75*
G02*
X175225000Y-100678848I0J271152D01*
G01*
X175225000Y-99361152D01*
G75*
G02*
X175496152Y-99090000I271152J0D01*
G01*
X176363848Y-99090000D01*
G75*
G02*
X176635000Y-99361152I0J-271152D01*
G01*
G37*
G36*
G01*
X175225000Y-110668848D02*
X175225000Y-109351152D01*
G75*
G02*
X175496152Y-109080000I271152J0D01*
G01*
X176363848Y-109080000D01*
G75*
G02*
X176635000Y-109351152I0J-271152D01*
G01*
X176635000Y-110668848D01*
G75*
G02*
X176363848Y-110940000I-271152J0D01*
G01*
X175496152Y-110940000D01*
G75*
G02*
X175225000Y-110668848I0J271152D01*
G01*
G37*
G36*
G01*
X172125000Y-110668848D02*
X172125000Y-109351152D01*
G75*
G02*
X172396152Y-109080000I271152J0D01*
G01*
X173263848Y-109080000D01*
G75*
G02*
X173535000Y-109351152I0J-271152D01*
G01*
X173535000Y-110668848D01*
G75*
G02*
X173263848Y-110940000I-271152J0D01*
G01*
X172396152Y-110940000D01*
G75*
G02*
X172125000Y-110668848I0J271152D01*
G01*
G37*
G36*
G01*
X178735000Y-96861152D02*
X178735000Y-98178848D01*
G75*
G02*
X178463848Y-98450000I-271152J0D01*
G01*
X177596152Y-98450000D01*
G75*
G02*
X177325000Y-98178848I0J271152D01*
G01*
X177325000Y-96861152D01*
G75*
G02*
X177596152Y-96590000I271152J0D01*
G01*
X178463848Y-96590000D01*
G75*
G02*
X178735000Y-96861152I0J-271152D01*
G01*
G37*
G36*
G01*
X181835000Y-96861152D02*
X181835000Y-98178848D01*
G75*
G02*
X181563848Y-98450000I-271152J0D01*
G01*
X180696152Y-98450000D01*
G75*
G02*
X180425000Y-98178848I0J271152D01*
G01*
X180425000Y-96861152D01*
G75*
G02*
X180696152Y-96590000I271152J0D01*
G01*
X181563848Y-96590000D01*
G75*
G02*
X181835000Y-96861152I0J-271152D01*
G01*
G37*
G36*
G01*
X175225000Y-108178848D02*
X175225000Y-106861152D01*
G75*
G02*
X175496152Y-106590000I271152J0D01*
G01*
X176363848Y-106590000D01*
G75*
G02*
X176635000Y-106861152I0J-271152D01*
G01*
X176635000Y-108178848D01*
G75*
G02*
X176363848Y-108450000I-271152J0D01*
G01*
X175496152Y-108450000D01*
G75*
G02*
X175225000Y-108178848I0J271152D01*
G01*
G37*
G36*
G01*
X172125000Y-108178848D02*
X172125000Y-106861152D01*
G75*
G02*
X172396152Y-106590000I271152J0D01*
G01*
X173263848Y-106590000D01*
G75*
G02*
X173535000Y-106861152I0J-271152D01*
G01*
X173535000Y-108178848D01*
G75*
G02*
X173263848Y-108450000I-271152J0D01*
G01*
X172396152Y-108450000D01*
G75*
G02*
X172125000Y-108178848I0J271152D01*
G01*
G37*
G36*
G01*
X178735000Y-99361152D02*
X178735000Y-100678848D01*
G75*
G02*
X178463848Y-100950000I-271152J0D01*
G01*
X177596152Y-100950000D01*
G75*
G02*
X177325000Y-100678848I0J271152D01*
G01*
X177325000Y-99361152D01*
G75*
G02*
X177596152Y-99090000I271152J0D01*
G01*
X178463848Y-99090000D01*
G75*
G02*
X178735000Y-99361152I0J-271152D01*
G01*
G37*
G36*
G01*
X181835000Y-99361152D02*
X181835000Y-100678848D01*
G75*
G02*
X181563848Y-100950000I-271152J0D01*
G01*
X180696152Y-100950000D01*
G75*
G02*
X180425000Y-100678848I0J271152D01*
G01*
X180425000Y-99361152D01*
G75*
G02*
X180696152Y-99090000I271152J0D01*
G01*
X181563848Y-99090000D01*
G75*
G02*
X181835000Y-99361152I0J-271152D01*
G01*
G37*
G36*
G01*
X173535000Y-101861152D02*
X173535000Y-103178848D01*
G75*
G02*
X173263848Y-103450000I-271152J0D01*
G01*
X172396152Y-103450000D01*
G75*
G02*
X172125000Y-103178848I0J271152D01*
G01*
X172125000Y-101861152D01*
G75*
G02*
X172396152Y-101590000I271152J0D01*
G01*
X173263848Y-101590000D01*
G75*
G02*
X173535000Y-101861152I0J-271152D01*
G01*
G37*
G36*
G01*
X176635000Y-101861152D02*
X176635000Y-103178848D01*
G75*
G02*
X176363848Y-103450000I-271152J0D01*
G01*
X175496152Y-103450000D01*
G75*
G02*
X175225000Y-103178848I0J271152D01*
G01*
X175225000Y-101861152D01*
G75*
G02*
X175496152Y-101590000I271152J0D01*
G01*
X176363848Y-101590000D01*
G75*
G02*
X176635000Y-101861152I0J-271152D01*
G01*
G37*
G36*
G01*
X180425000Y-108178848D02*
X180425000Y-106861152D01*
G75*
G02*
X180696152Y-106590000I271152J0D01*
G01*
X181563848Y-106590000D01*
G75*
G02*
X181835000Y-106861152I0J-271152D01*
G01*
X181835000Y-108178848D01*
G75*
G02*
X181563848Y-108450000I-271152J0D01*
G01*
X180696152Y-108450000D01*
G75*
G02*
X180425000Y-108178848I0J271152D01*
G01*
G37*
G36*
G01*
X177325000Y-108178848D02*
X177325000Y-106861152D01*
G75*
G02*
X177596152Y-106590000I271152J0D01*
G01*
X178463848Y-106590000D01*
G75*
G02*
X178735000Y-106861152I0J-271152D01*
G01*
X178735000Y-108178848D01*
G75*
G02*
X178463848Y-108450000I-271152J0D01*
G01*
X177596152Y-108450000D01*
G75*
G02*
X177325000Y-108178848I0J271152D01*
G01*
G37*
G36*
G01*
X178735000Y-104361152D02*
X178735000Y-105678848D01*
G75*
G02*
X178463848Y-105950000I-271152J0D01*
G01*
X177596152Y-105950000D01*
G75*
G02*
X177325000Y-105678848I0J271152D01*
G01*
X177325000Y-104361152D01*
G75*
G02*
X177596152Y-104090000I271152J0D01*
G01*
X178463848Y-104090000D01*
G75*
G02*
X178735000Y-104361152I0J-271152D01*
G01*
G37*
G36*
G01*
X181835000Y-104361152D02*
X181835000Y-105678848D01*
G75*
G02*
X181563848Y-105950000I-271152J0D01*
G01*
X180696152Y-105950000D01*
G75*
G02*
X180425000Y-105678848I0J271152D01*
G01*
X180425000Y-104361152D01*
G75*
G02*
X180696152Y-104090000I271152J0D01*
G01*
X181563848Y-104090000D01*
G75*
G02*
X181835000Y-104361152I0J-271152D01*
G01*
G37*
G36*
G01*
X180425000Y-110678848D02*
X180425000Y-109361152D01*
G75*
G02*
X180696152Y-109090000I271152J0D01*
G01*
X181563848Y-109090000D01*
G75*
G02*
X181835000Y-109361152I0J-271152D01*
G01*
X181835000Y-110678848D01*
G75*
G02*
X181563848Y-110950000I-271152J0D01*
G01*
X180696152Y-110950000D01*
G75*
G02*
X180425000Y-110678848I0J271152D01*
G01*
G37*
G36*
G01*
X177325000Y-110678848D02*
X177325000Y-109361152D01*
G75*
G02*
X177596152Y-109090000I271152J0D01*
G01*
X178463848Y-109090000D01*
G75*
G02*
X178735000Y-109361152I0J-271152D01*
G01*
X178735000Y-110678848D01*
G75*
G02*
X178463848Y-110950000I-271152J0D01*
G01*
X177596152Y-110950000D01*
G75*
G02*
X177325000Y-110678848I0J271152D01*
G01*
G37*
G36*
G01*
X178735000Y-101861152D02*
X178735000Y-103178848D01*
G75*
G02*
X178463848Y-103450000I-271152J0D01*
G01*
X177596152Y-103450000D01*
G75*
G02*
X177325000Y-103178848I0J271152D01*
G01*
X177325000Y-101861152D01*
G75*
G02*
X177596152Y-101590000I271152J0D01*
G01*
X178463848Y-101590000D01*
G75*
G02*
X178735000Y-101861152I0J-271152D01*
G01*
G37*
G36*
G01*
X181835000Y-101861152D02*
X181835000Y-103178848D01*
G75*
G02*
X181563848Y-103450000I-271152J0D01*
G01*
X180696152Y-103450000D01*
G75*
G02*
X180425000Y-103178848I0J271152D01*
G01*
X180425000Y-101861152D01*
G75*
G02*
X180696152Y-101590000I271152J0D01*
G01*
X181563848Y-101590000D01*
G75*
G02*
X181835000Y-101861152I0J-271152D01*
G01*
G37*
G36*
G01*
X180425000Y-113178848D02*
X180425000Y-111861152D01*
G75*
G02*
X180696152Y-111590000I271152J0D01*
G01*
X181563848Y-111590000D01*
G75*
G02*
X181835000Y-111861152I0J-271152D01*
G01*
X181835000Y-113178848D01*
G75*
G02*
X181563848Y-113450000I-271152J0D01*
G01*
X180696152Y-113450000D01*
G75*
G02*
X180425000Y-113178848I0J271152D01*
G01*
G37*
G36*
G01*
X177325000Y-113178848D02*
X177325000Y-111861152D01*
G75*
G02*
X177596152Y-111590000I271152J0D01*
G01*
X178463848Y-111590000D01*
G75*
G02*
X178735000Y-111861152I0J-271152D01*
G01*
X178735000Y-113178848D01*
G75*
G02*
X178463848Y-113450000I-271152J0D01*
G01*
X177596152Y-113450000D01*
G75*
G02*
X177325000Y-113178848I0J271152D01*
G01*
G37*
G36*
G01*
X173535000Y-104361152D02*
X173535000Y-105678848D01*
G75*
G02*
X173263848Y-105950000I-271152J0D01*
G01*
X172396152Y-105950000D01*
G75*
G02*
X172125000Y-105678848I0J271152D01*
G01*
X172125000Y-104361152D01*
G75*
G02*
X172396152Y-104090000I271152J0D01*
G01*
X173263848Y-104090000D01*
G75*
G02*
X173535000Y-104361152I0J-271152D01*
G01*
G37*
G36*
G01*
X176635000Y-104361152D02*
X176635000Y-105678848D01*
G75*
G02*
X176363848Y-105950000I-271152J0D01*
G01*
X175496152Y-105950000D01*
G75*
G02*
X175225000Y-105678848I0J271152D01*
G01*
X175225000Y-104361152D01*
G75*
G02*
X175496152Y-104090000I271152J0D01*
G01*
X176363848Y-104090000D01*
G75*
G02*
X176635000Y-104361152I0J-271152D01*
G01*
G37*
G36*
G01*
X121825000Y-98178848D02*
X121825000Y-96861152D01*
G75*
G02*
X122096152Y-96590000I271152J0D01*
G01*
X122963848Y-96590000D01*
G75*
G02*
X123235000Y-96861152I0J-271152D01*
G01*
X123235000Y-98178848D01*
G75*
G02*
X122963848Y-98450000I-271152J0D01*
G01*
X122096152Y-98450000D01*
G75*
G02*
X121825000Y-98178848I0J271152D01*
G01*
G37*
G36*
G01*
X118725000Y-98178848D02*
X118725000Y-96861152D01*
G75*
G02*
X118996152Y-96590000I271152J0D01*
G01*
X119863848Y-96590000D01*
G75*
G02*
X120135000Y-96861152I0J-271152D01*
G01*
X120135000Y-98178848D01*
G75*
G02*
X119863848Y-98450000I-271152J0D01*
G01*
X118996152Y-98450000D01*
G75*
G02*
X118725000Y-98178848I0J271152D01*
G01*
G37*
G36*
G01*
X146835000Y-99161152D02*
X146835000Y-100478848D01*
G75*
G02*
X146563848Y-100750000I-271152J0D01*
G01*
X145696152Y-100750000D01*
G75*
G02*
X145425000Y-100478848I0J271152D01*
G01*
X145425000Y-99161152D01*
G75*
G02*
X145696152Y-98890000I271152J0D01*
G01*
X146563848Y-98890000D01*
G75*
G02*
X146835000Y-99161152I0J-271152D01*
G01*
G37*
G36*
G01*
X149935000Y-99161152D02*
X149935000Y-100478848D01*
G75*
G02*
X149663848Y-100750000I-271152J0D01*
G01*
X148796152Y-100750000D01*
G75*
G02*
X148525000Y-100478848I0J271152D01*
G01*
X148525000Y-99161152D01*
G75*
G02*
X148796152Y-98890000I271152J0D01*
G01*
X149663848Y-98890000D01*
G75*
G02*
X149935000Y-99161152I0J-271152D01*
G01*
G37*
G36*
G01*
X114935000Y-111861152D02*
X114935000Y-113178848D01*
G75*
G02*
X114663848Y-113450000I-271152J0D01*
G01*
X113796152Y-113450000D01*
G75*
G02*
X113525000Y-113178848I0J271152D01*
G01*
X113525000Y-111861152D01*
G75*
G02*
X113796152Y-111590000I271152J0D01*
G01*
X114663848Y-111590000D01*
G75*
G02*
X114935000Y-111861152I0J-271152D01*
G01*
G37*
G36*
G01*
X118035000Y-111861152D02*
X118035000Y-113178848D01*
G75*
G02*
X117763848Y-113450000I-271152J0D01*
G01*
X116896152Y-113450000D01*
G75*
G02*
X116625000Y-113178848I0J271152D01*
G01*
X116625000Y-111861152D01*
G75*
G02*
X116896152Y-111590000I271152J0D01*
G01*
X117763848Y-111590000D01*
G75*
G02*
X118035000Y-111861152I0J-271152D01*
G01*
G37*
G36*
G01*
X116625000Y-101928848D02*
X116625000Y-100611152D01*
G75*
G02*
X116896152Y-100340000I271152J0D01*
G01*
X117763848Y-100340000D01*
G75*
G02*
X118035000Y-100611152I0J-271152D01*
G01*
X118035000Y-101928848D01*
G75*
G02*
X117763848Y-102200000I-271152J0D01*
G01*
X116896152Y-102200000D01*
G75*
G02*
X116625000Y-101928848I0J271152D01*
G01*
G37*
G36*
G01*
X113525000Y-101928848D02*
X113525000Y-100611152D01*
G75*
G02*
X113796152Y-100340000I271152J0D01*
G01*
X114663848Y-100340000D01*
G75*
G02*
X114935000Y-100611152I0J-271152D01*
G01*
X114935000Y-101928848D01*
G75*
G02*
X114663848Y-102200000I-271152J0D01*
G01*
X113796152Y-102200000D01*
G75*
G02*
X113525000Y-101928848I0J271152D01*
G01*
G37*
G36*
G01*
X120135000Y-111861152D02*
X120135000Y-113178848D01*
G75*
G02*
X119863848Y-113450000I-271152J0D01*
G01*
X118996152Y-113450000D01*
G75*
G02*
X118725000Y-113178848I0J271152D01*
G01*
X118725000Y-111861152D01*
G75*
G02*
X118996152Y-111590000I271152J0D01*
G01*
X119863848Y-111590000D01*
G75*
G02*
X120135000Y-111861152I0J-271152D01*
G01*
G37*
G36*
G01*
X123235000Y-111861152D02*
X123235000Y-113178848D01*
G75*
G02*
X122963848Y-113450000I-271152J0D01*
G01*
X122096152Y-113450000D01*
G75*
G02*
X121825000Y-113178848I0J271152D01*
G01*
X121825000Y-111861152D01*
G75*
G02*
X122096152Y-111590000I271152J0D01*
G01*
X122963848Y-111590000D01*
G75*
G02*
X123235000Y-111861152I0J-271152D01*
G01*
G37*
G36*
G01*
X116625000Y-105678848D02*
X116625000Y-104361152D01*
G75*
G02*
X116896152Y-104090000I271152J0D01*
G01*
X117763848Y-104090000D01*
G75*
G02*
X118035000Y-104361152I0J-271152D01*
G01*
X118035000Y-105678848D01*
G75*
G02*
X117763848Y-105950000I-271152J0D01*
G01*
X116896152Y-105950000D01*
G75*
G02*
X116625000Y-105678848I0J271152D01*
G01*
G37*
G36*
G01*
X113525000Y-105678848D02*
X113525000Y-104361152D01*
G75*
G02*
X113796152Y-104090000I271152J0D01*
G01*
X114663848Y-104090000D01*
G75*
G02*
X114935000Y-104361152I0J-271152D01*
G01*
X114935000Y-105678848D01*
G75*
G02*
X114663848Y-105950000I-271152J0D01*
G01*
X113796152Y-105950000D01*
G75*
G02*
X113525000Y-105678848I0J271152D01*
G01*
G37*
G36*
G01*
X114935000Y-108111152D02*
X114935000Y-109428848D01*
G75*
G02*
X114663848Y-109700000I-271152J0D01*
G01*
X113796152Y-109700000D01*
G75*
G02*
X113525000Y-109428848I0J271152D01*
G01*
X113525000Y-108111152D01*
G75*
G02*
X113796152Y-107840000I271152J0D01*
G01*
X114663848Y-107840000D01*
G75*
G02*
X114935000Y-108111152I0J-271152D01*
G01*
G37*
G36*
G01*
X118035000Y-108111152D02*
X118035000Y-109428848D01*
G75*
G02*
X117763848Y-109700000I-271152J0D01*
G01*
X116896152Y-109700000D01*
G75*
G02*
X116625000Y-109428848I0J271152D01*
G01*
X116625000Y-108111152D01*
G75*
G02*
X116896152Y-107840000I271152J0D01*
G01*
X117763848Y-107840000D01*
G75*
G02*
X118035000Y-108111152I0J-271152D01*
G01*
G37*
G36*
G01*
X121825000Y-103178848D02*
X121825000Y-101861152D01*
G75*
G02*
X122096152Y-101590000I271152J0D01*
G01*
X122963848Y-101590000D01*
G75*
G02*
X123235000Y-101861152I0J-271152D01*
G01*
X123235000Y-103178848D01*
G75*
G02*
X122963848Y-103450000I-271152J0D01*
G01*
X122096152Y-103450000D01*
G75*
G02*
X121825000Y-103178848I0J271152D01*
G01*
G37*
G36*
G01*
X118725000Y-103178848D02*
X118725000Y-101861152D01*
G75*
G02*
X118996152Y-101590000I271152J0D01*
G01*
X119863848Y-101590000D01*
G75*
G02*
X120135000Y-101861152I0J-271152D01*
G01*
X120135000Y-103178848D01*
G75*
G02*
X119863848Y-103450000I-271152J0D01*
G01*
X118996152Y-103450000D01*
G75*
G02*
X118725000Y-103178848I0J271152D01*
G01*
G37*
G36*
G01*
X146835000Y-109561152D02*
X146835000Y-110878848D01*
G75*
G02*
X146563848Y-111150000I-271152J0D01*
G01*
X145696152Y-111150000D01*
G75*
G02*
X145425000Y-110878848I0J271152D01*
G01*
X145425000Y-109561152D01*
G75*
G02*
X145696152Y-109290000I271152J0D01*
G01*
X146563848Y-109290000D01*
G75*
G02*
X146835000Y-109561152I0J-271152D01*
G01*
G37*
G36*
G01*
X149935000Y-109561152D02*
X149935000Y-110878848D01*
G75*
G02*
X149663848Y-111150000I-271152J0D01*
G01*
X148796152Y-111150000D01*
G75*
G02*
X148525000Y-110878848I0J271152D01*
G01*
X148525000Y-109561152D01*
G75*
G02*
X148796152Y-109290000I271152J0D01*
G01*
X149663848Y-109290000D01*
G75*
G02*
X149935000Y-109561152I0J-271152D01*
G01*
G37*
G36*
G01*
X154562085Y-127075000D02*
X153597915Y-127075000D01*
G75*
G02*
X153325000Y-126802085I0J272915D01*
G01*
X153325000Y-126037915D01*
G75*
G02*
X153597915Y-125765000I272915J0D01*
G01*
X154562085Y-125765000D01*
G75*
G02*
X154835000Y-126037915I0J-272915D01*
G01*
X154835000Y-126802085D01*
G75*
G02*
X154562085Y-127075000I-272915J0D01*
G01*
G37*
G36*
G01*
X154562085Y-129075000D02*
X153597915Y-129075000D01*
G75*
G02*
X153325000Y-128802085I0J272915D01*
G01*
X153325000Y-128037915D01*
G75*
G02*
X153597915Y-127765000I272915J0D01*
G01*
X154562085Y-127765000D01*
G75*
G02*
X154835000Y-128037915I0J-272915D01*
G01*
X154835000Y-128802085D01*
G75*
G02*
X154562085Y-129075000I-272915J0D01*
G01*
G37*
G36*
G01*
X120135000Y-106861152D02*
X120135000Y-108178848D01*
G75*
G02*
X119863848Y-108450000I-271152J0D01*
G01*
X118996152Y-108450000D01*
G75*
G02*
X118725000Y-108178848I0J271152D01*
G01*
X118725000Y-106861152D01*
G75*
G02*
X118996152Y-106590000I271152J0D01*
G01*
X119863848Y-106590000D01*
G75*
G02*
X120135000Y-106861152I0J-271152D01*
G01*
G37*
G36*
G01*
X123235000Y-106861152D02*
X123235000Y-108178848D01*
G75*
G02*
X122963848Y-108450000I-271152J0D01*
G01*
X122096152Y-108450000D01*
G75*
G02*
X121825000Y-108178848I0J271152D01*
G01*
X121825000Y-106861152D01*
G75*
G02*
X122096152Y-106590000I271152J0D01*
G01*
X122963848Y-106590000D01*
G75*
G02*
X123235000Y-106861152I0J-271152D01*
G01*
G37*
G36*
G01*
X152421152Y-122865000D02*
X153738848Y-122865000D01*
G75*
G02*
X154010000Y-123136152I0J-271152D01*
G01*
X154010000Y-124003848D01*
G75*
G02*
X153738848Y-124275000I-271152J0D01*
G01*
X152421152Y-124275000D01*
G75*
G02*
X152150000Y-124003848I0J271152D01*
G01*
X152150000Y-123136152D01*
G75*
G02*
X152421152Y-122865000I271152J0D01*
G01*
G37*
G36*
G01*
X152421152Y-119765000D02*
X153738848Y-119765000D01*
G75*
G02*
X154010000Y-120036152I0J-271152D01*
G01*
X154010000Y-120903848D01*
G75*
G02*
X153738848Y-121175000I-271152J0D01*
G01*
X152421152Y-121175000D01*
G75*
G02*
X152150000Y-120903848I0J271152D01*
G01*
X152150000Y-120036152D01*
G75*
G02*
X152421152Y-119765000I271152J0D01*
G01*
G37*
G36*
G01*
X170775000Y-121822085D02*
X170775000Y-120857915D01*
G75*
G02*
X171047915Y-120585000I272915J0D01*
G01*
X171812085Y-120585000D01*
G75*
G02*
X172085000Y-120857915I0J-272915D01*
G01*
X172085000Y-121822085D01*
G75*
G02*
X171812085Y-122095000I-272915J0D01*
G01*
X171047915Y-122095000D01*
G75*
G02*
X170775000Y-121822085I0J272915D01*
G01*
G37*
G36*
G01*
X168775000Y-121822085D02*
X168775000Y-120857915D01*
G75*
G02*
X169047915Y-120585000I272915J0D01*
G01*
X169812085Y-120585000D01*
G75*
G02*
X170085000Y-120857915I0J-272915D01*
G01*
X170085000Y-121822085D01*
G75*
G02*
X169812085Y-122095000I-272915J0D01*
G01*
X169047915Y-122095000D01*
G75*
G02*
X168775000Y-121822085I0J272915D01*
G01*
G37*
G36*
G01*
X142938848Y-121175000D02*
X141621152Y-121175000D01*
G75*
G02*
X141350000Y-120903848I0J271152D01*
G01*
X141350000Y-120036152D01*
G75*
G02*
X141621152Y-119765000I271152J0D01*
G01*
X142938848Y-119765000D01*
G75*
G02*
X143210000Y-120036152I0J-271152D01*
G01*
X143210000Y-120903848D01*
G75*
G02*
X142938848Y-121175000I-271152J0D01*
G01*
G37*
G36*
G01*
X142938848Y-124275000D02*
X141621152Y-124275000D01*
G75*
G02*
X141350000Y-124003848I0J271152D01*
G01*
X141350000Y-123136152D01*
G75*
G02*
X141621152Y-122865000I271152J0D01*
G01*
X142938848Y-122865000D01*
G75*
G02*
X143210000Y-123136152I0J-271152D01*
G01*
X143210000Y-124003848D01*
G75*
G02*
X142938848Y-124275000I-271152J0D01*
G01*
G37*
G36*
G01*
X108073067Y-87804838D02*
X108754838Y-87123067D01*
G75*
G02*
X109140798Y-87123067I192980J-192980D01*
G01*
X109681147Y-87663416D01*
G75*
G02*
X109681147Y-88049376I-192980J-192980D01*
G01*
X108999376Y-88731147D01*
G75*
G02*
X108613416Y-88731147I-192980J192980D01*
G01*
X108073067Y-88190798D01*
G75*
G02*
X108073067Y-87804838I192980J192980D01*
G01*
G37*
G36*
G01*
X106658853Y-86390624D02*
X107340624Y-85708853D01*
G75*
G02*
X107726584Y-85708853I192980J-192980D01*
G01*
X108266933Y-86249202D01*
G75*
G02*
X108266933Y-86635162I-192980J-192980D01*
G01*
X107585162Y-87316933D01*
G75*
G02*
X107199202Y-87316933I-192980J192980D01*
G01*
X106658853Y-86776584D01*
G75*
G02*
X106658853Y-86390624I192980J192980D01*
G01*
G37*
G36*
G01*
X193502085Y-117115000D02*
X192537915Y-117115000D01*
G75*
G02*
X192265000Y-116842085I0J272915D01*
G01*
X192265000Y-116077915D01*
G75*
G02*
X192537915Y-115805000I272915J0D01*
G01*
X193502085Y-115805000D01*
G75*
G02*
X193775000Y-116077915I0J-272915D01*
G01*
X193775000Y-116842085D01*
G75*
G02*
X193502085Y-117115000I-272915J0D01*
G01*
G37*
G36*
G01*
X193502085Y-119115000D02*
X192537915Y-119115000D01*
G75*
G02*
X192265000Y-118842085I0J272915D01*
G01*
X192265000Y-118077915D01*
G75*
G02*
X192537915Y-117805000I272915J0D01*
G01*
X193502085Y-117805000D01*
G75*
G02*
X193775000Y-118077915I0J-272915D01*
G01*
X193775000Y-118842085D01*
G75*
G02*
X193502085Y-119115000I-272915J0D01*
G01*
G37*
G36*
G01*
X179235000Y-125537915D02*
X179235000Y-126502085D01*
G75*
G02*
X178962085Y-126775000I-272915J0D01*
G01*
X178197915Y-126775000D01*
G75*
G02*
X177925000Y-126502085I0J272915D01*
G01*
X177925000Y-125537915D01*
G75*
G02*
X178197915Y-125265000I272915J0D01*
G01*
X178962085Y-125265000D01*
G75*
G02*
X179235000Y-125537915I0J-272915D01*
G01*
G37*
G36*
G01*
X181235000Y-125537915D02*
X181235000Y-126502085D01*
G75*
G02*
X180962085Y-126775000I-272915J0D01*
G01*
X180197915Y-126775000D01*
G75*
G02*
X179925000Y-126502085I0J272915D01*
G01*
X179925000Y-125537915D01*
G75*
G02*
X180197915Y-125265000I272915J0D01*
G01*
X180962085Y-125265000D01*
G75*
G02*
X181235000Y-125537915I0J-272915D01*
G01*
G37*
G36*
G01*
X161625000Y-126502085D02*
X161625000Y-125537915D01*
G75*
G02*
X161897915Y-125265000I272915J0D01*
G01*
X162662085Y-125265000D01*
G75*
G02*
X162935000Y-125537915I0J-272915D01*
G01*
X162935000Y-126502085D01*
G75*
G02*
X162662085Y-126775000I-272915J0D01*
G01*
X161897915Y-126775000D01*
G75*
G02*
X161625000Y-126502085I0J272915D01*
G01*
G37*
G36*
G01*
X159625000Y-126502085D02*
X159625000Y-125537915D01*
G75*
G02*
X159897915Y-125265000I272915J0D01*
G01*
X160662085Y-125265000D01*
G75*
G02*
X160935000Y-125537915I0J-272915D01*
G01*
X160935000Y-126502085D01*
G75*
G02*
X160662085Y-126775000I-272915J0D01*
G01*
X159897915Y-126775000D01*
G75*
G02*
X159625000Y-126502085I0J272915D01*
G01*
G37*
G36*
G01*
X134425000Y-126502085D02*
X134425000Y-125537915D01*
G75*
G02*
X134697915Y-125265000I272915J0D01*
G01*
X135462085Y-125265000D01*
G75*
G02*
X135735000Y-125537915I0J-272915D01*
G01*
X135735000Y-126502085D01*
G75*
G02*
X135462085Y-126775000I-272915J0D01*
G01*
X134697915Y-126775000D01*
G75*
G02*
X134425000Y-126502085I0J272915D01*
G01*
G37*
G36*
G01*
X132425000Y-126502085D02*
X132425000Y-125537915D01*
G75*
G02*
X132697915Y-125265000I272915J0D01*
G01*
X133462085Y-125265000D01*
G75*
G02*
X133735000Y-125537915I0J-272915D01*
G01*
X133735000Y-126502085D01*
G75*
G02*
X133462085Y-126775000I-272915J0D01*
G01*
X132697915Y-126775000D01*
G75*
G02*
X132425000Y-126502085I0J272915D01*
G01*
G37*
G36*
G01*
X127132085Y-120775000D02*
X126167915Y-120775000D01*
G75*
G02*
X125895000Y-120502085I0J272915D01*
G01*
X125895000Y-119737915D01*
G75*
G02*
X126167915Y-119465000I272915J0D01*
G01*
X127132085Y-119465000D01*
G75*
G02*
X127405000Y-119737915I0J-272915D01*
G01*
X127405000Y-120502085D01*
G75*
G02*
X127132085Y-120775000I-272915J0D01*
G01*
G37*
G36*
G01*
X127132085Y-122775000D02*
X126167915Y-122775000D01*
G75*
G02*
X125895000Y-122502085I0J272915D01*
G01*
X125895000Y-121737915D01*
G75*
G02*
X126167915Y-121465000I272915J0D01*
G01*
X127132085Y-121465000D01*
G75*
G02*
X127405000Y-121737915I0J-272915D01*
G01*
X127405000Y-122502085D01*
G75*
G02*
X127132085Y-122775000I-272915J0D01*
G01*
G37*
G36*
G01*
X179925000Y-118502085D02*
X179925000Y-117537915D01*
G75*
G02*
X180197915Y-117265000I272915J0D01*
G01*
X180962085Y-117265000D01*
G75*
G02*
X181235000Y-117537915I0J-272915D01*
G01*
X181235000Y-118502085D01*
G75*
G02*
X180962085Y-118775000I-272915J0D01*
G01*
X180197915Y-118775000D01*
G75*
G02*
X179925000Y-118502085I0J272915D01*
G01*
G37*
G36*
G01*
X177925000Y-118502085D02*
X177925000Y-117537915D01*
G75*
G02*
X178197915Y-117265000I272915J0D01*
G01*
X178962085Y-117265000D01*
G75*
G02*
X179235000Y-117537915I0J-272915D01*
G01*
X179235000Y-118502085D01*
G75*
G02*
X178962085Y-118775000I-272915J0D01*
G01*
X178197915Y-118775000D01*
G75*
G02*
X177925000Y-118502085I0J272915D01*
G01*
G37*
G36*
G01*
X161625000Y-118502085D02*
X161625000Y-117537915D01*
G75*
G02*
X161897915Y-117265000I272915J0D01*
G01*
X162662085Y-117265000D01*
G75*
G02*
X162935000Y-117537915I0J-272915D01*
G01*
X162935000Y-118502085D01*
G75*
G02*
X162662085Y-118775000I-272915J0D01*
G01*
X161897915Y-118775000D01*
G75*
G02*
X161625000Y-118502085I0J272915D01*
G01*
G37*
G36*
G01*
X159625000Y-118502085D02*
X159625000Y-117537915D01*
G75*
G02*
X159897915Y-117265000I272915J0D01*
G01*
X160662085Y-117265000D01*
G75*
G02*
X160935000Y-117537915I0J-272915D01*
G01*
X160935000Y-118502085D01*
G75*
G02*
X160662085Y-118775000I-272915J0D01*
G01*
X159897915Y-118775000D01*
G75*
G02*
X159625000Y-118502085I0J272915D01*
G01*
G37*
G36*
G01*
X134425000Y-118502085D02*
X134425000Y-117537915D01*
G75*
G02*
X134697915Y-117265000I272915J0D01*
G01*
X135462085Y-117265000D01*
G75*
G02*
X135735000Y-117537915I0J-272915D01*
G01*
X135735000Y-118502085D01*
G75*
G02*
X135462085Y-118775000I-272915J0D01*
G01*
X134697915Y-118775000D01*
G75*
G02*
X134425000Y-118502085I0J272915D01*
G01*
G37*
G36*
G01*
X132425000Y-118502085D02*
X132425000Y-117537915D01*
G75*
G02*
X132697915Y-117265000I272915J0D01*
G01*
X133462085Y-117265000D01*
G75*
G02*
X133735000Y-117537915I0J-272915D01*
G01*
X133735000Y-118502085D01*
G75*
G02*
X133462085Y-118775000I-272915J0D01*
G01*
X132697915Y-118775000D01*
G75*
G02*
X132425000Y-118502085I0J272915D01*
G01*
G37*
G36*
G01*
X183138684Y-79040394D02*
X183813971Y-79715681D01*
G75*
G02*
X183813971Y-80390967I-337643J-337643D01*
G01*
X182997262Y-81207676D01*
G75*
G02*
X182321976Y-81207676I-337643J337643D01*
G01*
X181646689Y-80532389D01*
G75*
G02*
X181646689Y-79857103I337643J337643D01*
G01*
X182463398Y-79040394D01*
G75*
G02*
X183138684Y-79040394I337643J-337643D01*
G01*
G37*
G36*
G01*
X180522389Y-81656689D02*
X181197676Y-82331976D01*
G75*
G02*
X181197676Y-83007262I-337643J-337643D01*
G01*
X180380967Y-83823971D01*
G75*
G02*
X179705681Y-83823971I-337643J337643D01*
G01*
X179030394Y-83148684D01*
G75*
G02*
X179030394Y-82473398I337643J337643D01*
G01*
X179847103Y-81656689D01*
G75*
G02*
X180522389Y-81656689I337643J-337643D01*
G01*
G37*
G36*
G01*
X182078024Y-83212324D02*
X182753311Y-83887611D01*
G75*
G02*
X182753311Y-84562897I-337643J-337643D01*
G01*
X181936602Y-85379606D01*
G75*
G02*
X181261316Y-85379606I-337643J337643D01*
G01*
X180586029Y-84704319D01*
G75*
G02*
X180586029Y-84029033I337643J337643D01*
G01*
X181402738Y-83212324D01*
G75*
G02*
X182078024Y-83212324I337643J-337643D01*
G01*
G37*
G36*
G01*
X184694319Y-80596029D02*
X185369606Y-81271316D01*
G75*
G02*
X185369606Y-81946602I-337643J-337643D01*
G01*
X184552897Y-82763311D01*
G75*
G02*
X183877611Y-82763311I-337643J337643D01*
G01*
X183202324Y-82088024D01*
G75*
G02*
X183202324Y-81412738I337643J337643D01*
G01*
X184019033Y-80596029D01*
G75*
G02*
X184694319Y-80596029I337643J-337643D01*
G01*
G37*
G36*
G01*
X146960000Y-101859298D02*
X146960000Y-103180702D01*
G75*
G02*
X146690702Y-103450000I-269298J0D01*
G01*
X145694298Y-103450000D01*
G75*
G02*
X145425000Y-103180702I0J269298D01*
G01*
X145425000Y-101859298D01*
G75*
G02*
X145694298Y-101590000I269298J0D01*
G01*
X146690702Y-101590000D01*
G75*
G02*
X146960000Y-101859298I0J-269298D01*
G01*
G37*
G36*
G01*
X149935000Y-101859298D02*
X149935000Y-103180702D01*
G75*
G02*
X149665702Y-103450000I-269298J0D01*
G01*
X148669298Y-103450000D01*
G75*
G02*
X148400000Y-103180702I0J269298D01*
G01*
X148400000Y-101859298D01*
G75*
G02*
X148669298Y-101590000I269298J0D01*
G01*
X149665702Y-101590000D01*
G75*
G02*
X149935000Y-101859298I0J-269298D01*
G01*
G37*
G36*
G01*
X146960000Y-106859298D02*
X146960000Y-108180702D01*
G75*
G02*
X146690702Y-108450000I-269298J0D01*
G01*
X145694298Y-108450000D01*
G75*
G02*
X145425000Y-108180702I0J269298D01*
G01*
X145425000Y-106859298D01*
G75*
G02*
X145694298Y-106590000I269298J0D01*
G01*
X146690702Y-106590000D01*
G75*
G02*
X146960000Y-106859298I0J-269298D01*
G01*
G37*
G36*
G01*
X149935000Y-106859298D02*
X149935000Y-108180702D01*
G75*
G02*
X149665702Y-108450000I-269298J0D01*
G01*
X148669298Y-108450000D01*
G75*
G02*
X148400000Y-108180702I0J269298D01*
G01*
X148400000Y-106859298D01*
G75*
G02*
X148669298Y-106590000I269298J0D01*
G01*
X149665702Y-106590000D01*
G75*
G02*
X149935000Y-106859298I0J-269298D01*
G01*
G37*
G36*
G01*
X148400000Y-124180702D02*
X148400000Y-122859298D01*
G75*
G02*
X148669298Y-122590000I269298J0D01*
G01*
X149665702Y-122590000D01*
G75*
G02*
X149935000Y-122859298I0J-269298D01*
G01*
X149935000Y-124180702D01*
G75*
G02*
X149665702Y-124450000I-269298J0D01*
G01*
X148669298Y-124450000D01*
G75*
G02*
X148400000Y-124180702I0J269298D01*
G01*
G37*
G36*
G01*
X145425000Y-124180702D02*
X145425000Y-122859298D01*
G75*
G02*
X145694298Y-122590000I269298J0D01*
G01*
X146690702Y-122590000D01*
G75*
G02*
X146960000Y-122859298I0J-269298D01*
G01*
X146960000Y-124180702D01*
G75*
G02*
X146690702Y-124450000I-269298J0D01*
G01*
X145694298Y-124450000D01*
G75*
G02*
X145425000Y-124180702I0J269298D01*
G01*
G37*
G36*
G01*
X146960000Y-119859298D02*
X146960000Y-121180702D01*
G75*
G02*
X146690702Y-121450000I-269298J0D01*
G01*
X145694298Y-121450000D01*
G75*
G02*
X145425000Y-121180702I0J269298D01*
G01*
X145425000Y-119859298D01*
G75*
G02*
X145694298Y-119590000I269298J0D01*
G01*
X146690702Y-119590000D01*
G75*
G02*
X146960000Y-119859298I0J-269298D01*
G01*
G37*
G36*
G01*
X149935000Y-119859298D02*
X149935000Y-121180702D01*
G75*
G02*
X149665702Y-121450000I-269298J0D01*
G01*
X148669298Y-121450000D01*
G75*
G02*
X148400000Y-121180702I0J269298D01*
G01*
X148400000Y-119859298D01*
G75*
G02*
X148669298Y-119590000I269298J0D01*
G01*
X149665702Y-119590000D01*
G75*
G02*
X149935000Y-119859298I0J-269298D01*
G01*
G37*
G36*
G01*
X185359298Y-122740000D02*
X186680702Y-122740000D01*
G75*
G02*
X186950000Y-123009298I0J-269298D01*
G01*
X186950000Y-124005702D01*
G75*
G02*
X186680702Y-124275000I-269298J0D01*
G01*
X185359298Y-124275000D01*
G75*
G02*
X185090000Y-124005702I0J269298D01*
G01*
X185090000Y-123009298D01*
G75*
G02*
X185359298Y-122740000I269298J0D01*
G01*
G37*
G36*
G01*
X185359298Y-119765000D02*
X186680702Y-119765000D01*
G75*
G02*
X186950000Y-120034298I0J-269298D01*
G01*
X186950000Y-121030702D01*
G75*
G02*
X186680702Y-121300000I-269298J0D01*
G01*
X185359298Y-121300000D01*
G75*
G02*
X185090000Y-121030702I0J269298D01*
G01*
X185090000Y-120034298D01*
G75*
G02*
X185359298Y-119765000I269298J0D01*
G01*
G37*
G36*
G01*
X147285000Y-113483404D02*
X147285000Y-114496596D01*
G75*
G02*
X147011596Y-114770000I-273404J0D01*
G01*
X146273404Y-114770000D01*
G75*
G02*
X146000000Y-114496596I0J273404D01*
G01*
X146000000Y-113483404D01*
G75*
G02*
X146273404Y-113210000I273404J0D01*
G01*
X147011596Y-113210000D01*
G75*
G02*
X147285000Y-113483404I0J-273404D01*
G01*
G37*
G36*
G01*
X149360000Y-113483404D02*
X149360000Y-114496596D01*
G75*
G02*
X149086596Y-114770000I-273404J0D01*
G01*
X148348404Y-114770000D01*
G75*
G02*
X148075000Y-114496596I0J273404D01*
G01*
X148075000Y-113483404D01*
G75*
G02*
X148348404Y-113210000I273404J0D01*
G01*
X149086596Y-113210000D01*
G75*
G02*
X149360000Y-113483404I0J-273404D01*
G01*
G37*
G36*
G01*
X194586596Y-111425000D02*
X193573404Y-111425000D01*
G75*
G02*
X193300000Y-111151596I0J273404D01*
G01*
X193300000Y-110413404D01*
G75*
G02*
X193573404Y-110140000I273404J0D01*
G01*
X194586596Y-110140000D01*
G75*
G02*
X194860000Y-110413404I0J-273404D01*
G01*
X194860000Y-111151596D01*
G75*
G02*
X194586596Y-111425000I-273404J0D01*
G01*
G37*
G36*
G01*
X194586596Y-113500000D02*
X193573404Y-113500000D01*
G75*
G02*
X193300000Y-113226596I0J273404D01*
G01*
X193300000Y-112488404D01*
G75*
G02*
X193573404Y-112215000I273404J0D01*
G01*
X194586596Y-112215000D01*
G75*
G02*
X194860000Y-112488404I0J-273404D01*
G01*
X194860000Y-113226596D01*
G75*
G02*
X194586596Y-113500000I-273404J0D01*
G01*
G37*
G36*
G01*
X100773404Y-110215000D02*
X101786596Y-110215000D01*
G75*
G02*
X102060000Y-110488404I0J-273404D01*
G01*
X102060000Y-111226596D01*
G75*
G02*
X101786596Y-111500000I-273404J0D01*
G01*
X100773404Y-111500000D01*
G75*
G02*
X100500000Y-111226596I0J273404D01*
G01*
X100500000Y-110488404D01*
G75*
G02*
X100773404Y-110215000I273404J0D01*
G01*
G37*
G36*
G01*
X100773404Y-108140000D02*
X101786596Y-108140000D01*
G75*
G02*
X102060000Y-108413404I0J-273404D01*
G01*
X102060000Y-109151596D01*
G75*
G02*
X101786596Y-109425000I-273404J0D01*
G01*
X100773404Y-109425000D01*
G75*
G02*
X100500000Y-109151596I0J273404D01*
G01*
X100500000Y-108413404D01*
G75*
G02*
X100773404Y-108140000I273404J0D01*
G01*
G37*
G36*
G01*
X100773404Y-100615000D02*
X101786596Y-100615000D01*
G75*
G02*
X102060000Y-100888404I0J-273404D01*
G01*
X102060000Y-101626596D01*
G75*
G02*
X101786596Y-101900000I-273404J0D01*
G01*
X100773404Y-101900000D01*
G75*
G02*
X100500000Y-101626596I0J273404D01*
G01*
X100500000Y-100888404D01*
G75*
G02*
X100773404Y-100615000I273404J0D01*
G01*
G37*
G36*
G01*
X100773404Y-98540000D02*
X101786596Y-98540000D01*
G75*
G02*
X102060000Y-98813404I0J-273404D01*
G01*
X102060000Y-99551596D01*
G75*
G02*
X101786596Y-99825000I-273404J0D01*
G01*
X100773404Y-99825000D01*
G75*
G02*
X100500000Y-99551596I0J273404D01*
G01*
X100500000Y-98813404D01*
G75*
G02*
X100773404Y-98540000I273404J0D01*
G01*
G37*
G36*
G01*
X164373404Y-88915000D02*
X165386596Y-88915000D01*
G75*
G02*
X165660000Y-89188404I0J-273404D01*
G01*
X165660000Y-89926596D01*
G75*
G02*
X165386596Y-90200000I-273404J0D01*
G01*
X164373404Y-90200000D01*
G75*
G02*
X164100000Y-89926596I0J273404D01*
G01*
X164100000Y-89188404D01*
G75*
G02*
X164373404Y-88915000I273404J0D01*
G01*
G37*
G36*
G01*
X164373404Y-86840000D02*
X165386596Y-86840000D01*
G75*
G02*
X165660000Y-87113404I0J-273404D01*
G01*
X165660000Y-87851596D01*
G75*
G02*
X165386596Y-88125000I-273404J0D01*
G01*
X164373404Y-88125000D01*
G75*
G02*
X164100000Y-87851596I0J273404D01*
G01*
X164100000Y-87113404D01*
G75*
G02*
X164373404Y-86840000I273404J0D01*
G01*
G37*
G36*
G01*
X149073404Y-89015000D02*
X150086596Y-89015000D01*
G75*
G02*
X150360000Y-89288404I0J-273404D01*
G01*
X150360000Y-90026596D01*
G75*
G02*
X150086596Y-90300000I-273404J0D01*
G01*
X149073404Y-90300000D01*
G75*
G02*
X148800000Y-90026596I0J273404D01*
G01*
X148800000Y-89288404D01*
G75*
G02*
X149073404Y-89015000I273404J0D01*
G01*
G37*
G36*
G01*
X149073404Y-86940000D02*
X150086596Y-86940000D01*
G75*
G02*
X150360000Y-87213404I0J-273404D01*
G01*
X150360000Y-87951596D01*
G75*
G02*
X150086596Y-88225000I-273404J0D01*
G01*
X149073404Y-88225000D01*
G75*
G02*
X148800000Y-87951596I0J273404D01*
G01*
X148800000Y-87213404D01*
G75*
G02*
X149073404Y-86940000I273404J0D01*
G01*
G37*
G36*
G01*
X156373404Y-78415000D02*
X157386596Y-78415000D01*
G75*
G02*
X157660000Y-78688404I0J-273404D01*
G01*
X157660000Y-79426596D01*
G75*
G02*
X157386596Y-79700000I-273404J0D01*
G01*
X156373404Y-79700000D01*
G75*
G02*
X156100000Y-79426596I0J273404D01*
G01*
X156100000Y-78688404D01*
G75*
G02*
X156373404Y-78415000I273404J0D01*
G01*
G37*
G36*
G01*
X156373404Y-76340000D02*
X157386596Y-76340000D01*
G75*
G02*
X157660000Y-76613404I0J-273404D01*
G01*
X157660000Y-77351596D01*
G75*
G02*
X157386596Y-77625000I-273404J0D01*
G01*
X156373404Y-77625000D01*
G75*
G02*
X156100000Y-77351596I0J273404D01*
G01*
X156100000Y-76613404D01*
G75*
G02*
X156373404Y-76340000I273404J0D01*
G01*
G37*
G36*
G01*
X133873404Y-89015000D02*
X134886596Y-89015000D01*
G75*
G02*
X135160000Y-89288404I0J-273404D01*
G01*
X135160000Y-90026596D01*
G75*
G02*
X134886596Y-90300000I-273404J0D01*
G01*
X133873404Y-90300000D01*
G75*
G02*
X133600000Y-90026596I0J273404D01*
G01*
X133600000Y-89288404D01*
G75*
G02*
X133873404Y-89015000I273404J0D01*
G01*
G37*
G36*
G01*
X133873404Y-86940000D02*
X134886596Y-86940000D01*
G75*
G02*
X135160000Y-87213404I0J-273404D01*
G01*
X135160000Y-87951596D01*
G75*
G02*
X134886596Y-88225000I-273404J0D01*
G01*
X133873404Y-88225000D01*
G75*
G02*
X133600000Y-87951596I0J273404D01*
G01*
X133600000Y-87213404D01*
G75*
G02*
X133873404Y-86940000I273404J0D01*
G01*
G37*
G36*
G01*
X125273404Y-78415000D02*
X126286596Y-78415000D01*
G75*
G02*
X126560000Y-78688404I0J-273404D01*
G01*
X126560000Y-79426596D01*
G75*
G02*
X126286596Y-79700000I-273404J0D01*
G01*
X125273404Y-79700000D01*
G75*
G02*
X125000000Y-79426596I0J273404D01*
G01*
X125000000Y-78688404D01*
G75*
G02*
X125273404Y-78415000I273404J0D01*
G01*
G37*
G36*
G01*
X125273404Y-76340000D02*
X126286596Y-76340000D01*
G75*
G02*
X126560000Y-76613404I0J-273404D01*
G01*
X126560000Y-77351596D01*
G75*
G02*
X126286596Y-77625000I-273404J0D01*
G01*
X125273404Y-77625000D01*
G75*
G02*
X125000000Y-77351596I0J273404D01*
G01*
X125000000Y-76613404D01*
G75*
G02*
X125273404Y-76340000I273404J0D01*
G01*
G37*
G36*
G01*
X141423404Y-78235000D02*
X142436596Y-78235000D01*
G75*
G02*
X142710000Y-78508404I0J-273404D01*
G01*
X142710000Y-79246596D01*
G75*
G02*
X142436596Y-79520000I-273404J0D01*
G01*
X141423404Y-79520000D01*
G75*
G02*
X141150000Y-79246596I0J273404D01*
G01*
X141150000Y-78508404D01*
G75*
G02*
X141423404Y-78235000I273404J0D01*
G01*
G37*
G36*
G01*
X141423404Y-76160000D02*
X142436596Y-76160000D01*
G75*
G02*
X142710000Y-76433404I0J-273404D01*
G01*
X142710000Y-77171596D01*
G75*
G02*
X142436596Y-77445000I-273404J0D01*
G01*
X141423404Y-77445000D01*
G75*
G02*
X141150000Y-77171596I0J273404D01*
G01*
X141150000Y-76433404D01*
G75*
G02*
X141423404Y-76160000I273404J0D01*
G01*
G37*
G36*
G01*
X117373404Y-88915000D02*
X118386596Y-88915000D01*
G75*
G02*
X118660000Y-89188404I0J-273404D01*
G01*
X118660000Y-89926596D01*
G75*
G02*
X118386596Y-90200000I-273404J0D01*
G01*
X117373404Y-90200000D01*
G75*
G02*
X117100000Y-89926596I0J273404D01*
G01*
X117100000Y-89188404D01*
G75*
G02*
X117373404Y-88915000I273404J0D01*
G01*
G37*
G36*
G01*
X117373404Y-86840000D02*
X118386596Y-86840000D01*
G75*
G02*
X118660000Y-87113404I0J-273404D01*
G01*
X118660000Y-87851596D01*
G75*
G02*
X118386596Y-88125000I-273404J0D01*
G01*
X117373404Y-88125000D01*
G75*
G02*
X117100000Y-87851596I0J273404D01*
G01*
X117100000Y-87113404D01*
G75*
G02*
X117373404Y-86840000I273404J0D01*
G01*
G37*
G36*
G01*
X110951089Y-84997524D02*
X111667524Y-84281089D01*
G75*
G02*
X112054176Y-84281089I193326J-193326D01*
G01*
X112576157Y-84803070D01*
G75*
G02*
X112576157Y-85189722I-193326J-193326D01*
G01*
X111859722Y-85906157D01*
G75*
G02*
X111473070Y-85906157I-193326J193326D01*
G01*
X110951089Y-85384176D01*
G75*
G02*
X110951089Y-84997524I193326J193326D01*
G01*
G37*
G36*
G01*
X109483843Y-83530278D02*
X110200278Y-82813843D01*
G75*
G02*
X110586930Y-82813843I193326J-193326D01*
G01*
X111108911Y-83335824D01*
G75*
G02*
X111108911Y-83722476I-193326J-193326D01*
G01*
X110392476Y-84438911D01*
G75*
G02*
X110005824Y-84438911I-193326J193326D01*
G01*
X109483843Y-83916930D01*
G75*
G02*
X109483843Y-83530278I193326J193326D01*
G01*
G37*
G36*
G01*
X189787524Y-89078911D02*
X189071089Y-88362476D01*
G75*
G02*
X189071089Y-87975824I193326J193326D01*
G01*
X189593070Y-87453843D01*
G75*
G02*
X189979722Y-87453843I193326J-193326D01*
G01*
X190696157Y-88170278D01*
G75*
G02*
X190696157Y-88556930I-193326J-193326D01*
G01*
X190174176Y-89078911D01*
G75*
G02*
X189787524Y-89078911I-193326J193326D01*
G01*
G37*
G36*
G01*
X188320278Y-90546157D02*
X187603843Y-89829722D01*
G75*
G02*
X187603843Y-89443070I193326J193326D01*
G01*
X188125824Y-88921089D01*
G75*
G02*
X188512476Y-88921089I193326J-193326D01*
G01*
X189228911Y-89637524D01*
G75*
G02*
X189228911Y-90024176I-193326J-193326D01*
G01*
X188706930Y-90546157D01*
G75*
G02*
X188320278Y-90546157I-193326J193326D01*
G01*
G37*
G36*
G01*
X115285000Y-116663404D02*
X115285000Y-117676596D01*
G75*
G02*
X115011596Y-117950000I-273404J0D01*
G01*
X114273404Y-117950000D01*
G75*
G02*
X114000000Y-117676596I0J273404D01*
G01*
X114000000Y-116663404D01*
G75*
G02*
X114273404Y-116390000I273404J0D01*
G01*
X115011596Y-116390000D01*
G75*
G02*
X115285000Y-116663404I0J-273404D01*
G01*
G37*
G36*
G01*
X117360000Y-116663404D02*
X117360000Y-117676596D01*
G75*
G02*
X117086596Y-117950000I-273404J0D01*
G01*
X116348404Y-117950000D01*
G75*
G02*
X116075000Y-117676596I0J273404D01*
G01*
X116075000Y-116663404D01*
G75*
G02*
X116348404Y-116390000I273404J0D01*
G01*
X117086596Y-116390000D01*
G75*
G02*
X117360000Y-116663404I0J-273404D01*
G01*
G37*
G36*
G01*
X170035000Y-124353404D02*
X170035000Y-125366596D01*
G75*
G02*
X169761596Y-125640000I-273404J0D01*
G01*
X169023404Y-125640000D01*
G75*
G02*
X168750000Y-125366596I0J273404D01*
G01*
X168750000Y-124353404D01*
G75*
G02*
X169023404Y-124080000I273404J0D01*
G01*
X169761596Y-124080000D01*
G75*
G02*
X170035000Y-124353404I0J-273404D01*
G01*
G37*
G36*
G01*
X172110000Y-124353404D02*
X172110000Y-125366596D01*
G75*
G02*
X171836596Y-125640000I-273404J0D01*
G01*
X171098404Y-125640000D01*
G75*
G02*
X170825000Y-125366596I0J273404D01*
G01*
X170825000Y-124353404D01*
G75*
G02*
X171098404Y-124080000I273404J0D01*
G01*
X171836596Y-124080000D01*
G75*
G02*
X172110000Y-124353404I0J-273404D01*
G01*
G37*
G36*
G01*
X123375000Y-117676596D02*
X123375000Y-116663404D01*
G75*
G02*
X123648404Y-116390000I273404J0D01*
G01*
X124386596Y-116390000D01*
G75*
G02*
X124660000Y-116663404I0J-273404D01*
G01*
X124660000Y-117676596D01*
G75*
G02*
X124386596Y-117950000I-273404J0D01*
G01*
X123648404Y-117950000D01*
G75*
G02*
X123375000Y-117676596I0J273404D01*
G01*
G37*
G36*
G01*
X121300000Y-117676596D02*
X121300000Y-116663404D01*
G75*
G02*
X121573404Y-116390000I273404J0D01*
G01*
X122311596Y-116390000D01*
G75*
G02*
X122585000Y-116663404I0J-273404D01*
G01*
X122585000Y-117676596D01*
G75*
G02*
X122311596Y-117950000I-273404J0D01*
G01*
X121573404Y-117950000D01*
G75*
G02*
X121300000Y-117676596I0J273404D01*
G01*
G37*
G36*
G01*
X179975000Y-129006596D02*
X179975000Y-127993404D01*
G75*
G02*
X180248404Y-127720000I273404J0D01*
G01*
X180986596Y-127720000D01*
G75*
G02*
X181260000Y-127993404I0J-273404D01*
G01*
X181260000Y-129006596D01*
G75*
G02*
X180986596Y-129280000I-273404J0D01*
G01*
X180248404Y-129280000D01*
G75*
G02*
X179975000Y-129006596I0J273404D01*
G01*
G37*
G36*
G01*
X177900000Y-129006596D02*
X177900000Y-127993404D01*
G75*
G02*
X178173404Y-127720000I273404J0D01*
G01*
X178911596Y-127720000D01*
G75*
G02*
X179185000Y-127993404I0J-273404D01*
G01*
X179185000Y-129006596D01*
G75*
G02*
X178911596Y-129280000I-273404J0D01*
G01*
X178173404Y-129280000D01*
G75*
G02*
X177900000Y-129006596I0J273404D01*
G01*
G37*
G36*
G01*
X133685000Y-127993404D02*
X133685000Y-129006596D01*
G75*
G02*
X133411596Y-129280000I-273404J0D01*
G01*
X132673404Y-129280000D01*
G75*
G02*
X132400000Y-129006596I0J273404D01*
G01*
X132400000Y-127993404D01*
G75*
G02*
X132673404Y-127720000I273404J0D01*
G01*
X133411596Y-127720000D01*
G75*
G02*
X133685000Y-127993404I0J-273404D01*
G01*
G37*
G36*
G01*
X135760000Y-127993404D02*
X135760000Y-129006596D01*
G75*
G02*
X135486596Y-129280000I-273404J0D01*
G01*
X134748404Y-129280000D01*
G75*
G02*
X134475000Y-129006596I0J273404D01*
G01*
X134475000Y-127993404D01*
G75*
G02*
X134748404Y-127720000I273404J0D01*
G01*
X135486596Y-127720000D01*
G75*
G02*
X135760000Y-127993404I0J-273404D01*
G01*
G37*
G36*
G01*
X108535000Y-123016596D02*
X108535000Y-122003404D01*
G75*
G02*
X108808404Y-121730000I273404J0D01*
G01*
X109546596Y-121730000D01*
G75*
G02*
X109820000Y-122003404I0J-273404D01*
G01*
X109820000Y-123016596D01*
G75*
G02*
X109546596Y-123290000I-273404J0D01*
G01*
X108808404Y-123290000D01*
G75*
G02*
X108535000Y-123016596I0J273404D01*
G01*
G37*
G36*
G01*
X106460000Y-123016596D02*
X106460000Y-122003404D01*
G75*
G02*
X106733404Y-121730000I273404J0D01*
G01*
X107471596Y-121730000D01*
G75*
G02*
X107745000Y-122003404I0J-273404D01*
G01*
X107745000Y-123016596D01*
G75*
G02*
X107471596Y-123290000I-273404J0D01*
G01*
X106733404Y-123290000D01*
G75*
G02*
X106460000Y-123016596I0J273404D01*
G01*
G37*
G36*
G01*
X184242476Y-84661089D02*
X184958911Y-85377524D01*
G75*
G02*
X184958911Y-85764176I-193326J-193326D01*
G01*
X184436930Y-86286157D01*
G75*
G02*
X184050278Y-86286157I-193326J193326D01*
G01*
X183333843Y-85569722D01*
G75*
G02*
X183333843Y-85183070I193326J193326D01*
G01*
X183855824Y-84661089D01*
G75*
G02*
X184242476Y-84661089I193326J-193326D01*
G01*
G37*
G36*
G01*
X185709722Y-83193843D02*
X186426157Y-83910278D01*
G75*
G02*
X186426157Y-84296930I-193326J-193326D01*
G01*
X185904176Y-84818911D01*
G75*
G02*
X185517524Y-84818911I-193326J193326D01*
G01*
X184801089Y-84102476D01*
G75*
G02*
X184801089Y-83715824I193326J193326D01*
G01*
X185323070Y-83193843D01*
G75*
G02*
X185709722Y-83193843I193326J-193326D01*
G01*
G37*
M02*
